<?xml version="1.0" encoding="UTF-8" standalone="no"?>
<svg
   xmlns:dc="http://purl.org/dc/elements/1.1/"
   xmlns:cc="http://creativecommons.org/ns#"
   xmlns:rdf="http://www.w3.org/1999/02/22-rdf-syntax-ns#"
   xmlns:svg="http://www.w3.org/2000/svg"
   xmlns="http://www.w3.org/2000/svg"
   xmlns:sodipodi="http://sodipodi.sourceforge.net/DTD/sodipodi-0.dtd"
   xmlns:inkscape="http://www.inkscape.org/namespaces/inkscape"
   version="1.1"
   id="svg2"
   xml:space="preserve"
   width="944.88135"
   height="944.88135"
   viewBox="0 0 944.88135 944.88135"
   sodipodi:docname="Controle.ai"><metadata
     id="metadata8"><rdf:RDF><cc:Work
         rdf:about=""><dc:format>image/svg+xml</dc:format><dc:type
           rdf:resource="http://purl.org/dc/dcmitype/StillImage" /></cc:Work></rdf:RDF></metadata><defs
     id="defs6"><clipPath
       clipPathUnits="userSpaceOnUse"
       id="clipPath18"><path
         d="M 0,708.661 H 708.661 V 0 H 0 Z"
         id="path16" /></clipPath></defs><sodipodi:namedview
     pagecolor="#ffffff"
     bordercolor="#666666"
     borderopacity="1"
     objecttolerance="10"
     gridtolerance="10"
     guidetolerance="10"
     inkscape:pageopacity="0"
     inkscape:pageshadow="2"
     inkscape:window-width="640"
     inkscape:window-height="480"
     id="namedview4" /><g
     id="g10"
     inkscape:groupmode="layer"
     inkscape:label="Controle"
     transform="matrix(1.3333333,0,0,-1.3333333,0,944.88133)"><g
       id="g12"><g
         id="g14"
         clip-path="url(#clipPath18)"><g
           id="g20"
           transform="translate(694.4883,354.3308)"><path
             d="m 0,0 c 0,-187.95 -152.294,-340.312 -340.158,-340.312 -187.863,0 -340.157,152.362 -340.157,340.312 0,187.949 152.294,340.312 340.157,340.312 C -152.294,340.312 0,187.949 0,0"
             style="fill:#ffffff;fill-opacity:1;fill-rule:nonzero;stroke:none"
             id="path22" /></g><g
           id="g24"
           transform="translate(354.3306,692.0955)"><path
             d="m 0,0 c -186.512,0 -337.709,-151.223 -337.709,-337.765 0,-186.542 151.197,-337.765 337.709,-337.765 186.512,0 337.709,151.223 337.709,337.765 C 337.709,-151.223 186.512,0 0,0 m 350.404,-337.765 c 0,-193.537 -156.881,-350.431 -350.404,-350.431 -193.522,0 -350.403,156.894 -350.403,350.431 0,193.538 156.881,350.431 350.403,350.431 193.523,0 350.404,-156.893 350.404,-350.431"
             style="fill:#1d1d1b;fill-opacity:1;fill-rule:nonzero;stroke:none"
             id="path26" /></g><g
           id="g28"
           transform="translate(354.3306,556.9857)"><path
             d="m 0,0 c -111.86,0 -202.54,-90.731 -202.54,-202.655 0,-111.923 90.68,-202.655 202.54,-202.655 111.86,0 202.541,90.732 202.541,202.655 C 202.541,-90.731 111.86,0 0,0 m 325.034,-202.655 c 0,-179.546 -145.523,-325.098 -325.034,-325.098 -179.511,0 -325.034,145.552 -325.034,325.098 0,179.547 145.523,325.098 325.034,325.098 179.511,0 325.034,-145.551 325.034,-325.098"
             style="fill:#1d1d1b;fill-opacity:1;fill-rule:nonzero;stroke:none"
             id="path30" /></g><g
           id="g32"
           transform="translate(161.127,126.5452)"><path
             d="M 0,0 C -12.562,10.553 -12.913,29.183 -0.926,43.451 11.129,57.8 29.54,60.667 42.103,50.114 52.919,41.027 54.364,25.738 45.88,12.234 l -11.521,9.678 c 2.694,6.082 1.796,12.254 -2.547,15.902 C 25.968,42.725 17.118,40.895 10.913,33.508 4.731,26.15 4.521,17.196 10.365,12.287 14.944,8.439 21.442,8.864 27.052,13.193 L 38.681,3.425 C 26.574,-7.801 10.994,-9.234 0.001,0 Z"
             style="fill:#ffffff;fill-opacity:1;fill-rule:nonzero;stroke:none"
             id="path34" /></g><g
           id="g36"
           transform="translate(226.8457,101.7542)"><path
             d="m 0,0 c 7.285,-3.773 15.781,-0.287 20.268,8.369 4.486,8.657 2.436,17.61 -4.849,21.384 C 8.134,33.527 -0.464,30.037 -4.927,21.426 -9.39,12.814 -7.285,3.777 0.001,0.002 Z M -7.349,-14.18 C -22.735,-6.207 -27.417,11.634 -18.655,28.541 -9.894,45.447 7.383,51.908 22.77,43.936 38.116,35.982 42.782,18.209 33.997,1.256 25.212,-15.695 7.998,-22.131 -7.349,-14.179 Z"
             style="fill:#ffffff;fill-opacity:1;fill-rule:nonzero;stroke:none"
             id="path38" /></g><g
           id="g40"
           transform="translate(324.2148,118.9925)"><path
             d="m 0,0 -14.804,-60.52 -11.932,2.918 -12.771,37.93 -8.034,-32.842 -13.981,3.418 14.804,60.52 12.627,-3.088 12.343,-36.668 7.767,31.75 z"
             style="fill:#ffffff;fill-opacity:1;fill-rule:nonzero;stroke:none"
             id="path42" /></g><g
           id="g44"
           transform="translate(369.7324,102.2894)"><path
             d="m 0,0 -14.638,0.404 -1.293,-46.824 -14.91,0.41 1.293,46.824 -14.639,0.404 0.427,15.446 44.187,-1.217 z"
             style="fill:#ffffff;fill-opacity:1;fill-rule:nonzero;stroke:none"
             id="path46" /></g><g
           id="g48"
           transform="translate(391.8994,92.2015)"><path
             d="m 0,0 6.685,1.161 c 4.09,0.71 5.951,3.966 5.285,7.804 -0.667,3.836 -3.509,6.236 -7.6,5.525 l -6.684,-1.162 z m 7.779,-13.324 -5.305,-0.922 3.261,-18.781 -14.633,-2.543 -10.66,61.384 23.023,4 c 11.451,1.99 21.296,-5.46 23.524,-18.293 1.308,-7.533 -0.803,-14.257 -5.421,-18.8 l 14.424,-20.492 -16.333,-2.838 z"
             style="fill:#ffffff;fill-opacity:1;fill-rule:nonzero;stroke:none"
             id="path50" /></g><g
           id="g52"
           transform="translate(461.5615,92.2376)"><path
             d="M 0,0 C 7.557,3.196 10.298,11.96 6.5,20.939 2.702,29.919 -5.495,34.057 -13.052,30.86 -20.608,27.665 -23.411,18.819 -19.634,9.886 -15.856,0.954 -7.557,-3.196 0,0.001 Z m 6.222,-14.709 c -15.96,-6.751 -32.68,1.036 -40.097,18.573 -7.417,17.536 -1.358,34.957 14.602,41.707 15.919,6.735 32.576,-1.022 40.013,-18.607 7.437,-17.582 1.4,-34.94 -14.519,-41.672 z"
             style="fill:#ffffff;fill-opacity:1;fill-rule:nonzero;stroke:none"
             id="path54" /></g><g
           id="g56"
           transform="translate(526.7168,131.2718)"><path
             d="m 0,0 8.799,-13.023 -28.366,-19.169 -34.874,51.622 12.468,8.425 26.077,-38.597 z"
             style="fill:#ffffff;fill-opacity:1;fill-rule:nonzero;stroke:none"
             id="path58" /></g><g
           id="g60"
           transform="translate(561.0215,160.6663)"><path
             d="m 0,0 10.021,-11.008 -25.996,-23.656 -41.933,46.068 25.512,23.217 9.987,-10.971 -14.576,-13.265 6.173,-6.781 13.096,11.916 9.476,-10.411 -13.096,-11.916 6.277,-6.896 z"
             style="fill:#ffffff;fill-opacity:1;fill-rule:nonzero;stroke:none"
             id="path62" /></g><g
           id="g64"
           transform="translate(686.499,337.2405)"><path
             d="m 0,0 c 0,0 -19.77,-19.831 -23.023,-23.086 -3.944,-3.942 -7.667,-7.605 -11.45,-11.387 -7.574,-7.575 -15.184,-15.429 -22.712,-22.957 -0.959,-0.959 -2.04,-1.795 -2.999,-2.755 l -11.448,-11.448 c -1.898,-1.898 -4.127,-3.332 -6.795,-4.591 -1.32,-0.624 -2.685,-1.181 -4.163,-1.53 -3.253,-0.77 -6.806,-1.102 -10.347,-1.102 -3.58,0 -6.538,0.994 -9.304,2.082 -1.241,0.487 -2.684,1.127 -3.858,1.896 -1.168,0.77 -2.419,1.481 -3.366,2.327 -1.054,0.941 -2.008,1.824 -2.937,2.755 -0.994,0.993 -1.645,2.025 -2.45,3.245 -1.468,2.222 -2.653,4.759 -3.612,7.836 -0.901,2.89 -1.694,6.341 -1.163,10.039 0.237,1.654 0.669,3.149 1.286,4.47 1.709,3.663 4.441,7.146 9.672,7.407 3.845,0.192 6.019,-1.685 7.714,-3.734 0.957,-1.156 1.535,-2.338 1.836,-3.857 0.318,-1.613 0.175,-3.422 0.246,-5.449 0.124,-3.612 1.501,-6.09 3.917,-7.529 2.331,-1.389 5.842,-1.883 9.183,-0.735 2.668,0.916 4.385,3.345 6.245,5.204 1.892,1.892 4.01,4.009 5.693,5.693 0.967,0.968 1.838,2.003 2.753,3 2.682,2.917 5.782,5.667 8.572,8.509 4.266,4.345 8.567,8.655 12.876,12.957 2.212,2.208 4.427,4.414 6.639,6.622 0.824,0.822 1.592,1.852 2.474,2.595 0.998,0.839 1.999,2.299 1.999,2.299 l 37.726,40.746 z"
             style="fill:#ffffff;fill-opacity:1;fill-rule:evenodd;stroke:none"
             id="path66" /></g><g
           id="g68"
           transform="translate(22.1621,337.2405)"><path
             d="m 0,0 c 0,0 19.77,-19.831 23.024,-23.086 3.943,-3.942 7.666,-7.605 11.449,-11.387 7.574,-7.575 15.185,-15.429 22.712,-22.957 0.959,-0.959 2.04,-1.795 2.999,-2.755 3.748,-3.748 7.607,-7.606 11.448,-11.448 1.898,-1.898 4.127,-3.332 6.795,-4.591 1.321,-0.624 2.686,-1.181 4.163,-1.53 3.253,-0.77 6.806,-1.102 10.347,-1.102 3.58,0 6.538,0.994 9.304,2.082 1.241,0.487 2.684,1.127 3.858,1.896 1.168,0.77 2.419,1.481 3.366,2.327 1.054,0.941 2.008,1.824 2.938,2.755 0.994,0.993 1.644,2.025 2.449,3.245 1.468,2.222 2.653,4.759 3.612,7.836 0.901,2.89 1.695,6.341 1.163,10.039 -0.237,1.654 -0.669,3.149 -1.286,4.47 -1.709,3.663 -4.441,7.146 -9.672,7.407 -3.844,0.192 -6.018,-1.685 -7.713,-3.734 -0.957,-1.156 -1.536,-2.338 -1.837,-3.857 -0.318,-1.613 -0.175,-3.422 -0.245,-5.449 -0.125,-3.612 -1.501,-6.09 -3.918,-7.529 -2.331,-1.389 -5.842,-1.883 -9.183,-0.735 -2.668,0.916 -4.385,3.345 -6.245,5.204 -1.892,1.892 -4.01,4.009 -5.693,5.693 -0.967,0.968 -1.837,2.003 -2.753,3 -2.682,2.917 -5.782,5.667 -8.572,8.509 -4.265,4.345 -8.566,8.655 -12.876,12.957 -2.212,2.208 -4.426,4.414 -6.639,6.622 -0.824,0.822 -1.591,1.852 -2.474,2.595 -0.998,0.839 -1.999,2.299 -1.999,2.299 L 0.796,29.522 Z"
             style="fill:#ffffff;fill-opacity:1;fill-rule:evenodd;stroke:none"
             id="path70" /></g><g
           id="g72"
           transform="translate(90.4131,406.1111)"><path
             d="m 0,0 1.305,5.36 c 0.799,3.282 -0.83,5.677 -3.647,6.363 -2.816,0.684 -5.337,-0.702 -6.136,-3.983 L -9.783,2.38 Z M 11.491,1.712 10.455,-2.543 24.24,-5.896 21.383,-17.632 -23.67,-6.673 -19.175,11.79 c 2.237,9.183 10.383,14.252 19.801,11.961 5.529,-1.345 9.437,-5 11.078,-9.855 L 30.148,18.367 26.959,5.27 Z"
             style="fill:#ffffff;fill-opacity:1;fill-rule:nonzero;stroke:none"
             id="path74" /></g><g
           id="g76"
           transform="translate(76.7344,437.3904)"><path
             d="M 0,0 3.95,11.584 47.828,-3.381 43.878,-14.964 Z"
             style="fill:#ffffff;fill-opacity:1;fill-rule:nonzero;stroke:none"
             id="path78" /></g><g
           id="g80"
           transform="translate(108.7979,438.7439)"><path
             d="m 0,0 -1.673,0.732 4.885,11.143 1.075,-0.472 c 3.251,-1.424 6.14,-0.528 7.343,2.216 1.145,2.612 -0.117,5.329 -3.403,6.77 l -27.31,11.972 4.885,11.142 27.907,-12.234 C 22.912,27.234 26.597,18.15 22.518,8.847 18.468,-0.392 9.229,-4.046 0,0"
             style="fill:#ffffff;fill-opacity:1;fill-rule:nonzero;stroke:none"
             id="path82" /></g><g
           id="g84"
           transform="translate(123.3271,469.8435)"><path
             d="m 0,0 6.323,10.736 c 2.853,-1.68 5.468,-0.417 6.866,1.957 1.284,2.18 1.284,4.985 -0.899,6.27 -2.506,1.475 -4.964,-1.037 -8.003,-4.09 -4.651,-4.615 -10.526,-10.544 -19.62,-5.187 -7.867,4.633 -9.154,12.754 -3.908,21.663 5.334,9.057 13.309,11.355 21.436,6.567 L -3.951,27.479 c -2.527,1.488 -4.76,0.405 -6.03,-1.752 -1.093,-1.855 -1.292,-4.136 0.572,-5.235 2.268,-1.336 4.696,1.07 7.737,4.07 4.791,4.667 11.037,10.781 20.159,5.407 8.725,-5.139 9.52,-14.147 4.354,-22.92 C 17.396,-2.197 8.707,-5.129 0,0"
             style="fill:#ffffff;fill-opacity:1;fill-rule:nonzero;stroke:none"
             id="path86" /></g><g
           id="g88"
           transform="translate(155.2529,567.2088)"><path
             d="m 0,0 26.868,-40.122 -6.825,-8.152 -22.557,7.915 11.862,-20.688 -6.826,-8.151 -44.358,19.233 8.326,9.944 25.054,-11.698 -13.607,25.012 2.683,3.204 27.152,-8.866 -16.029,22.509 z"
             style="fill:#ffffff;fill-opacity:1;fill-rule:nonzero;stroke:none"
             id="path90" /></g><g
           id="g92"
           transform="translate(158.8271,568.3162)"><path
             d="m 0,0 9.079,8.209 31.093,-34.394 -9.079,-8.208 z"
             style="fill:#ffffff;fill-opacity:1;fill-rule:nonzero;stroke:none"
             id="path94" /></g><g
           id="g96"
           transform="translate(187.5254,553.9793)"><path
             d="M 0,0 -1.098,1.459 8.624,8.771 9.33,7.834 c 2.133,-2.837 5.09,-3.473 7.484,-1.671 2.281,1.714 2.512,4.701 0.357,7.567 L -0.75,37.559 8.972,44.871 27.284,20.521 C 33.324,12.492 32.077,2.77 23.959,-3.337 15.898,-9.399 6.056,-8.052 0,0"
             style="fill:#ffffff;fill-opacity:1;fill-rule:nonzero;stroke:none"
             id="path98" /></g><g
           id="g100"
           transform="translate(246.1182,574.116)"><path
             d="m 0,0 -20.975,11.733 10.005,-17.875 -10.538,-5.9 -22.643,40.461 10.537,5.899 9.545,-17.054 0.565,22.715 12.22,6.842 -1.28,-26.456 25.067,-13.364 z"
             style="fill:#ffffff;fill-opacity:1;fill-rule:nonzero;stroke:none"
             id="path102" /></g><g
           id="g104"
           transform="translate(246.0918,591.3807)"><path
             d="m 0,0 11.581,4.596 c 1.222,-3.078 4.063,-3.686 6.622,-2.67 2.352,0.933 4.072,3.147 3.138,5.502 -1.074,2.704 -4.557,2.228 -8.83,1.683 C 6.006,8.322 -2.271,7.247 -6.166,17.06 c -3.37,8.487 0.596,15.688 10.204,19.502 9.77,3.876 17.478,0.795 20.959,-7.973 L 13.738,24.121 c -1.082,2.726 -3.51,3.241 -5.837,2.318 -2,-0.793 -3.557,-2.472 -2.758,-4.484 0.971,-2.448 4.364,-2.038 8.606,-1.536 6.647,0.744 15.331,1.736 19.238,-8.106 C 36.725,2.901 31.825,-4.699 22.363,-8.454 12.39,-12.412 3.729,-9.394 0,0"
             style="fill:#ffffff;fill-opacity:1;fill-rule:nonzero;stroke:none"
             id="path106" /></g><g
           id="g108"
           transform="translate(303.5137,593.6981)"><path
             d="m 0,0 c -13.011,-2.955 -25.043,5.026 -28.116,18.551 -3.091,13.599 4.31,25.994 17.321,28.949 11.202,2.545 21.657,-3.306 25.999,-14.375 L 3.272,30.414 c -2.52,4.304 -6.898,6.476 -11.396,5.454 -6.054,-1.375 -9.323,-7.531 -7.731,-14.532 1.584,-6.974 7.176,-11.039 13.229,-9.664 4.743,1.077 7.73,5.193 7.785,10.489 l 12.044,2.736 C 18.28,12.64 11.386,2.587 0,0.001 Z"
             style="fill:#ffffff;fill-opacity:1;fill-rule:nonzero;stroke:none"
             id="path110" /></g><g
           id="g112"
           transform="translate(357.7012,647.4774)"><path
             d="m 0,0 2.563,-46.292 -12.166,-0.674 -0.983,17.771 -13.136,-0.728 0.985,-17.77 -12.165,-0.674 -2.564,46.292 12.165,0.674 0.925,-16.702 13.135,0.728 -0.925,16.701 z"
             style="fill:#ffffff;fill-opacity:1;fill-rule:nonzero;stroke:none"
             id="path114" /></g><g
           id="g116"
           transform="translate(390.3428,609.4549)"><path
             d="M 0,0 -0.929,-11.042 -29.41,-8.646 -25.522,37.561 2.431,35.209 1.505,24.205 -14.466,25.549 -15.038,18.746 -0.69,17.539 -1.568,7.098 -15.917,8.305 -16.499,1.387 Z"
             style="fill:#ffffff;fill-opacity:1;fill-rule:nonzero;stroke:none"
             id="path118" /></g><g
           id="g120"
           transform="translate(404.4561,611.1063)"><path
             d="m 0,0 12.006,-3.333 c -0.887,-3.191 1.01,-5.392 3.663,-6.128 2.437,-0.677 5.147,0.049 5.825,2.489 0.778,2.803 -2.284,4.529 -6.018,6.675 C 9.815,3.004 2.57,7.146 5.396,17.318 7.84,26.117 15.353,29.46 25.313,26.695 35.441,23.883 39.722,16.772 37.196,7.682 l -11.672,3.24 c 0.786,2.826 -0.837,4.704 -3.25,5.373 -2.074,0.576 -4.329,0.179 -4.908,-1.906 -0.705,-2.538 2.246,-4.261 5.93,-6.423 C 29.042,4.543 36.562,0.089 33.728,-10.113 31.017,-19.872 22.521,-22.969 12.711,-20.245 2.371,-17.375 -2.705,-9.739 0,0"
             style="fill:#ffffff;fill-opacity:1;fill-rule:nonzero;stroke:none"
             id="path122" /></g><g
           id="g124"
           transform="translate(465.3643,605.8807)"><path
             d="m 0,0 c 1.305,3.026 0.304,5.996 -2.616,7.255 l -4.695,2.024 -4.456,-10.333 4.695,-2.023 C -4.152,-4.336 -1.306,-3.025 0,0 m 11.412,-4.889 c -3.85,-8.928 -13.014,-12.693 -21.571,-9.004 l -6.025,2.598 -5.07,-11.759 -11.116,4.792 18.361,42.575 17.14,-7.389 c 8.557,-3.69 12.131,-12.885 8.281,-21.813"
             style="fill:#ffffff;fill-opacity:1;fill-rule:nonzero;stroke:none"
             id="path126" /></g><g
           id="g128"
           transform="translate(493.2197,569.4627)"><path
             d="M 0,0 -5.633,-9.541 -30.242,4.992 -6.669,44.918 17.484,30.654 11.87,21.146 -1.93,29.296 -5.4,23.418 6.998,16.096 1.671,7.074 -10.727,14.396 -14.256,8.419 Z"
             style="fill:#ffffff;fill-opacity:1;fill-rule:nonzero;stroke:none"
             id="path130" /></g><g
           id="g132"
           transform="translate(516.5439,551.7654)"><path
             d="M 0,0 -6.683,-8.836 -29.481,8.398 -1.519,45.377 20.858,28.461 14.199,19.655 1.414,29.319 -2.703,23.876 8.783,15.192 2.464,6.837 -9.021,15.52 -13.208,9.983 Z"
             style="fill:#ffffff;fill-opacity:1;fill-rule:nonzero;stroke:none"
             id="path134" /></g><g
           id="g136"
           transform="translate(537.6631,532.5936)"><path
             d="M 0,0 -8.014,-8.521 -28.295,10.553 3.471,44.326 12.386,35.942 -11.366,10.689 Z"
             style="fill:#ffffff;fill-opacity:1;fill-rule:nonzero;stroke:none"
             id="path138" /></g><g
           id="g140"
           transform="translate(600.2881,510.3055)"><path
             d="m 0,0 -44.748,-18.177 -6.597,8.336 12.33,20.484 -22.668,-7.422 -6.597,8.335 27.841,39.536 8.048,-10.168 -16.543,-22.161 27.257,8.255 2.594,-3.278 -14.194,-24.79 25.296,11.133 z"
             style="fill:#ffffff;fill-opacity:1;fill-rule:nonzero;stroke:none"
             id="path142" /></g><g
           id="g144"
           transform="translate(600.6113,506.6678)"><path
             d="m 0,0 6.229,-10.534 -39.916,-23.595 -6.228,10.534 z"
             style="fill:#ffffff;fill-opacity:1;fill-rule:nonzero;stroke:none"
             id="path146" /></g><g
           id="g148"
           transform="translate(580.7695,481.4431)"><path
             d="m 0,0 1.645,0.793 5.276,-10.961 -1.058,-0.51 c -3.197,-1.539 -4.397,-4.315 -3.097,-7.015 1.236,-2.571 4.121,-3.38 7.352,-1.825 L 36.982,-6.584 42.258,-17.545 14.807,-30.762 C 5.754,-35.12 -3.539,-32.003 -7.944,-22.85 -12.319,-13.762 -9.078,-4.37 0,0"
             style="fill:#ffffff;fill-opacity:1;fill-rule:nonzero;stroke:none"
             id="path150" /></g><g
           id="g152"
           transform="translate(603.0977,416.9646)"><path
             d="m 0,0 -11.239,-3.891 -11.358,32.803 2.511,0.87 35.378,-4.944 -4.967,14.345 11.24,3.89 10.764,-31.086 -2.728,-0.944 -35.134,4.938 z"
             style="fill:#ffffff;fill-opacity:1;fill-rule:nonzero;stroke:none"
             id="path154" /></g><g
           id="g156"
           transform="translate(608.4033,389.1707)"><path
             d="M 0,0 -10.799,-2.476 -17.185,25.386 28.008,35.746 34.274,8.401 23.513,5.934 19.932,21.558 13.278,20.032 16.495,5.996 6.283,3.654 3.066,17.69 -3.699,16.14 Z"
             style="fill:#ffffff;fill-opacity:1;fill-rule:nonzero;stroke:none"
             id="path158" /></g><g
           id="g160"
           transform="translate(544.252,355.7732)"><path
             d="m 0,0 c 0,-104.891 -85.03,-189.921 -189.921,-189.921 -104.891,0 -189.921,85.03 -189.921,189.921 0,104.891 85.03,189.921 189.921,189.921 C -85.03,189.921 0,104.891 0,0"
             style="fill:#662383;fill-opacity:1;fill-rule:nonzero;stroke:none"
             id="path162" /></g><g
           id="g164"
           transform="translate(218.9966,309.4397)"><path
             d="M 0,0 C 13.244,-9.773 69.833,-9.398 80.139,0.257 67.477,9.525 12.757,9.572 0,0 m 191.348,-0.296 c 15.677,-9.379 68.822,-8.977 80.138,0.317 -10.919,9.65 -68.494,9.649 -80.138,-0.317 M 40.965,123.46 c -0.496,-0.024 -0.992,-0.048 -1.488,-0.072 C 27.212,84.766 14.948,46.145 2.487,6.905 28.049,12.441 52.457,12.354 77.493,7.04 65.151,46.375 53.058,84.918 40.965,123.46 M 269.185,7.032 c -12.549,39.457 -24.864,78.181 -37.181,116.906 -0.404,-0.071 -0.808,-0.142 -1.213,-0.212 C 218.664,85.019 206.538,46.312 194.244,7.07 c 27.004,5.201 46.402,5.182 74.941,-0.038 m -125.706,132.63 c 0,-13.527 -0.464,-26.173 0.085,-38.775 1.797,-41.22 4.079,-82.419 5.862,-123.64 0.282,-6.499 1.08,-10.595 8.729,-12.44 11.086,-2.674 20.223,-9.339 27.337,-18.52 4.286,-5.531 4.133,-7.703 -2.703,-9.886 -7.39,-2.359 -15.094,-4.286 -22.793,-5.016 -21.962,-2.084 -43.96,-2.436 -65.595,3.035 -13.054,3.302 -13.838,6.353 -4.519,16.168 8.587,9.042 19.573,13.759 31.667,16.978 2.796,57.199 5.582,114.185 8.429,172.397 -10.945,-0.932 -21.161,-1.948 -31.399,-2.641 -15.571,-1.055 -31.153,-1.967 -46.74,-2.759 -4.178,-0.212 -5.684,-1.314 -4.348,-5.826 C 59.661,87.642 71.435,46.426 83.987,5.449 85.651,0.014 85.482,-4.174 83.5,-8.941 75.772,-27.522 56.931,-38.967 36.283,-37.568 17.265,-36.281 0.061,-22.014 -4.935,-3.282 -5.352,-1.717 -5.673,0.147 -5.23,1.631 7.325,43.656 20.03,85.637 32.495,127.689 c 0.636,2.145 0.001,5.239 -1.163,7.238 -3.478,5.971 -2.648,12.595 2.634,16.264 5.203,3.614 12.456,2.271 15.811,-3.891 2.313,-4.248 5.735,-4.287 9.071,-3.853 12.955,1.688 25.868,3.723 38.764,5.833 10.611,1.735 21.174,3.758 32.374,5.763 0.551,4.624 2.766,9.706 -2.382,14.788 -4.11,4.057 -2.868,10.832 1.413,14.821 3.951,3.682 9.778,3.618 13.734,-0.152 4.182,-3.984 5.3,-10.881 1.227,-14.848 -4.972,-4.842 -3.194,-9.795 -2.403,-14.743 22.178,-3.812 43.98,-7.686 65.836,-11.233 6.155,-0.999 12.05,-1.404 16.166,5.762 2.798,4.873 10.078,4.709 14.752,1.178 4.445,-3.359 5.976,-10.138 2.428,-14.679 -2.647,-3.386 -2.357,-6.196 -1.269,-9.863 11.65,-39.266 22.543,-78.774 35.104,-117.744 3.484,-10.805 0.614,-18.438 -4.909,-26.092 -10.938,-15.16 -26.231,-22.114 -44.726,-19.384 -19.201,2.833 -32.301,14.144 -38.195,32.76 -1.036,3.274 0.58,7.622 1.636,11.282 6.777,23.517 13.742,46.979 20.642,70.46 4.879,16.608 9.771,33.212 14.621,49.83 1.922,6.588 1.1,6.847 -5.541,7.196 -18.128,0.952 -36.222,2.559 -54.33,3.884 -7.09,0.519 -14.185,0.976 -20.311,1.396"
             style="fill:#1d1d1b;fill-opacity:1;fill-rule:nonzero;stroke:none"
             id="path166" /></g><g
           id="g168"
           transform="translate(294.8921,249.9671)"><path
             d="m 0,0 c 3.043,-3.21 5.169,-7.368 8.334,-8.429 9.13,-3.06 18.563,-5.758 28.086,-6.998 21.94,-2.857 43.89,-2.213 65.487,3.187 3.849,0.962 7.823,2.311 11.081,4.473 2.594,1.722 4.183,4.955 6.422,7.773 6.919,-3.831 7.876,-11.184 -0.453,-15.309 -9.481,-4.694 -19.893,-8.331 -30.299,-10.165 -23.953,-4.22 -48.033,-3.497 -71.657,2.887 -5.431,1.467 -10.843,3.762 -15.624,6.713 C -6.829,-10.803 -6.646,-5.086 0,0"
             style="fill:#1d1d1b;fill-opacity:1;fill-rule:nonzero;stroke:none"
             id="path170" /></g><g
           id="g172"
           transform="translate(410.3447,309.1438)"><path
             d="M 0,0 C 11.644,9.966 69.219,9.967 80.138,0.316 68.822,-8.978 15.677,-9.379 0,0"
             style="fill:#ffffff;fill-opacity:1;fill-rule:nonzero;stroke:none"
             id="path174" /></g><g
           id="g176"
           transform="translate(218.9966,309.4397)"><path
             d="M 0,0 C 12.757,9.572 67.477,9.525 80.139,0.257 69.833,-9.398 13.244,-9.773 0,0"
             style="fill:#ffffff;fill-opacity:1;fill-rule:nonzero;stroke:none"
             id="path178" /></g></g></g></g></svg>
