<?xml version="1.0" encoding="UTF-8" standalone="no"?>
<svg
   xmlns:dc="http://purl.org/dc/elements/1.1/"
   xmlns:cc="http://creativecommons.org/ns#"
   xmlns:rdf="http://www.w3.org/1999/02/22-rdf-syntax-ns#"
   xmlns:svg="http://www.w3.org/2000/svg"
   xmlns="http://www.w3.org/2000/svg"
   xmlns:sodipodi="http://sodipodi.sourceforge.net/DTD/sodipodi-0.dtd"
   xmlns:inkscape="http://www.inkscape.org/namespaces/inkscape"
   version="1.1"
   id="svg2"
   xml:space="preserve"
   width="944.88135"
   height="944.88135"
   viewBox="0 0 944.88135 944.88135"
   sodipodi:docname="Counters.ai"><metadata
     id="metadata8"><rdf:RDF><cc:Work
         rdf:about=""><dc:format>image/svg+xml</dc:format><dc:type
           rdf:resource="http://purl.org/dc/dcmitype/StillImage" /></cc:Work></rdf:RDF></metadata><defs
     id="defs6"><clipPath
       clipPathUnits="userSpaceOnUse"
       id="clipPath18"><path
         d="M 0,708.661 H 708.661 V 0 H 0 Z"
         id="path16" /></clipPath></defs><sodipodi:namedview
     pagecolor="#ffffff"
     bordercolor="#666666"
     borderopacity="1"
     objecttolerance="10"
     gridtolerance="10"
     guidetolerance="10"
     inkscape:pageopacity="0"
     inkscape:pageshadow="2"
     inkscape:window-width="640"
     inkscape:window-height="480"
     id="namedview4" /><g
     id="g10"
     inkscape:groupmode="layer"
     inkscape:label="Counters"
     transform="matrix(1.3333333,0,0,-1.3333333,0,944.88133)"><g
       id="g12"><g
         id="g14"
         clip-path="url(#clipPath18)"><g
           id="g20"
           transform="translate(694.4883,354.3308)"><path
             d="m 0,0 c 0,-187.95 -152.294,-340.312 -340.158,-340.312 -187.863,0 -340.157,152.362 -340.157,340.312 0,187.949 152.294,340.312 340.157,340.312 C -152.294,340.312 0,187.949 0,0"
             style="fill:#ffffff;fill-opacity:1;fill-rule:nonzero;stroke:none"
             id="path22" /></g><g
           id="g24"
           transform="translate(354.3306,692.0955)"><path
             d="m 0,0 c -186.512,0 -337.709,-151.223 -337.709,-337.765 0,-186.542 151.197,-337.765 337.709,-337.765 186.512,0 337.709,151.223 337.709,337.765 C 337.709,-151.223 186.512,0 0,0 m 350.404,-337.765 c 0,-193.537 -156.881,-350.431 -350.404,-350.431 -193.522,0 -350.403,156.894 -350.403,350.431 0,193.538 156.881,350.431 350.403,350.431 193.523,0 350.404,-156.893 350.404,-350.431"
             style="fill:#1d1d1b;fill-opacity:1;fill-rule:nonzero;stroke:none"
             id="path26" /></g><g
           id="g28"
           transform="translate(354.3306,556.9857)"><path
             d="m 0,0 c -111.86,0 -202.54,-90.731 -202.54,-202.655 0,-111.923 90.68,-202.655 202.54,-202.655 111.86,0 202.541,90.732 202.541,202.655 C 202.541,-90.731 111.86,0 0,0 m 325.034,-202.655 c 0,-179.546 -145.523,-325.098 -325.034,-325.098 -179.511,0 -325.034,145.552 -325.034,325.098 0,179.547 145.523,325.098 325.034,325.098 179.511,0 325.034,-145.551 325.034,-325.098"
             style="fill:#1d1d1b;fill-opacity:1;fill-rule:nonzero;stroke:none"
             id="path30" /></g><g
           id="g32"
           transform="translate(161.0806,126.5853)"><path
             d="m 0,0 c -12.562,10.556 -12.911,29.187 -0.92,43.452 12.058,14.345 30.472,17.207 43.034,6.652 10.817,-9.089 12.259,-24.379 3.773,-37.881 l -11.521,9.68 C 37.061,27.985 36.164,34.157 31.82,37.807 25.977,42.718 17.126,40.89 10.919,33.505 4.735,26.149 4.523,17.195 10.368,12.284 14.947,8.437 21.445,8.858 27.057,13.188 L 38.686,3.415 C 26.576,-7.807 10.994,-9.237 0.001,0.001 Z"
             style="fill:#ffffff;fill-opacity:1;fill-rule:nonzero;stroke:none"
             id="path34" /></g><g
           id="g36"
           transform="translate(226.7612,101.7923)"><path
             d="m 0,0 c 7.283,-3.778 15.779,-0.294 20.267,8.36 4.488,8.656 2.44,17.609 -4.842,21.387 C 8.141,33.524 -0.457,30.038 -4.922,21.428 -9.387,12.817 -7.283,3.779 0,0.001 Z M -18.647,28.549 C -9.882,45.452 7.395,51.906 22.777,43.927 38.121,35.968 42.782,18.19 33.993,1.241 25.205,-15.707 7.992,-22.136 -7.352,-14.177 c -15.382,7.979 -20.06,25.823 -11.295,42.726"
             style="fill:#ffffff;fill-opacity:1;fill-rule:nonzero;stroke:none"
             id="path38" /></g><g
           id="g40"
           transform="translate(267.7319,93.5901)"><path
             d="m 0,0 9.247,37.063 14.728,-3.675 -9.17,-36.751 c -1.475,-5.908 0.867,-10.548 5.679,-11.748 4.812,-1.201 9.059,1.794 10.533,7.702 l 9.17,36.751 14.727,-3.675 -9.248,-37.062 C 41.956,-26.266 29.952,-33.936 16.618,-30.608 3.283,-27.281 -3.711,-14.871 0,0"
             style="fill:#ffffff;fill-opacity:1;fill-rule:nonzero;stroke:none"
             id="path42" /></g><g
           id="g44"
           transform="translate(375.3193,117.8323)"><path
             d="m 0,0 -1.175,-62.293 -12.28,0.231 -20.774,34.208 -0.638,-33.804 -14.389,0.27 1.174,62.292 12.997,-0.244 20.08,-33.07 0.616,32.681 z"
             style="fill:#ffffff;fill-opacity:1;fill-rule:nonzero;stroke:none"
             id="path46" /></g><g
           id="g48"
           transform="translate(423.5781,111.928)"><path
             d="m 0,0 -14.354,-2.898 9.269,-45.917 -14.62,-2.953 -9.269,45.916 -14.354,-2.898 -3.058,15.147 43.329,8.75 z"
             style="fill:#ffffff;fill-opacity:1;fill-rule:nonzero;stroke:none"
             id="path50" /></g><g
           id="g52"
           transform="translate(472.9854,97.2444)"><path
             d="m 0,0 5.508,-13.83 -32.654,-13.002 -23.049,57.881 32.048,12.761 5.489,-13.785 -18.311,-7.29 3.394,-8.522 16.45,6.551 5.208,-13.08 -16.449,-6.55 3.45,-8.665 z"
             style="fill:#ffffff;fill-opacity:1;fill-rule:nonzero;stroke:none"
             id="path54" /></g><g
           id="g56"
           transform="translate(487.293,126.6067)"><path
             d="m 0,0 5.754,3.593 c 3.521,2.199 4.018,5.916 1.956,9.219 -2.063,3.303 -5.599,4.457 -9.12,2.257 L -7.165,11.476 Z M 12.224,-9.413 7.656,-12.265 17.752,-28.436 5.154,-36.302 -27.84,16.549 -8.021,28.924 c 9.858,6.155 21.784,2.961 28.68,-8.087 C 24.708,14.351 25.285,7.325 22.72,1.38 l 21.078,-13.553 -14.06,-8.779 z"
             style="fill:#ffffff;fill-opacity:1;fill-rule:nonzero;stroke:none"
             id="path58" /></g><g
           id="g60"
           transform="translate(525.8838,135.9944)"><path
             d="m 0,0 11.408,10.227 c 2.97,-3.313 6.628,-2.944 9.15,-0.683 2.316,2.077 3.252,5.483 0.98,8.018 -2.608,2.91 -6.489,0.952 -11.269,-1.403 -7.296,-3.534 -16.544,-8.12 -26.01,2.441 -8.189,9.134 -7.072,19.575 2.392,28.06 9.623,8.627 20.26,7.865 28.72,-1.572 L 4.281,35.146 c -2.63,2.933 -5.756,2.612 -8.048,0.557 -1.969,-1.765 -2.978,-4.448 -1.037,-6.613 2.362,-2.635 6.168,-0.794 10.932,1.496 7.487,3.535 17.257,8.18 26.752,-2.414 C 41.962,18.041 39.939,6.742 30.618,-1.613 20.794,-10.421 9.064,-10.111 0,0"
             style="fill:#ffffff;fill-opacity:1;fill-rule:nonzero;stroke:none"
             id="path62" /></g><g
           id="g64"
           transform="translate(686.499,337.2405)"><path
             d="m 0,0 c 0,0 -19.77,-19.831 -23.023,-23.086 -3.944,-3.942 -7.667,-7.605 -11.45,-11.387 -7.574,-7.575 -15.184,-15.429 -22.712,-22.957 -0.959,-0.959 -2.04,-1.795 -2.999,-2.755 l -11.448,-11.448 c -1.898,-1.898 -4.127,-3.332 -6.795,-4.591 -1.32,-0.624 -2.685,-1.181 -4.163,-1.53 -3.253,-0.77 -6.806,-1.102 -10.347,-1.102 -3.58,0 -6.538,0.994 -9.304,2.082 -1.241,0.487 -2.684,1.127 -3.858,1.896 -1.168,0.77 -2.419,1.481 -3.366,2.327 -1.054,0.941 -2.008,1.824 -2.937,2.755 -0.994,0.993 -1.645,2.025 -2.45,3.245 -1.468,2.222 -2.653,4.759 -3.612,7.836 -0.901,2.89 -1.694,6.341 -1.163,10.039 0.237,1.654 0.669,3.149 1.286,4.47 1.709,3.663 4.441,7.146 9.672,7.407 3.845,0.192 6.019,-1.685 7.714,-3.734 0.957,-1.156 1.535,-2.338 1.836,-3.857 0.318,-1.613 0.175,-3.422 0.246,-5.449 0.124,-3.612 1.501,-6.09 3.917,-7.529 2.331,-1.389 5.842,-1.883 9.183,-0.735 2.668,0.916 4.385,3.345 6.245,5.204 1.892,1.892 4.01,4.009 5.693,5.693 0.967,0.968 1.838,2.003 2.753,3 2.682,2.917 5.782,5.667 8.572,8.509 4.266,4.345 8.567,8.655 12.876,12.957 2.212,2.208 4.427,4.414 6.639,6.622 0.824,0.822 1.592,1.852 2.474,2.595 0.998,0.839 1.999,2.299 1.999,2.299 l 37.726,40.746 z"
             style="fill:#ffffff;fill-opacity:1;fill-rule:evenodd;stroke:none"
             id="path66" /></g><g
           id="g68"
           transform="translate(22.1621,337.2405)"><path
             d="m 0,0 c 0,0 19.77,-19.831 23.024,-23.086 3.943,-3.942 7.666,-7.605 11.449,-11.387 7.574,-7.575 15.185,-15.429 22.712,-22.957 0.959,-0.959 2.04,-1.795 2.999,-2.755 3.748,-3.748 7.607,-7.606 11.448,-11.448 1.898,-1.898 4.127,-3.332 6.795,-4.591 1.321,-0.624 2.686,-1.181 4.163,-1.53 3.253,-0.77 6.806,-1.102 10.347,-1.102 3.58,0 6.538,0.994 9.304,2.082 1.241,0.487 2.684,1.127 3.858,1.896 1.168,0.77 2.419,1.481 3.366,2.327 1.054,0.941 2.008,1.824 2.938,2.755 0.994,0.993 1.644,2.025 2.449,3.245 1.468,2.222 2.653,4.759 3.612,7.836 0.901,2.89 1.695,6.341 1.163,10.039 -0.237,1.654 -0.669,3.149 -1.286,4.47 -1.709,3.663 -4.441,7.146 -9.672,7.407 -3.844,0.192 -6.018,-1.685 -7.713,-3.734 -0.957,-1.156 -1.536,-2.338 -1.837,-3.857 -0.318,-1.613 -0.175,-3.422 -0.245,-5.449 -0.125,-3.612 -1.501,-6.09 -3.918,-7.529 -2.331,-1.389 -5.842,-1.883 -9.183,-0.735 -2.668,0.916 -4.385,3.345 -6.245,5.204 -1.892,1.892 -4.01,4.009 -5.693,5.693 -0.967,0.968 -1.837,2.003 -2.753,3 -2.682,2.917 -5.782,5.667 -8.572,8.509 -4.265,4.345 -8.566,8.655 -12.876,12.957 -2.212,2.208 -4.426,4.414 -6.639,6.622 -0.824,0.822 -1.591,1.852 -2.474,2.595 -0.998,0.839 -1.999,2.299 -1.999,2.299 L 0.796,29.522 Z"
             style="fill:#ffffff;fill-opacity:1;fill-rule:evenodd;stroke:none"
             id="path70" /></g><g
           id="g72"
           transform="translate(90.4126,406.1111)"><path
             d="M 0,0 1.306,5.36 C 2.104,8.642 0.475,11.037 -2.342,11.723 -5.157,12.407 -7.679,11.021 -8.478,7.74 L -9.782,2.38 Z m 11.492,1.712 -1.036,-4.255 13.785,-3.353 -2.857,-11.736 -45.054,10.959 4.496,18.463 c 2.236,9.183 10.383,14.252 19.801,11.961 5.528,-1.345 9.437,-5 11.077,-9.855 L 30.148,18.367 26.96,5.27 Z"
             style="fill:#ffffff;fill-opacity:1;fill-rule:nonzero;stroke:none"
             id="path74" /></g><g
           id="g76"
           transform="translate(76.7339,437.3904)"><path
             d="M 0,0 3.951,11.584 47.829,-3.381 43.879,-14.964 Z"
             style="fill:#ffffff;fill-opacity:1;fill-rule:nonzero;stroke:none"
             id="path78" /></g><g
           id="g80"
           transform="translate(108.7983,438.7439)"><path
             d="m 0,0 -1.673,0.732 4.885,11.143 1.075,-0.472 c 3.25,-1.424 6.14,-0.528 7.343,2.216 1.145,2.612 -0.118,5.329 -3.403,6.77 l -27.311,11.972 4.885,11.142 27.908,-12.234 C 22.912,27.234 26.597,18.15 22.518,8.847 18.468,-0.392 9.229,-4.046 0,0"
             style="fill:#ffffff;fill-opacity:1;fill-rule:nonzero;stroke:none"
             id="path82" /></g><g
           id="g84"
           transform="translate(123.3267,469.8435)"><path
             d="m 0,0 6.323,10.736 c 2.854,-1.68 5.469,-0.417 6.866,1.957 1.285,2.18 1.284,4.985 -0.898,6.27 -2.506,1.475 -4.965,-1.037 -8.004,-4.09 -4.651,-4.615 -10.525,-10.544 -19.62,-5.187 -7.866,4.633 -9.154,12.754 -3.908,21.663 5.334,9.057 13.309,11.355 21.437,6.567 L -3.951,27.479 c -2.527,1.488 -4.76,0.405 -6.03,-1.752 -1.092,-1.855 -1.292,-4.136 0.572,-5.235 2.269,-1.336 4.697,1.07 7.737,4.07 4.792,4.667 11.038,10.781 20.16,5.407 8.725,-5.139 9.52,-14.147 4.353,-22.92 C 17.396,-2.197 8.708,-5.129 0,0"
             style="fill:#ffffff;fill-opacity:1;fill-rule:nonzero;stroke:none"
             id="path86" /></g><g
           id="g88"
           transform="translate(155.2534,567.2088)"><path
             d="m 0,0 26.868,-40.122 -6.825,-8.152 -22.558,7.915 11.863,-20.688 -6.826,-8.151 -44.358,19.233 8.326,9.944 25.053,-11.698 -13.606,25.012 2.682,3.204 27.153,-8.866 -16.029,22.509 z"
             style="fill:#ffffff;fill-opacity:1;fill-rule:nonzero;stroke:none"
             id="path90" /></g><g
           id="g92"
           transform="translate(158.8276,568.3162)"><path
             d="m 0,0 9.079,8.209 31.093,-34.394 -9.079,-8.208 z"
             style="fill:#ffffff;fill-opacity:1;fill-rule:nonzero;stroke:none"
             id="path94" /></g><g
           id="g96"
           transform="translate(187.5259,553.9793)"><path
             d="M 0,0 -1.098,1.459 8.624,8.771 9.329,7.834 c 2.134,-2.837 5.09,-3.473 7.485,-1.671 2.28,1.714 2.512,4.701 0.356,7.567 L -0.751,37.559 8.972,44.871 27.284,20.521 C 33.323,12.492 32.077,2.77 23.959,-3.337 15.897,-9.399 6.056,-8.052 0,0"
             style="fill:#ffffff;fill-opacity:1;fill-rule:nonzero;stroke:none"
             id="path98" /></g><g
           id="g100"
           transform="translate(246.1177,574.116)"><path
             d="m 0,0 -20.974,11.733 10.004,-17.875 -10.537,-5.9 -22.644,40.461 10.538,5.899 9.545,-17.054 0.565,22.715 12.22,6.842 -1.28,-26.456 25.066,-13.364 z"
             style="fill:#ffffff;fill-opacity:1;fill-rule:nonzero;stroke:none"
             id="path102" /></g><g
           id="g104"
           transform="translate(246.0923,591.3807)"><path
             d="m 0,0 11.58,4.596 c 1.223,-3.078 4.064,-3.686 6.623,-2.67 2.352,0.933 4.071,3.147 3.137,5.502 -1.073,2.704 -4.557,2.228 -8.83,1.683 C 6.005,8.322 -2.271,7.247 -6.167,17.06 c -3.369,8.487 0.596,15.688 10.204,19.502 9.77,3.876 17.478,0.795 20.959,-7.973 L 13.738,24.121 c -1.082,2.726 -3.51,3.241 -5.838,2.318 -2,-0.793 -3.557,-2.472 -2.758,-4.484 0.971,-2.448 4.365,-2.038 8.606,-1.536 6.648,0.744 15.331,1.736 19.239,-8.106 C 36.724,2.901 31.825,-4.699 22.362,-8.454 12.389,-12.412 3.729,-9.394 0,0"
             style="fill:#ffffff;fill-opacity:1;fill-rule:nonzero;stroke:none"
             id="path106" /></g><g
           id="g108"
           transform="translate(303.5132,593.6981)"><path
             d="m 0,0 c -13.01,-2.955 -25.042,5.026 -28.116,18.551 -3.091,13.599 4.311,25.994 17.321,28.949 11.203,2.545 21.657,-3.306 26,-14.375 L 3.273,30.414 c -2.521,4.304 -6.898,6.476 -11.397,5.454 -6.053,-1.375 -9.322,-7.531 -7.731,-14.532 1.584,-6.974 7.177,-11.039 13.23,-9.664 4.743,1.077 7.729,5.193 7.784,10.489 l 12.045,2.736 C 18.28,12.64 11.386,2.587 0,0.001 Z"
             style="fill:#ffffff;fill-opacity:1;fill-rule:nonzero;stroke:none"
             id="path110" /></g><g
           id="g112"
           transform="translate(357.7012,647.4774)"><path
             d="m 0,0 2.563,-46.292 -12.165,-0.674 -0.984,17.771 -13.135,-0.728 0.983,-17.77 -12.165,-0.674 -2.563,46.292 12.165,0.674 0.925,-16.702 13.135,0.728 -0.925,16.701 z"
             style="fill:#ffffff;fill-opacity:1;fill-rule:nonzero;stroke:none"
             id="path114" /></g><g
           id="g116"
           transform="translate(390.3428,609.4549)"><path
             d="M 0,0 -0.929,-11.042 -29.41,-8.646 -25.522,37.561 2.432,35.209 1.506,24.205 -14.466,25.549 -15.038,18.746 -0.689,17.539 -1.568,7.098 -15.917,8.305 -16.499,1.387 Z"
             style="fill:#ffffff;fill-opacity:1;fill-rule:nonzero;stroke:none"
             id="path118" /></g><g
           id="g120"
           transform="translate(404.4561,611.1063)"><path
             d="m 0,0 12.006,-3.333 c -0.887,-3.191 1.011,-5.392 3.664,-6.128 2.437,-0.677 5.146,0.049 5.824,2.489 0.779,2.803 -2.284,4.529 -6.018,6.675 C 9.815,3.004 2.57,7.146 5.396,17.318 7.841,26.117 15.353,29.46 25.313,26.695 35.441,23.883 39.722,16.772 37.196,7.682 l -11.671,3.24 c 0.786,2.826 -0.838,4.704 -3.251,5.373 -2.073,0.576 -4.329,0.179 -4.908,-1.906 -0.705,-2.538 2.246,-4.261 5.93,-6.423 C 29.043,4.543 36.563,0.089 33.729,-10.113 31.018,-19.872 22.521,-22.969 12.711,-20.245 2.371,-17.375 -2.705,-9.739 0,0"
             style="fill:#ffffff;fill-opacity:1;fill-rule:nonzero;stroke:none"
             id="path122" /></g><g
           id="g124"
           transform="translate(465.3643,605.8807)"><path
             d="M 0,0 C 1.306,3.026 0.304,5.996 -2.615,7.255 L -7.31,9.279 -11.766,-1.054 -7.071,-3.077 C -4.152,-4.336 -1.305,-3.025 0,0 m 11.412,-4.889 c -3.85,-8.928 -13.014,-12.693 -21.57,-9.004 l -6.025,2.598 -5.071,-11.759 -11.115,4.792 18.36,42.575 17.141,-7.389 c 8.556,-3.69 12.131,-12.885 8.28,-21.813"
             style="fill:#ffffff;fill-opacity:1;fill-rule:nonzero;stroke:none"
             id="path126" /></g><g
           id="g128"
           transform="translate(493.2207,569.4627)"><path
             d="M 0,0 -5.633,-9.541 -30.243,4.992 -6.67,44.918 17.483,30.654 11.87,21.146 -1.93,29.296 -5.4,23.418 6.997,16.096 1.671,7.074 -10.728,14.396 -14.256,8.419 Z"
             style="fill:#ffffff;fill-opacity:1;fill-rule:nonzero;stroke:none"
             id="path130" /></g><g
           id="g132"
           transform="translate(516.5439,551.7654)"><path
             d="M 0,0 -6.682,-8.836 -29.481,8.398 -1.518,45.377 20.858,28.461 14.199,19.655 1.415,29.319 -2.702,23.876 8.783,15.192 2.465,6.837 -9.021,15.52 -13.207,9.983 Z"
             style="fill:#ffffff;fill-opacity:1;fill-rule:nonzero;stroke:none"
             id="path134" /></g><g
           id="g136"
           transform="translate(537.6641,532.5936)"><path
             d="M 0,0 -8.015,-8.521 -28.295,10.553 3.471,44.326 12.386,35.942 -11.366,10.689 Z"
             style="fill:#ffffff;fill-opacity:1;fill-rule:nonzero;stroke:none"
             id="path138" /></g><g
           id="g140"
           transform="translate(600.2881,510.3055)"><path
             d="m 0,0 -44.747,-18.177 -6.598,8.336 12.33,20.484 -22.668,-7.422 -6.596,8.335 27.841,39.536 8.048,-10.168 -16.543,-22.161 27.257,8.255 2.594,-3.278 -14.195,-24.79 25.297,11.133 z"
             style="fill:#ffffff;fill-opacity:1;fill-rule:nonzero;stroke:none"
             id="path142" /></g><g
           id="g144"
           transform="translate(600.6123,506.6678)"><path
             d="m 0,0 6.229,-10.534 -39.917,-23.595 -6.228,10.534 z"
             style="fill:#ffffff;fill-opacity:1;fill-rule:nonzero;stroke:none"
             id="path146" /></g><g
           id="g148"
           transform="translate(580.7695,481.4431)"><path
             d="m 0,0 1.646,0.793 5.276,-10.961 -1.058,-0.51 c -3.198,-1.539 -4.398,-4.315 -3.098,-7.015 1.237,-2.571 4.121,-3.38 7.353,-1.825 L 36.982,-6.584 42.259,-17.545 14.807,-30.762 C 5.754,-35.12 -3.538,-32.003 -7.944,-22.85 -12.318,-13.762 -9.078,-4.37 0,0"
             style="fill:#ffffff;fill-opacity:1;fill-rule:nonzero;stroke:none"
             id="path150" /></g><g
           id="g152"
           transform="translate(603.0986,416.9646)"><path
             d="m 0,0 -11.24,-3.891 -11.357,32.803 2.511,0.87 35.377,-4.944 -4.966,14.345 11.24,3.89 10.763,-31.086 -2.727,-0.944 -35.134,4.938 z"
             style="fill:#ffffff;fill-opacity:1;fill-rule:nonzero;stroke:none"
             id="path154" /></g><g
           id="g156"
           transform="translate(608.4043,389.1707)"><path
             d="M 0,0 -10.799,-2.476 -17.185,25.386 28.007,35.746 34.274,8.401 23.513,5.934 19.932,21.558 13.278,20.032 16.495,5.996 6.283,3.654 3.065,17.69 -3.699,16.14 Z"
             style="fill:#ffffff;fill-opacity:1;fill-rule:nonzero;stroke:none"
             id="path158" /></g><g
           id="g160"
           transform="translate(544.252,355.7732)"><path
             d="m 0,0 c 0,-104.891 -85.03,-189.921 -189.921,-189.921 -104.891,0 -189.921,85.03 -189.921,189.921 0,104.891 85.03,189.921 189.921,189.921 C -85.03,189.921 0,104.891 0,0"
             style="fill:#72111d;fill-opacity:1;fill-rule:nonzero;stroke:none"
             id="path162" /></g><g
           id="g164"
           transform="translate(392.5479,541.4818)"><path
             d="m 0,0 -0.886,-1.387 2.518,1.585 c 0,0 -3.163,-5.411 -3.744,-7.115 -1.946,-5.704 -3.89,-11.407 -5.835,-17.111 -4.959,-14.543 -9.919,-29.087 -14.878,-43.63 -2.473,-7.25 -4.945,-14.499 -7.417,-21.749 l 79.122,21.755 -114.455,-260.228 40.226,191.7 -78.831,-23.786 34.142,161.737 11.642,2.437 14.528,0.862 37.931,-1.65 z"
             style="fill:#ffffff;fill-opacity:1;fill-rule:nonzero;stroke:none"
             id="path166" /></g><g
           id="g168"
           transform="translate(326.9727,213.6019)"><path
             d="M 0,0 114.455,260.228"
             style="fill:none;stroke:#1d1d1b;stroke-width:7;stroke-linecap:butt;stroke-linejoin:miter;stroke-miterlimit:10;stroke-dasharray:none;stroke-opacity:1"
             id="path170" /></g><g
           id="g172"
           transform="translate(362.3057,452.075)"><path
             d="M 0,0 30.242,89.407"
             style="fill:none;stroke:#1d1d1b;stroke-width:7;stroke-linecap:butt;stroke-linejoin:miter;stroke-miterlimit:10;stroke-dasharray:none;stroke-opacity:1"
             id="path174" /></g></g></g></g></svg>
