<?xml version="1.0" encoding="UTF-8" standalone="no"?>
<svg
   xmlns:dc="http://purl.org/dc/elements/1.1/"
   xmlns:cc="http://creativecommons.org/ns#"
   xmlns:rdf="http://www.w3.org/1999/02/22-rdf-syntax-ns#"
   xmlns:svg="http://www.w3.org/2000/svg"
   xmlns="http://www.w3.org/2000/svg"
   xmlns:sodipodi="http://sodipodi.sourceforge.net/DTD/sodipodi-0.dtd"
   xmlns:inkscape="http://www.inkscape.org/namespaces/inkscape"
   version="1.1"
   id="svg2"
   xml:space="preserve"
   width="944.88135"
   height="944.88135"
   viewBox="0 0 944.88135 944.88135"
   sodipodi:docname="Doelgericht.ai"><metadata
     id="metadata8"><rdf:RDF><cc:Work
         rdf:about=""><dc:format>image/svg+xml</dc:format><dc:type
           rdf:resource="http://purl.org/dc/dcmitype/StillImage" /></cc:Work></rdf:RDF></metadata><defs
     id="defs6"><clipPath
       clipPathUnits="userSpaceOnUse"
       id="clipPath18"><path
         d="M 0,708.661 H 708.661 V 0 H 0 Z"
         id="path16" /></clipPath></defs><sodipodi:namedview
     pagecolor="#ffffff"
     bordercolor="#666666"
     borderopacity="1"
     objecttolerance="10"
     gridtolerance="10"
     guidetolerance="10"
     inkscape:pageopacity="0"
     inkscape:pageshadow="2"
     inkscape:window-width="640"
     inkscape:window-height="480"
     id="namedview4" /><g
     id="g10"
     inkscape:groupmode="layer"
     inkscape:label="Doelgericht"
     transform="matrix(1.3333333,0,0,-1.3333333,0,944.88133)"><g
       id="g12"><g
         id="g14"
         clip-path="url(#clipPath18)"><g
           id="g20"
           transform="translate(694.4883,354.3308)"><path
             d="m 0,0 c 0,-187.95 -152.294,-340.312 -340.158,-340.312 -187.863,0 -340.157,152.362 -340.157,340.312 0,187.949 152.294,340.312 340.157,340.312 C -152.294,340.312 0,187.949 0,0"
             style="fill:#ffffff;fill-opacity:1;fill-rule:nonzero;stroke:none"
             id="path22" /></g><g
           id="g24"
           transform="translate(354.3306,692.0955)"><path
             d="m 0,0 c -186.512,0 -337.709,-151.223 -337.709,-337.765 0,-186.542 151.197,-337.765 337.709,-337.765 186.512,0 337.709,151.223 337.709,337.765 C 337.709,-151.223 186.512,0 0,0 m 350.404,-337.765 c 0,-193.537 -156.881,-350.431 -350.404,-350.431 -193.522,0 -350.403,156.894 -350.403,350.431 0,193.538 156.881,350.431 350.403,350.431 193.523,0 350.404,-156.893 350.404,-350.431"
             style="fill:#1d1d1b;fill-opacity:1;fill-rule:nonzero;stroke:none"
             id="path26" /></g><g
           id="g28"
           transform="translate(354.3306,556.9857)"><path
             d="m 0,0 c -111.86,0 -202.54,-90.731 -202.54,-202.655 0,-111.923 90.68,-202.655 202.54,-202.655 111.86,0 202.541,90.732 202.541,202.655 C 202.541,-90.731 111.86,0 0,0 m 325.034,-202.655 c 0,-179.546 -145.523,-325.098 -325.034,-325.098 -179.511,0 -325.034,145.552 -325.034,325.098 0,179.547 145.523,325.098 325.034,325.098 179.511,0 325.034,-145.551 325.034,-325.098"
             style="fill:#1d1d1b;fill-opacity:1;fill-rule:nonzero;stroke:none"
             id="path30" /></g><g
           id="g32"
           transform="translate(144.7993,188.3577)"><path
             d="M 0,0 C 7.204,5.79 8.654,13.783 3.653,20.006 L -0.232,24.839 -24.288,5.504 -20.403,0.67 C -15.401,-5.553 -7.164,-5.758 0,0 m 9.539,-11.867 c -14.17,-11.39 -31.556,-10.543 -41.753,2.144 L -45.883,7.284 2.673,46.313 16.342,29.307 C 26.568,16.584 23.728,-0.463 9.539,-11.867"
             style="fill:#ffffff;fill-opacity:1;fill-rule:nonzero;stroke:none"
             id="path34" /></g><g
           id="g36"
           transform="translate(170.4858,139.5433)"><path
             d="M 0,0 C 6.277,-5.285 15.332,-3.752 21.611,3.705 27.892,11.164 27.86,20.348 21.583,25.633 15.306,30.919 6.15,29.404 -0.097,21.985 -6.344,14.566 -6.277,5.286 0,0.001 Z M -10.287,-12.217 C -23.544,-1.055 -24.19,17.381 -11.925,31.946 0.339,46.512 18.614,49.016 31.872,37.853 45.095,26.719 45.74,8.352 33.442,-6.254 21.145,-20.858 2.937,-23.351 -10.286,-12.217 Z"
             style="fill:#ffffff;fill-opacity:1;fill-rule:nonzero;stroke:none"
             id="path38" /></g><g
           id="g40"
           transform="translate(234.8452,97.6575)"><path
             d="M 0,0 -7.271,-12.989 -37.939,4.184 -7.509,58.54 22.59,41.687 15.344,28.741 -1.854,38.37 -6.333,30.368 9.116,21.717 2.24,9.435 l -15.45,8.65 -4.556,-8.137 z"
             style="fill:#ffffff;fill-opacity:1;fill-rule:nonzero;stroke:none"
             id="path42" /></g><g
           id="g44"
           transform="translate(278.6992,81.7366)"><path
             d="M 0,0 -5.384,-14.767 -37.548,-3.039 -16.207,55.494 -2.069,50.339 -18.025,6.572 Z"
             style="fill:#ffffff;fill-opacity:1;fill-rule:nonzero;stroke:none"
             id="path46" /></g><g
           id="g48"
           transform="translate(344.4448,87.8362)"><path
             d="m 0,0 c -3.062,-20.152 -16.623,-32.74 -33.314,-30.205 -16.331,2.48 -26.333,17.875 -23.487,36.613 2.847,18.738 16.767,30.602 33.186,28.108 C -9.645,32.394 0.249,20.556 0.329,5.901 l -15.388,2.337 c -1.14,5.482 -5.403,9.541 -10.838,10.367 -7.984,1.213 -14.378,-4.64 -15.874,-14.481 -1.479,-9.739 2.801,-17.215 10.872,-18.44 5.604,-0.852 10.885,1.552 13.282,6.046 l -13.237,2.012 1.625,10.696 z"
             style="fill:#ffffff;fill-opacity:1;fill-rule:nonzero;stroke:none"
             id="path50" /></g><g
           id="g52"
           transform="translate(389.5244,72.4905)"><path
             d="m 0,0 0.908,-14.859 -35.083,-2.145 -3.802,62.186 34.433,2.105 0.905,-14.809 -19.673,-1.203 0.56,-9.156 17.674,1.08 0.859,-14.052 -17.674,-1.081 0.57,-9.308 z"
             style="fill:#ffffff;fill-opacity:1;fill-rule:nonzero;stroke:none"
             id="path54" /></g><g
           id="g56"
           transform="translate(412.3398,96.1233)"><path
             d="m 0,0 6.566,1.704 c 4.019,1.043 5.606,4.441 4.628,8.21 -0.978,3.77 -4.007,5.928 -8.025,4.885 l -6.566,-1.704 z m 8.844,-12.643 -5.212,-1.353 4.787,-18.451 -14.374,-3.732 -15.649,60.306 22.616,5.871 c 11.249,2.919 21.669,-3.7 24.94,-16.307 1.92,-7.4 0.366,-14.276 -3.863,-19.181 l 16.052,-19.242 -16.044,-4.164 z"
             style="fill:#ffffff;fill-opacity:1;fill-rule:nonzero;stroke:none"
             id="path58" /></g><g
           id="g60"
           transform="translate(437.2139,133.9144)"><path
             d="m 0,0 13.826,5.943 24.61,-57.24 -13.827,-5.943 z"
             style="fill:#ffffff;fill-opacity:1;fill-rule:nonzero;stroke:none"
             id="path62" /></g><g
           id="g64"
           transform="translate(513.7129,101.7425)"><path
             d="m 0,0 c -13.853,-8.795 -31.722,-3.512 -41.709,12.221 -10.043,15.82 -7.222,34.238 6.632,43.033 11.927,7.571 26.941,4.338 37.257,-7.823 l -12.703,-8.066 c -4.988,4.403 -11.143,5.408 -15.933,2.367 -6.444,-4.09 -7.369,-13.08 -2.199,-21.223 5.149,-8.113 13.623,-11.013 20.068,-6.922 5.05,3.206 6.606,9.528 4.17,16.183 L 8.407,37.91 C 15.456,22.982 12.122,7.695 0,0"
             style="fill:#ffffff;fill-opacity:1;fill-rule:nonzero;stroke:none"
             id="path66" /></g><g
           id="g68"
           transform="translate(537.5684,204.4065)"><path
             d="M 0,0 43.152,-44.936 32.343,-55.314 15.778,-38.064 4.107,-49.27 20.673,-66.52 9.864,-76.898 l -43.152,44.935 10.809,10.379 15.569,-16.213 11.67,11.206 -15.569,16.212 z"
             style="fill:#ffffff;fill-opacity:1;fill-rule:nonzero;stroke:none"
             id="path70" /></g><g
           id="g72"
           transform="translate(578.292,232.719)"><path
             d="m 0,0 -8.797,-11.708 37.451,-28.144 -8.961,-11.924 -37.451,28.143 -8.798,-11.709 -12.354,9.284 26.556,35.341 z"
             style="fill:#ffffff;fill-opacity:1;fill-rule:nonzero;stroke:none"
             id="path74" /></g><g
           id="g76"
           transform="translate(686.499,337.2405)"><path
             d="m 0,0 c 0,0 -19.77,-19.831 -23.023,-23.086 -3.944,-3.942 -7.667,-7.605 -11.45,-11.387 -7.574,-7.575 -15.184,-15.429 -22.712,-22.957 -0.959,-0.959 -2.04,-1.795 -2.999,-2.755 l -11.448,-11.448 c -1.898,-1.898 -4.127,-3.332 -6.795,-4.591 -1.32,-0.624 -2.685,-1.181 -4.163,-1.53 -3.253,-0.77 -6.806,-1.102 -10.347,-1.102 -3.58,0 -6.538,0.994 -9.304,2.082 -1.241,0.487 -2.684,1.127 -3.858,1.896 -1.168,0.77 -2.419,1.481 -3.366,2.327 -1.054,0.941 -2.008,1.824 -2.937,2.755 -0.994,0.993 -1.645,2.025 -2.45,3.245 -1.468,2.222 -2.653,4.759 -3.612,7.836 -0.901,2.89 -1.694,6.341 -1.163,10.039 0.237,1.654 0.669,3.149 1.286,4.47 1.709,3.663 4.441,7.146 9.672,7.407 3.845,0.192 6.019,-1.685 7.714,-3.734 0.957,-1.156 1.535,-2.338 1.836,-3.857 0.318,-1.613 0.175,-3.422 0.246,-5.449 0.124,-3.612 1.501,-6.09 3.917,-7.529 2.331,-1.389 5.842,-1.883 9.183,-0.735 2.668,0.916 4.385,3.345 6.245,5.204 1.892,1.892 4.01,4.009 5.693,5.693 0.967,0.968 1.838,2.003 2.753,3 2.682,2.917 5.782,5.667 8.572,8.509 4.266,4.345 8.567,8.655 12.876,12.957 2.212,2.208 4.427,4.414 6.639,6.622 0.824,0.822 1.592,1.852 2.474,2.595 0.998,0.839 1.999,2.299 1.999,2.299 l 37.726,40.746 z"
             style="fill:#ffffff;fill-opacity:1;fill-rule:evenodd;stroke:none"
             id="path78" /></g><g
           id="g80"
           transform="translate(22.1621,337.2405)"><path
             d="m 0,0 c 0,0 19.77,-19.831 23.024,-23.086 3.943,-3.942 7.666,-7.605 11.449,-11.387 7.574,-7.575 15.185,-15.429 22.712,-22.957 0.959,-0.959 2.04,-1.795 2.999,-2.755 3.748,-3.748 7.607,-7.606 11.448,-11.448 1.898,-1.898 4.127,-3.332 6.795,-4.591 1.321,-0.624 2.686,-1.181 4.163,-1.53 3.253,-0.77 6.806,-1.102 10.347,-1.102 3.58,0 6.538,0.994 9.304,2.082 1.241,0.487 2.684,1.127 3.858,1.896 1.168,0.77 2.419,1.481 3.366,2.327 1.054,0.941 2.008,1.824 2.938,2.755 0.994,0.993 1.644,2.025 2.449,3.245 1.468,2.222 2.653,4.759 3.612,7.836 0.901,2.89 1.695,6.341 1.163,10.039 -0.237,1.654 -0.669,3.149 -1.286,4.47 -1.709,3.663 -4.441,7.146 -9.672,7.407 -3.844,0.192 -6.018,-1.685 -7.713,-3.734 -0.957,-1.156 -1.536,-2.338 -1.837,-3.857 -0.318,-1.613 -0.175,-3.422 -0.245,-5.449 -0.125,-3.612 -1.501,-6.09 -3.918,-7.529 -2.331,-1.389 -5.842,-1.883 -9.183,-0.735 -2.668,0.916 -4.385,3.345 -6.245,5.204 -1.892,1.892 -4.01,4.009 -5.693,5.693 -0.967,0.968 -1.837,2.003 -2.753,3 -2.682,2.917 -5.782,5.667 -8.572,8.509 -4.265,4.345 -8.566,8.655 -12.876,12.957 -2.212,2.208 -4.426,4.414 -6.639,6.622 -0.824,0.822 -1.591,1.852 -2.474,2.595 -0.998,0.839 -1.999,2.299 -1.999,2.299 L 0.796,29.522 Z"
             style="fill:#ffffff;fill-opacity:1;fill-rule:evenodd;stroke:none"
             id="path82" /></g><g
           id="g84"
           transform="translate(90.4131,406.1111)"><path
             d="m 0,0 1.305,5.36 c 0.799,3.282 -0.83,5.677 -3.647,6.363 -2.816,0.684 -5.337,-0.702 -6.136,-3.983 L -9.783,2.38 Z m 11.492,1.712 -1.036,-4.255 13.785,-3.353 -2.858,-11.736 -45.053,10.959 4.496,18.463 c 2.236,9.183 10.382,14.252 19.8,11.961 5.529,-1.345 9.438,-5 11.078,-9.855 L 30.148,18.367 26.959,5.27 Z"
             style="fill:#ffffff;fill-opacity:1;fill-rule:nonzero;stroke:none"
             id="path86" /></g><g
           id="g88"
           transform="translate(76.7344,437.3904)"><path
             d="M 0,0 3.951,11.584 47.829,-3.381 43.878,-14.964 Z"
             style="fill:#ffffff;fill-opacity:1;fill-rule:nonzero;stroke:none"
             id="path90" /></g><g
           id="g92"
           transform="translate(108.7983,438.7439)"><path
             d="m 0,0 -1.673,0.732 4.885,11.143 1.075,-0.472 c 3.251,-1.424 6.14,-0.528 7.343,2.216 1.145,2.612 -0.118,5.329 -3.403,6.77 l -27.31,11.972 4.884,11.142 27.908,-12.234 C 22.912,27.234 26.597,18.15 22.518,8.847 18.468,-0.392 9.229,-4.046 0,0"
             style="fill:#ffffff;fill-opacity:1;fill-rule:nonzero;stroke:none"
             id="path94" /></g><g
           id="g96"
           transform="translate(123.3271,469.8435)"><path
             d="m 0,0 6.323,10.736 c 2.853,-1.68 5.469,-0.417 6.866,1.957 1.284,2.18 1.284,4.985 -0.898,6.27 -2.506,1.475 -4.965,-1.037 -8.004,-4.09 -4.651,-4.615 -10.526,-10.544 -19.62,-5.187 -7.867,4.633 -9.154,12.754 -3.908,21.663 5.334,9.057 13.309,11.355 21.437,6.567 L -3.951,27.479 c -2.527,1.488 -4.76,0.405 -6.03,-1.752 -1.093,-1.855 -1.292,-4.136 0.572,-5.235 2.269,-1.336 4.697,1.07 7.737,4.07 4.792,4.667 11.038,10.781 20.16,5.407 C 27.212,24.83 28.007,15.822 22.841,7.049 17.396,-2.197 8.708,-5.129 0,0"
             style="fill:#ffffff;fill-opacity:1;fill-rule:nonzero;stroke:none"
             id="path98" /></g><g
           id="g100"
           transform="translate(155.2534,567.2088)"><path
             d="m 0,0 26.868,-40.122 -6.825,-8.152 -22.557,7.915 11.862,-20.688 -6.826,-8.151 -44.358,19.233 8.326,9.944 25.053,-11.698 -13.606,25.012 2.683,3.204 27.152,-8.866 -16.029,22.509 z"
             style="fill:#ffffff;fill-opacity:1;fill-rule:nonzero;stroke:none"
             id="path102" /></g><g
           id="g104"
           transform="translate(158.8276,568.3162)"><path
             d="m 0,0 9.079,8.209 31.093,-34.394 -9.079,-8.208 z"
             style="fill:#ffffff;fill-opacity:1;fill-rule:nonzero;stroke:none"
             id="path106" /></g><g
           id="g108"
           transform="translate(187.5259,553.9793)"><path
             d="M 0,0 -1.098,1.459 8.624,8.771 9.33,7.834 c 2.133,-2.837 5.089,-3.473 7.484,-1.671 2.28,1.714 2.512,4.701 0.356,7.567 L -0.75,37.559 8.972,44.871 27.284,20.521 C 33.324,12.492 32.077,2.77 23.959,-3.337 15.898,-9.399 6.056,-8.052 0,0"
             style="fill:#ffffff;fill-opacity:1;fill-rule:nonzero;stroke:none"
             id="path110" /></g><g
           id="g112"
           transform="translate(246.1182,574.116)"><path
             d="m 0,0 -20.974,11.733 10.004,-17.875 -10.537,-5.9 -22.644,40.461 10.537,5.899 9.545,-17.054 0.566,22.715 12.219,6.842 -1.28,-26.456 25.067,-13.364 z"
             style="fill:#ffffff;fill-opacity:1;fill-rule:nonzero;stroke:none"
             id="path114" /></g><g
           id="g116"
           transform="translate(246.0923,591.3807)"><path
             d="m 0,0 11.581,4.596 c 1.222,-3.078 4.063,-3.686 6.622,-2.67 2.352,0.933 4.072,3.147 3.137,5.502 -1.073,2.704 -4.556,2.228 -8.83,1.683 C 6.005,8.322 -2.271,7.247 -6.167,17.06 c -3.369,8.487 0.596,15.688 10.205,19.502 9.769,3.876 17.477,0.795 20.959,-7.973 L 13.738,24.121 c -1.082,2.726 -3.51,3.241 -5.837,2.318 -2,-0.793 -3.558,-2.472 -2.759,-4.484 0.972,-2.448 4.365,-2.038 8.607,-1.536 6.647,0.744 15.331,1.736 19.238,-8.106 C 36.724,2.901 31.825,-4.699 22.363,-8.454 12.389,-12.412 3.729,-9.394 0,0"
             style="fill:#ffffff;fill-opacity:1;fill-rule:nonzero;stroke:none"
             id="path118" /></g><g
           id="g120"
           transform="translate(303.5137,593.6981)"><path
             d="m 0,0 c -13.01,-2.955 -25.042,5.026 -28.116,18.551 -3.091,13.599 4.311,25.994 17.321,28.949 11.203,2.545 21.657,-3.306 26,-14.375 L 3.273,30.414 c -2.521,4.304 -6.898,6.476 -11.397,5.454 -6.053,-1.375 -9.323,-7.531 -7.731,-14.532 1.584,-6.974 7.177,-11.039 13.23,-9.664 4.743,1.077 7.729,5.193 7.784,10.489 l 12.045,2.736 C 18.28,12.64 11.386,2.587 0,0.001 Z"
             style="fill:#ffffff;fill-opacity:1;fill-rule:nonzero;stroke:none"
             id="path122" /></g><g
           id="g124"
           transform="translate(357.7012,647.4774)"><path
             d="m 0,0 2.563,-46.292 -12.165,-0.674 -0.984,17.771 -13.135,-0.728 0.984,-17.77 -12.165,-0.674 -2.564,46.292 12.165,0.674 0.925,-16.702 13.135,0.728 -0.925,16.701 z"
             style="fill:#ffffff;fill-opacity:1;fill-rule:nonzero;stroke:none"
             id="path126" /></g><g
           id="g128"
           transform="translate(390.3428,609.4549)"><path
             d="M 0,0 -0.929,-11.042 -29.41,-8.646 -25.522,37.561 2.431,35.209 1.505,24.205 -14.466,25.549 -15.038,18.746 -0.69,17.539 -1.568,7.098 -15.917,8.305 -16.499,1.387 Z"
             style="fill:#ffffff;fill-opacity:1;fill-rule:nonzero;stroke:none"
             id="path130" /></g><g
           id="g132"
           transform="translate(404.4561,611.1063)"><path
             d="m 0,0 12.006,-3.333 c -0.887,-3.191 1.01,-5.392 3.663,-6.128 2.437,-0.677 5.147,0.049 5.825,2.489 0.778,2.803 -2.284,4.529 -6.018,6.675 C 9.815,3.004 2.57,7.146 5.396,17.318 7.84,26.117 15.353,29.46 25.313,26.695 35.441,23.883 39.722,16.772 37.196,7.682 l -11.672,3.24 c 0.786,2.826 -0.837,4.704 -3.25,5.373 -2.074,0.576 -4.329,0.179 -4.908,-1.906 -0.705,-2.538 2.246,-4.261 5.93,-6.423 C 29.042,4.543 36.562,0.089 33.728,-10.113 31.017,-19.872 22.521,-22.969 12.711,-20.245 2.371,-17.375 -2.705,-9.739 0,0"
             style="fill:#ffffff;fill-opacity:1;fill-rule:nonzero;stroke:none"
             id="path134" /></g><g
           id="g136"
           transform="translate(465.3643,605.8807)"><path
             d="m 0,0 c 1.305,3.026 0.304,5.996 -2.616,7.255 l -4.695,2.024 -4.456,-10.333 4.695,-2.023 C -4.152,-4.336 -1.306,-3.025 0,0 m 11.412,-4.889 c -3.85,-8.928 -13.014,-12.693 -21.571,-9.004 l -6.025,2.598 -5.07,-11.759 -11.116,4.792 18.361,42.575 17.14,-7.389 c 8.557,-3.69 12.131,-12.885 8.281,-21.813"
             style="fill:#ffffff;fill-opacity:1;fill-rule:nonzero;stroke:none"
             id="path138" /></g><g
           id="g140"
           transform="translate(493.2197,569.4627)"><path
             d="M 0,0 -5.633,-9.541 -30.242,4.992 -6.669,44.918 17.484,30.654 11.87,21.146 -1.93,29.296 -5.4,23.418 6.998,16.096 1.671,7.074 -10.727,14.396 -14.256,8.419 Z"
             style="fill:#ffffff;fill-opacity:1;fill-rule:nonzero;stroke:none"
             id="path142" /></g><g
           id="g144"
           transform="translate(516.5439,551.7654)"><path
             d="M 0,0 -6.683,-8.836 -29.481,8.398 -1.519,45.377 20.858,28.461 14.199,19.655 1.414,29.319 -2.703,23.876 8.783,15.192 2.464,6.837 -9.021,15.52 -13.208,9.983 Z"
             style="fill:#ffffff;fill-opacity:1;fill-rule:nonzero;stroke:none"
             id="path146" /></g><g
           id="g148"
           transform="translate(537.6631,532.5936)"><path
             d="M 0,0 -8.014,-8.521 -28.295,10.553 3.471,44.326 12.386,35.942 -11.366,10.689 Z"
             style="fill:#ffffff;fill-opacity:1;fill-rule:nonzero;stroke:none"
             id="path150" /></g><g
           id="g152"
           transform="translate(600.2881,510.3055)"><path
             d="m 0,0 -44.748,-18.177 -6.597,8.336 12.33,20.484 -22.668,-7.422 -6.597,8.335 27.841,39.536 8.048,-10.168 -16.543,-22.161 27.257,8.255 2.594,-3.278 -14.194,-24.79 25.296,11.133 z"
             style="fill:#ffffff;fill-opacity:1;fill-rule:nonzero;stroke:none"
             id="path154" /></g><g
           id="g156"
           transform="translate(600.6113,506.6678)"><path
             d="m 0,0 6.229,-10.534 -39.916,-23.595 -6.228,10.534 z"
             style="fill:#ffffff;fill-opacity:1;fill-rule:nonzero;stroke:none"
             id="path158" /></g><g
           id="g160"
           transform="translate(580.7695,481.4431)"><path
             d="m 0,0 1.645,0.793 5.276,-10.961 -1.058,-0.51 c -3.197,-1.539 -4.397,-4.315 -3.097,-7.015 1.236,-2.571 4.121,-3.38 7.352,-1.825 L 36.982,-6.584 42.258,-17.545 14.807,-30.762 C 5.754,-35.12 -3.539,-32.003 -7.944,-22.85 -12.319,-13.762 -9.078,-4.37 0,0"
             style="fill:#ffffff;fill-opacity:1;fill-rule:nonzero;stroke:none"
             id="path162" /></g><g
           id="g164"
           transform="translate(603.0977,416.9646)"><path
             d="m 0,0 -11.239,-3.891 -11.358,32.803 2.511,0.87 35.378,-4.944 -4.967,14.345 11.24,3.89 10.764,-31.086 -2.728,-0.944 -35.134,4.938 z"
             style="fill:#ffffff;fill-opacity:1;fill-rule:nonzero;stroke:none"
             id="path166" /></g><g
           id="g168"
           transform="translate(608.4033,389.1707)"><path
             d="M 0,0 -10.799,-2.476 -17.185,25.386 28.008,35.746 34.274,8.401 23.513,5.934 19.932,21.558 13.278,20.032 16.495,5.996 6.283,3.654 3.066,17.69 -3.699,16.14 Z"
             style="fill:#ffffff;fill-opacity:1;fill-rule:nonzero;stroke:none"
             id="path170" /></g><g
           id="g172"
           transform="translate(544.252,355.7732)"><path
             d="m 0,0 c 0,-104.891 -85.03,-189.921 -189.921,-189.921 -104.891,0 -189.921,85.03 -189.921,189.921 0,104.891 85.03,189.921 189.921,189.921 C -85.03,189.921 0,104.891 0,0"
             style="fill:#e94e1b;fill-opacity:1;fill-rule:nonzero;stroke:none"
             id="path174" /></g><g
           id="g176"
           transform="translate(335.377,214.0081)"><path
             d="m 0,0 c -64.945,8.215 -114.365,61.801 -121.369,121.319 h 23.714 c 0.278,-1.458 0.554,-2.981 0.86,-4.5 2.664,-13.254 7.525,-25.671 14.496,-37.229 6.695,-11.103 14.991,-20.868 24.917,-29.258 8.69,-7.347 18.194,-13.369 28.584,-17.974 8.799,-3.899 17.931,-6.745 27.446,-8.329 0.504,-0.084 1.29,-0.792 1.294,-1.216 C 0.021,15.258 0,7.701 0,0"
             style="fill:#1d1d1b;fill-opacity:1;fill-rule:nonzero;stroke:none"
             id="path178" /></g><g
           id="g180"
           transform="translate(335.3135,494.6111)"><path
             d="m 0,0 v -23.7 c -24.934,-4.303 -46.516,-15.232 -64.432,-33.145 -17.922,-17.919 -28.865,-39.499 -33.171,-64.432 h -23.69 C -114.13,-59.63 -62.16,-7.319 0,0"
             style="fill:#1d1d1b;fill-opacity:1;fill-rule:nonzero;stroke:none"
             id="path182" /></g><g
           id="g184"
           transform="translate(373.2158,470.9729)"><path
             d="m 0,0 v 23.826 c 31.212,-4.444 58.081,-17.547 80.436,-39.579 22.89,-22.562 36.469,-49.916 41.087,-81.875 -0.764,-0.05 -1.239,-0.106 -1.713,-0.106 -6.901,-0.005 -13.801,0.017 -20.702,-0.019 -1.053,-0.006 -1.609,0.166 -1.816,1.38 -3.353,19.688 -11.365,37.298 -23.72,52.963 -8.813,11.175 -19.325,20.443 -31.486,27.797 C 29.361,-7.919 15.688,-2.683 0.963,-0.32 0.672,-0.273 0.395,-0.134 0,0"
             style="fill:#1d1d1b;fill-opacity:1;fill-rule:nonzero;stroke:none"
             id="path186" /></g><g
           id="g188"
           transform="translate(373.168,214.0931)"><path
             d="m 0,0 v 17.603 3.086 c -0.002,3.029 -0.003,3.033 2.928,3.572 15.028,2.763 28.928,8.356 41.777,16.608 18.445,11.846 32.5,27.651 42.293,47.214 5.049,10.086 8.531,20.73 10.42,31.879 0.088,0.519 0.774,1.337 1.189,1.342 7.557,0.081 15.116,0.059 22.686,0.059 C 115.096,62.12 63.898,7.312 0,0"
             style="fill:#1d1d1b;fill-opacity:1;fill-rule:nonzero;stroke:none"
             id="path190" /></g><g
           id="g192"
           transform="translate(255.1475,363.7845)"><path
             d="m 0,0 c 15.618,0 31.235,0.002 46.853,-0.001 4.447,-0.001 8.232,-2.677 9.375,-6.603 1.245,-4.279 -0.216,-8.437 -4.126,-10.806 -1.376,-0.834 -3.153,-1.409 -4.749,-1.415 -24.576,-0.084 -49.153,-0.053 -73.729,-0.051 -6.835,0 -13.67,-0.01 -20.505,-0.014 -5.715,-0.004 -9.883,4.05 -9.841,9.572 0.041,5.37 4.282,9.329 9.911,9.323 C -31.207,-0.011 -15.604,0 0,0"
             style="fill:#ffffff;fill-opacity:1;fill-rule:nonzero;stroke:none"
             id="path194" /></g><g
           id="g196"
           transform="translate(453.4844,344.8977)"><path
             d="m 0,0 c -15.617,0 -31.234,-0.003 -46.852,0.002 -5.627,0.001 -9.838,4.016 -9.849,9.367 -0.012,5.506 4.148,9.519 9.892,9.516 30.807,-0.015 61.614,-0.079 92.42,0 3.78,0.01 6.925,-0.779 9.22,-3.892 2.212,-3.001 2.508,-6.321 0.916,-9.594 C 54.101,2.013 51.269,0.022 47.372,0.013 34.245,-0.018 21.118,0 7.99,0 Z"
             style="fill:#ffffff;fill-opacity:1;fill-rule:nonzero;stroke:none"
             id="path198" /></g><g
           id="g200"
           transform="translate(344.833,453.6331)"><path
             d="m 0,0 c 0,15.735 -0.011,31.469 0.006,47.204 0.006,4.877 3.88,9.045 8.597,9.341 5.176,0.326 9.782,-3.239 10.203,-8.213 0.274,-3.239 0.082,-6.518 0.083,-9.78 0.001,-28.565 0.005,-57.13 -0.006,-85.696 -0.003,-6.688 -6.075,-11.161 -12.432,-9.196 -3.8,1.174 -6.445,4.887 -6.448,9.126 C -0.006,-31.477 0,-15.738 0,0"
             style="fill:#ffffff;fill-opacity:1;fill-rule:nonzero;stroke:none"
             id="path202" /></g><g
           id="g204"
           transform="translate(363.7187,255.1849)"><path
             d="m 0,0 c 0,-15.73 0.004,-31.461 -0.003,-47.191 -0.002,-4.863 -3.605,-8.974 -8.268,-9.473 -4.905,-0.525 -9.361,2.546 -10.385,7.329 -0.311,1.451 -0.219,3.001 -0.22,4.506 -0.012,30.63 -0.013,61.259 -0.007,91.889 10e-4,5.447 4.107,9.589 9.456,9.589 5.317,10e-4 9.424,-4.179 9.426,-9.612 C 0.003,31.358 0,15.68 0,0"
             style="fill:#ffffff;fill-opacity:1;fill-rule:nonzero;stroke:none"
             id="path206" /></g><g
           id="g208"
           transform="translate(377.8877,354.2146)"><path
             d="m 0,0 c 0.016,-12.831 -10.56,-23.473 -23.341,-23.49 -13.283,-0.017 -23.785,10.402 -23.907,23.493 -0.121,13.095 10.866,23.79 23.422,23.747 C -10.471,23.704 -0.016,13.329 0,0"
             style="fill:#ffffff;fill-opacity:1;fill-rule:nonzero;stroke:none"
             id="path210" /></g><g
           id="g212"
           transform="translate(434.7715,335.4495)"><path
             d="m 0,0 c -3.427,-14.304 -10.031,-26.686 -19.88,-37.271 -11.386,-12.24 -25.247,-20.344 -41.724,-24.341 v 6.016 c 0,5.69 0.025,11.38 -0.027,17.069 -0.01,1.063 0.293,1.605 1.32,1.981 5.708,2.09 10.998,4.957 15.803,8.704 8.479,6.611 14.791,14.856 18.801,24.839 1.2,2.988 1.167,3.002 4.431,3.002 6.416,0 12.832,0.001 19.248,0.001 z"
             style="fill:#1d1d1b;fill-opacity:1;fill-rule:nonzero;stroke:none"
             id="path214" /></g><g
           id="g216"
           transform="translate(335.3799,434.8533)"><path
             d="m 0,0 v -1.845 c 0,-7.018 -0.027,-14.035 0.026,-21.052 0.009,-1.183 -0.266,-1.776 -1.465,-2.24 -16.738,-6.465 -28.44,-18.038 -34.923,-34.796 -0.529,-1.369 -1.224,-1.735 -2.634,-1.719 -6.835,0.079 -13.671,0.036 -20.506,0.036 h -2.081 c 3.405,14.293 10.015,26.633 19.832,37.22 C -30.374,-12.125 -16.494,-4.056 0,0"
             style="fill:#1d1d1b;fill-opacity:1;fill-rule:nonzero;stroke:none"
             id="path218" /></g><g
           id="g220"
           transform="translate(434.5088,373.2371)"><path
             d="m 0,0 c -5.277,0 -10.533,0.001 -15.79,0 -2.359,-0.001 -4.72,0.029 -7.079,-0.024 -0.957,-0.021 -1.485,0.202 -1.862,1.21 -2.517,6.723 -6.027,12.868 -10.747,18.319 -4.959,5.727 -10.731,10.412 -17.459,13.882 -2.353,1.215 -4.853,2.143 -7.246,3.289 -0.481,0.23 -1.104,0.847 -1.108,1.291 -0.061,7.683 -0.034,15.368 -0.021,23.053 0,0.108 0.09,0.216 0.225,0.519 15.127,-3.64 28.169,-11.034 39.236,-21.947 C -9.024,26.945 -1.57,10.145 0,0"
             style="fill:#1d1d1b;fill-opacity:1;fill-rule:nonzero;stroke:none"
             id="path222" /></g><g
           id="g224"
           transform="translate(273.7676,335.4466)"><path
             d="m 0,0 c 8.152,0 15.951,0.02 23.748,-0.053 0.421,-0.004 1.025,-0.699 1.223,-1.2 2.157,-5.474 4.828,-10.659 8.416,-15.345 6.72,-8.777 15.16,-15.298 25.459,-19.376 2.766,-1.094 2.766,-1.092 2.766,-4.052 0,-7.074 0,-14.147 0,-21.537 -13.151,3.067 -24.673,8.953 -34.733,17.605 C 13.308,-32.285 4.354,-17.718 0,0"
             style="fill:#1d1d1b;fill-opacity:1;fill-rule:nonzero;stroke:none"
             id="path226" /></g></g></g></g></svg>
