<?xml version="1.0" encoding="UTF-8" standalone="no"?>
<svg
   xmlns:dc="http://purl.org/dc/elements/1.1/"
   xmlns:cc="http://creativecommons.org/ns#"
   xmlns:rdf="http://www.w3.org/1999/02/22-rdf-syntax-ns#"
   xmlns:svg="http://www.w3.org/2000/svg"
   xmlns="http://www.w3.org/2000/svg"
   xmlns:sodipodi="http://sodipodi.sourceforge.net/DTD/sodipodi-0.dtd"
   xmlns:inkscape="http://www.inkscape.org/namespaces/inkscape"
   version="1.1"
   id="svg2"
   xml:space="preserve"
   width="944.88135"
   height="944.88135"
   viewBox="0 0 944.88135 944.88135"
   sodipodi:docname="Initiatief.ai"><metadata
     id="metadata8"><rdf:RDF><cc:Work
         rdf:about=""><dc:format>image/svg+xml</dc:format><dc:type
           rdf:resource="http://purl.org/dc/dcmitype/StillImage" /></cc:Work></rdf:RDF></metadata><defs
     id="defs6"><clipPath
       clipPathUnits="userSpaceOnUse"
       id="clipPath18"><path
         d="M 0,708.661 H 708.661 V 0 H 0 Z"
         id="path16" /></clipPath></defs><sodipodi:namedview
     pagecolor="#ffffff"
     bordercolor="#666666"
     borderopacity="1"
     objecttolerance="10"
     gridtolerance="10"
     guidetolerance="10"
     inkscape:pageopacity="0"
     inkscape:pageshadow="2"
     inkscape:window-width="640"
     inkscape:window-height="480"
     id="namedview4" /><g
     id="g10"
     inkscape:groupmode="layer"
     inkscape:label="Initiatief"
     transform="matrix(1.3333333,0,0,-1.3333333,0,944.88133)"><g
       id="g12"><g
         id="g14"
         clip-path="url(#clipPath18)"><g
           id="g20"
           transform="translate(694.4883,354.3308)"><path
             d="m 0,0 c 0,-187.95 -152.294,-340.312 -340.158,-340.312 -187.863,0 -340.157,152.362 -340.157,340.312 0,187.949 152.294,340.312 340.157,340.312 C -152.294,340.312 0,187.949 0,0"
             style="fill:#ffffff;fill-opacity:1;fill-rule:nonzero;stroke:none"
             id="path22" /></g><g
           id="g24"
           transform="translate(354.3306,692.0955)"><path
             d="m 0,0 c -186.512,0 -337.709,-151.223 -337.709,-337.765 0,-186.542 151.197,-337.765 337.709,-337.765 186.512,0 337.709,151.223 337.709,337.765 C 337.709,-151.223 186.512,0 0,0 m 350.404,-337.765 c 0,-193.537 -156.881,-350.431 -350.404,-350.431 -193.522,0 -350.403,156.894 -350.403,350.431 0,193.538 156.881,350.431 350.403,350.431 193.523,0 350.404,-156.893 350.404,-350.431"
             style="fill:#1d1d1b;fill-opacity:1;fill-rule:nonzero;stroke:none"
             id="path26" /></g><g
           id="g28"
           transform="translate(354.3306,556.9857)"><path
             d="m 0,0 c -111.86,0 -202.54,-90.731 -202.54,-202.655 0,-111.923 90.68,-202.655 202.54,-202.655 111.86,0 202.541,90.732 202.541,202.655 C 202.541,-90.731 111.86,0 0,0 m 325.034,-202.655 c 0,-179.546 -145.523,-325.098 -325.034,-325.098 -179.511,0 -325.034,145.552 -325.034,325.098 0,179.547 145.523,325.098 325.034,325.098 179.511,0 325.034,-145.551 325.034,-325.098"
             style="fill:#1d1d1b;fill-opacity:1;fill-rule:nonzero;stroke:none"
             id="path30" /></g><g
           id="g32"
           transform="translate(197.436,179.4007)"><path
             d="m 0,0 11.599,-9.585 -39.692,-48.022 -11.598,9.586 z"
             style="fill:#ffffff;fill-opacity:1;fill-rule:nonzero;stroke:none"
             id="path34" /></g><g
           id="g36"
           transform="translate(255.2173,139.8323)"><path
             d="m 0,0 -32.225,-53.32 -10.511,6.355 -0.839,40.015 -17.488,-28.937 -12.316,7.446 32.225,53.32 11.124,-6.725 0.807,-38.681 16.907,27.973 z"
             style="fill:#ffffff;fill-opacity:1;fill-rule:nonzero;stroke:none"
             id="path38" /></g><g
           id="g40"
           transform="translate(261.8423,137.9251)"><path
             d="m 0,0 13.939,-5.668 -23.466,-57.71 -13.939,5.668 z"
             style="fill:#ffffff;fill-opacity:1;fill-rule:nonzero;stroke:none"
             id="path42" /></g><g
           id="g44"
           transform="translate(317.8276,104.5618)"><path
             d="m 0,0 -14.211,3.528 -11.284,-45.466 -14.477,3.593 11.285,45.467 -14.212,3.528 3.722,14.999 42.9,-10.65 z"
             style="fill:#ffffff;fill-opacity:1;fill-rule:nonzero;stroke:none"
             id="path46" /></g><g
           id="g48"
           transform="translate(324.9595,120.0481)"><path
             d="M 0,0 14.977,-1.458 8.941,-63.462 -6.034,-62.004 Z"
             style="fill:#ffffff;fill-opacity:1;fill-rule:nonzero;stroke:none"
             id="path50" /></g><g
           id="g52"
           transform="translate(371.0107,99.3851)"><path
             d="m 0,0 -4.562,-19.666 11.838,0.818 z M 11.817,-31.998 -7.245,-33.314 -9.526,-43.615 -25.403,-44.713 -8.572,18.9 5.911,19.902 31.793,-40.76 15.478,-41.887 Z"
             style="fill:#ffffff;fill-opacity:1;fill-rule:nonzero;stroke:none"
             id="path54" /></g><g
           id="g56"
           transform="translate(436.9102,116.344)"><path
             d="m 0,0 -14.162,-3.726 11.911,-45.306 -14.426,-3.794 -11.911,45.305 -14.162,-3.725 -3.93,14.945 42.75,11.246 z"
             style="fill:#ffffff;fill-opacity:1;fill-rule:nonzero;stroke:none"
             id="path58" /></g><g
           id="g60"
           transform="translate(435.7988,133.3558)"><path
             d="M 0,0 13.861,5.856 38.098,-51.533 24.236,-57.389 Z"
             style="fill:#ffffff;fill-opacity:1;fill-rule:nonzero;stroke:none"
             id="path62" /></g><g
           id="g64"
           transform="translate(510.8379,118.8479)"><path
             d="m 0,0 7.517,-12.851 -30.341,-17.743 -31.456,53.78 29.778,17.414 7.491,-12.807 -17.013,-9.949 4.631,-7.918 15.285,8.938 L -7,6.711 l -15.285,-8.939 4.709,-8.05 z"
             style="fill:#ffffff;fill-opacity:1;fill-rule:nonzero;stroke:none"
             id="path66" /></g><g
           id="g68"
           transform="translate(512.3037,160.177)"><path
             d="M 0,0 6.237,-7.708 19.703,3.189 29.152,-8.488 15.688,-19.386 29.421,-36.356 17.774,-45.782 -21.415,2.646 5.253,24.229 15.021,12.157 Z"
             style="fill:#ffffff;fill-opacity:1;fill-rule:nonzero;stroke:none"
             id="path70" /></g><g
           id="g72"
           transform="translate(686.499,337.2405)"><path
             d="m 0,0 c 0,0 -19.77,-19.831 -23.023,-23.086 -3.944,-3.942 -7.667,-7.605 -11.45,-11.387 -7.574,-7.575 -15.184,-15.429 -22.712,-22.957 -0.959,-0.959 -2.04,-1.795 -2.999,-2.755 l -11.448,-11.448 c -1.898,-1.898 -4.127,-3.332 -6.795,-4.591 -1.32,-0.624 -2.685,-1.181 -4.163,-1.53 -3.253,-0.77 -6.806,-1.102 -10.347,-1.102 -3.58,0 -6.538,0.994 -9.304,2.082 -1.241,0.487 -2.684,1.127 -3.858,1.896 -1.168,0.77 -2.419,1.481 -3.366,2.327 -1.054,0.941 -2.008,1.824 -2.937,2.755 -0.994,0.993 -1.645,2.025 -2.45,3.245 -1.468,2.222 -2.653,4.759 -3.612,7.836 -0.901,2.89 -1.694,6.341 -1.163,10.039 0.237,1.654 0.669,3.149 1.286,4.47 1.709,3.663 4.441,7.146 9.672,7.407 3.845,0.192 6.019,-1.685 7.714,-3.734 0.957,-1.156 1.535,-2.338 1.836,-3.857 0.318,-1.613 0.175,-3.422 0.246,-5.449 0.124,-3.612 1.501,-6.09 3.917,-7.529 2.331,-1.389 5.842,-1.883 9.183,-0.735 2.668,0.916 4.385,3.345 6.245,5.204 1.892,1.892 4.01,4.009 5.693,5.693 0.967,0.968 1.838,2.003 2.753,3 2.682,2.917 5.782,5.667 8.572,8.509 4.266,4.345 8.567,8.655 12.876,12.957 2.212,2.208 4.427,4.414 6.639,6.622 0.824,0.822 1.592,1.852 2.474,2.595 0.998,0.839 1.999,2.299 1.999,2.299 l 37.726,40.746 z"
             style="fill:#ffffff;fill-opacity:1;fill-rule:evenodd;stroke:none"
             id="path74" /></g><g
           id="g76"
           transform="translate(22.1621,337.2405)"><path
             d="m 0,0 c 0,0 19.77,-19.831 23.024,-23.086 3.943,-3.942 7.666,-7.605 11.449,-11.387 7.574,-7.575 15.185,-15.429 22.712,-22.957 0.959,-0.959 2.04,-1.795 2.999,-2.755 3.748,-3.748 7.607,-7.606 11.448,-11.448 1.898,-1.898 4.127,-3.332 6.795,-4.591 1.321,-0.624 2.686,-1.181 4.163,-1.53 3.253,-0.77 6.806,-1.102 10.347,-1.102 3.58,0 6.538,0.994 9.304,2.082 1.241,0.487 2.684,1.127 3.858,1.896 1.168,0.77 2.419,1.481 3.366,2.327 1.054,0.941 2.008,1.824 2.938,2.755 0.994,0.993 1.644,2.025 2.449,3.245 1.468,2.222 2.653,4.759 3.612,7.836 0.901,2.89 1.695,6.341 1.163,10.039 -0.237,1.654 -0.669,3.149 -1.286,4.47 -1.709,3.663 -4.441,7.146 -9.672,7.407 -3.844,0.192 -6.018,-1.685 -7.713,-3.734 -0.957,-1.156 -1.536,-2.338 -1.837,-3.857 -0.318,-1.613 -0.175,-3.422 -0.245,-5.449 -0.125,-3.612 -1.501,-6.09 -3.918,-7.529 -2.331,-1.389 -5.842,-1.883 -9.183,-0.735 -2.668,0.916 -4.385,3.345 -6.245,5.204 -1.892,1.892 -4.01,4.009 -5.693,5.693 -0.967,0.968 -1.837,2.003 -2.753,3 -2.682,2.917 -5.782,5.667 -8.572,8.509 -4.265,4.345 -8.566,8.655 -12.876,12.957 -2.212,2.208 -4.426,4.414 -6.639,6.622 -0.824,0.822 -1.591,1.852 -2.474,2.595 -0.998,0.839 -1.999,2.299 -1.999,2.299 L 0.796,29.522 Z"
             style="fill:#ffffff;fill-opacity:1;fill-rule:evenodd;stroke:none"
             id="path78" /></g><g
           id="g80"
           transform="translate(90.4126,406.1111)"><path
             d="M 0,0 1.306,5.36 C 2.104,8.642 0.475,11.037 -2.342,11.723 -5.157,12.407 -7.678,11.021 -8.477,7.74 L -9.782,2.38 Z m 11.492,1.712 -1.036,-4.255 13.785,-3.353 -2.857,-11.736 -45.054,10.959 4.496,18.463 c 2.237,9.183 10.383,14.252 19.801,11.961 5.529,-1.345 9.437,-5 11.078,-9.855 L 30.148,18.367 26.96,5.27 Z"
             style="fill:#ffffff;fill-opacity:1;fill-rule:nonzero;stroke:none"
             id="path82" /></g><g
           id="g84"
           transform="translate(76.7349,437.3904)"><path
             d="M 0,0 3.95,11.584 47.828,-3.381 43.878,-14.964 Z"
             style="fill:#ffffff;fill-opacity:1;fill-rule:nonzero;stroke:none"
             id="path86" /></g><g
           id="g88"
           transform="translate(108.7983,438.7439)"><path
             d="m 0,0 -1.673,0.732 4.885,11.143 1.075,-0.472 c 3.251,-1.424 6.14,-0.528 7.343,2.216 1.145,2.612 -0.117,5.329 -3.403,6.77 l -27.31,11.972 4.885,11.142 27.907,-12.234 C 22.912,27.234 26.597,18.15 22.518,8.847 18.468,-0.392 9.229,-4.046 0,0"
             style="fill:#ffffff;fill-opacity:1;fill-rule:nonzero;stroke:none"
             id="path90" /></g><g
           id="g92"
           transform="translate(123.3267,469.8435)"><path
             d="m 0,0 6.324,10.736 c 2.853,-1.68 5.468,-0.417 6.865,1.957 1.285,2.18 1.284,4.985 -0.898,6.27 -2.506,1.475 -4.965,-1.037 -8.004,-4.09 -4.65,-4.615 -10.525,-10.544 -19.619,-5.187 -7.867,4.633 -9.154,12.754 -3.908,21.663 5.334,9.057 13.308,11.355 21.436,6.567 L -3.951,27.479 c -2.526,1.488 -4.76,0.405 -6.029,-1.752 -1.093,-1.855 -1.293,-4.136 0.572,-5.235 2.268,-1.336 4.696,1.07 7.736,4.07 4.792,4.667 11.038,10.781 20.16,5.407 8.725,-5.139 9.52,-14.147 4.354,-22.92 C 17.396,-2.197 8.708,-5.129 0,0"
             style="fill:#ffffff;fill-opacity:1;fill-rule:nonzero;stroke:none"
             id="path94" /></g><g
           id="g96"
           transform="translate(155.2534,567.2088)"><path
             d="m 0,0 26.868,-40.122 -6.825,-8.152 -22.558,7.915 11.863,-20.688 -6.826,-8.151 -44.358,19.233 8.326,9.944 25.054,-11.698 -13.607,25.012 2.683,3.204 27.152,-8.866 -16.029,22.509 z"
             style="fill:#ffffff;fill-opacity:1;fill-rule:nonzero;stroke:none"
             id="path98" /></g><g
           id="g100"
           transform="translate(158.8276,568.3162)"><path
             d="m 0,0 9.079,8.209 31.093,-34.394 -9.079,-8.208 z"
             style="fill:#ffffff;fill-opacity:1;fill-rule:nonzero;stroke:none"
             id="path102" /></g><g
           id="g104"
           transform="translate(187.5259,553.9793)"><path
             d="M 0,0 -1.098,1.459 8.624,8.771 9.33,7.834 c 2.133,-2.837 5.09,-3.473 7.484,-1.671 2.28,1.714 2.512,4.701 0.356,7.567 L -0.75,37.559 8.972,44.871 27.284,20.521 C 33.324,12.492 32.077,2.77 23.959,-3.337 15.898,-9.399 6.056,-8.052 0,0"
             style="fill:#ffffff;fill-opacity:1;fill-rule:nonzero;stroke:none"
             id="path106" /></g><g
           id="g108"
           transform="translate(246.1177,574.116)"><path
             d="m 0,0 -20.974,11.733 10.005,-17.875 -10.538,-5.9 -22.643,40.461 10.537,5.899 9.545,-17.054 0.565,22.715 12.22,6.842 -1.28,-26.456 25.067,-13.364 z"
             style="fill:#ffffff;fill-opacity:1;fill-rule:nonzero;stroke:none"
             id="path110" /></g><g
           id="g112"
           transform="translate(246.0923,591.3807)"><path
             d="m 0,0 11.58,4.596 c 1.223,-3.078 4.064,-3.686 6.623,-2.67 2.352,0.933 4.072,3.147 3.137,5.502 -1.073,2.704 -4.557,2.228 -8.83,1.683 C 6.006,8.322 -2.271,7.247 -6.166,17.06 c -3.37,8.487 0.596,15.688 10.203,19.502 9.77,3.876 17.479,0.795 20.959,-7.973 L 13.738,24.121 c -1.082,2.726 -3.51,3.241 -5.838,2.318 -2,-0.793 -3.556,-2.472 -2.757,-4.484 0.97,-2.448 4.364,-2.038 8.605,-1.536 6.648,0.744 15.332,1.736 19.239,-8.106 C 36.725,2.901 31.825,-4.699 22.363,-8.454 12.389,-12.412 3.729,-9.394 0,0"
             style="fill:#ffffff;fill-opacity:1;fill-rule:nonzero;stroke:none"
             id="path114" /></g><g
           id="g116"
           transform="translate(303.5142,593.6981)"><path
             d="m 0,0 c -13.011,-2.955 -25.043,5.026 -28.117,18.551 -3.09,13.599 4.311,25.994 17.322,28.949 11.202,2.545 21.656,-3.306 25.999,-14.375 L 3.272,30.414 c -2.52,4.304 -6.898,6.476 -11.397,5.454 -6.053,-1.375 -9.322,-7.531 -7.73,-14.532 1.584,-6.974 7.176,-11.039 13.229,-9.664 4.743,1.077 7.73,5.193 7.784,10.489 l 12.045,2.736 C 18.279,12.64 11.385,2.587 0,0.001 Z"
             style="fill:#ffffff;fill-opacity:1;fill-rule:nonzero;stroke:none"
             id="path118" /></g><g
           id="g120"
           transform="translate(357.7012,647.4774)"><path
             d="m 0,0 2.563,-46.292 -12.165,-0.674 -0.983,17.771 -13.136,-0.728 0.983,-17.77 -12.164,-0.674 -2.564,46.292 12.166,0.674 0.924,-16.702 13.135,0.728 -0.925,16.701 z"
             style="fill:#ffffff;fill-opacity:1;fill-rule:nonzero;stroke:none"
             id="path122" /></g><g
           id="g124"
           transform="translate(390.3418,609.4549)"><path
             d="M 0,0 -0.928,-11.042 -29.41,-8.646 -25.521,37.561 2.432,35.209 1.506,24.205 -14.465,25.549 -15.037,18.746 -0.689,17.539 -1.568,7.098 -15.916,8.305 -16.498,1.387 Z"
             style="fill:#ffffff;fill-opacity:1;fill-rule:nonzero;stroke:none"
             id="path126" /></g><g
           id="g128"
           transform="translate(404.4551,611.1063)"><path
             d="m 0,0 12.006,-3.333 c -0.887,-3.191 1.011,-5.392 3.664,-6.128 2.437,-0.677 5.146,0.049 5.824,2.489 0.779,2.803 -2.283,4.529 -6.017,6.675 C 9.816,3.004 2.57,7.146 5.396,17.318 7.841,26.117 15.354,29.46 25.314,26.695 35.441,23.883 39.723,16.772 37.197,7.682 l -11.672,3.24 c 0.786,2.826 -0.838,4.704 -3.25,5.373 -2.074,0.576 -4.33,0.179 -4.908,-1.906 -0.705,-2.538 2.246,-4.261 5.93,-6.423 C 29.043,4.543 36.563,0.089 33.729,-10.113 31.018,-19.872 22.521,-22.969 12.711,-20.245 2.371,-17.375 -2.705,-9.739 0,0"
             style="fill:#ffffff;fill-opacity:1;fill-rule:nonzero;stroke:none"
             id="path130" /></g><g
           id="g132"
           transform="translate(465.3633,605.8807)"><path
             d="M 0,0 C 1.306,3.026 0.305,5.996 -2.615,7.255 L -7.31,9.279 -11.766,-1.054 -7.071,-3.077 C -4.152,-4.336 -1.305,-3.025 0,0 m 11.412,-4.889 c -3.85,-8.928 -13.014,-12.693 -21.57,-9.004 l -6.025,2.598 -5.071,-11.759 -11.115,4.792 18.361,42.575 17.14,-7.389 c 8.556,-3.69 12.131,-12.885 8.28,-21.813"
             style="fill:#ffffff;fill-opacity:1;fill-rule:nonzero;stroke:none"
             id="path134" /></g><g
           id="g136"
           transform="translate(493.2197,569.4627)"><path
             d="M 0,0 -5.633,-9.541 -30.243,4.992 -6.669,44.918 17.483,30.654 11.87,21.146 -1.93,29.296 -5.4,23.418 6.997,16.096 1.671,7.074 -10.728,14.396 -14.256,8.419 Z"
             style="fill:#ffffff;fill-opacity:1;fill-rule:nonzero;stroke:none"
             id="path138" /></g><g
           id="g140"
           transform="translate(516.543,551.7654)"><path
             d="M 0,0 -6.682,-8.836 -29.48,8.398 -1.518,45.377 20.859,28.461 14.199,19.655 1.415,29.319 -2.702,23.876 8.783,15.192 2.465,6.837 -9.021,15.52 -13.207,9.983 Z"
             style="fill:#ffffff;fill-opacity:1;fill-rule:nonzero;stroke:none"
             id="path142" /></g><g
           id="g144"
           transform="translate(537.6631,532.5936)"><path
             d="M 0,0 -8.015,-8.521 -28.295,10.553 3.471,44.326 12.386,35.942 -11.366,10.689 Z"
             style="fill:#ffffff;fill-opacity:1;fill-rule:nonzero;stroke:none"
             id="path146" /></g><g
           id="g148"
           transform="translate(600.2871,510.3055)"><path
             d="m 0,0 -44.747,-18.177 -6.597,8.336 12.33,20.484 -22.668,-7.422 -6.597,8.335 27.841,39.536 8.048,-10.168 -16.543,-22.161 27.257,8.255 2.594,-3.278 -14.195,-24.79 25.297,11.133 z"
             style="fill:#ffffff;fill-opacity:1;fill-rule:nonzero;stroke:none"
             id="path150" /></g><g
           id="g152"
           transform="translate(600.6113,506.6678)"><path
             d="m 0,0 6.229,-10.534 -39.917,-23.595 -6.228,10.534 z"
             style="fill:#ffffff;fill-opacity:1;fill-rule:nonzero;stroke:none"
             id="path154" /></g><g
           id="g156"
           transform="translate(580.7695,481.4431)"><path
             d="m 0,0 1.645,0.793 5.276,-10.961 -1.058,-0.51 c -3.197,-1.539 -4.398,-4.315 -3.097,-7.015 1.236,-2.571 4.121,-3.38 7.352,-1.825 L 36.982,-6.584 42.258,-17.545 14.807,-30.762 C 5.754,-35.12 -3.539,-32.003 -7.945,-22.85 -12.319,-13.762 -9.078,-4.37 0,0"
             style="fill:#ffffff;fill-opacity:1;fill-rule:nonzero;stroke:none"
             id="path158" /></g><g
           id="g160"
           transform="translate(603.0977,416.9646)"><path
             d="m 0,0 -11.24,-3.891 -11.357,32.803 2.511,0.87 35.377,-4.944 -4.966,14.345 11.24,3.89 10.763,-31.086 -2.727,-0.944 -35.134,4.938 z"
             style="fill:#ffffff;fill-opacity:1;fill-rule:nonzero;stroke:none"
             id="path162" /></g><g
           id="g164"
           transform="translate(608.4033,389.1707)"><path
             d="M 0,0 -10.799,-2.476 -17.185,25.386 28.007,35.746 34.274,8.401 23.513,5.934 19.932,21.558 13.278,20.032 16.495,5.996 6.283,3.654 3.065,17.69 -3.699,16.14 Z"
             style="fill:#ffffff;fill-opacity:1;fill-rule:nonzero;stroke:none"
             id="path166" /></g><g
           id="g168"
           transform="translate(544.252,355.7732)"><path
             d="m 0,0 c 0,-104.891 -85.03,-189.921 -189.921,-189.921 -104.891,0 -189.921,85.03 -189.921,189.921 0,104.891 85.03,189.921 189.921,189.921 C -85.03,189.921 0,104.891 0,0"
             style="fill:#e6007e;fill-opacity:1;fill-rule:nonzero;stroke:none"
             id="path170" /></g><g
           id="g172"
           transform="translate(299.1382,368.3313)"><path
             d="m 0,0 c -0.302,-5.515 3.157,-10.468 7.84,-10.466 5.881,10e-4 8.26,3.758 9.226,9.218 4.364,24.685 12.89,33.358 37.261,37.527 5.891,1.009 9.885,3.222 9.122,9.639 -0.779,6.548 -5.687,7.669 -11.32,7.265 C 22.98,51.091 1.606,29.297 0,0 m 54.854,-103.989 c -7.193,0.001 -14.388,-0.056 -21.581,0.015 -7.931,0.078 -12.785,2.936 -14.306,10.462 -3.527,17.453 -13.145,30.97 -24.094,44.62 -18.394,22.934 -21.764,49.448 -10.435,76.657 11.442,27.479 32.695,42.801 62.4,46.805 31.701,4.273 63.208,-14.956 76.016,-39.735 14.861,-28.751 11.575,-62.246 -9.475,-86.359 -10.272,-11.768 -18.213,-24.339 -21.271,-39.94 -1.839,-9.381 -6.661,-12.476 -16.368,-12.519 -6.962,-0.032 -13.924,-0.007 -20.886,-0.006"
             style="fill:#ffffff;fill-opacity:1;fill-rule:nonzero;stroke:none"
             id="path174" /></g><g
           id="g176"
           transform="translate(354.6719,252.6028)"><path
             d="m 0,0 c 8.113,-0.008 16.232,0.179 24.339,-0.061 8.145,-0.24 10.648,-2.864 10.898,-11.108 0.271,-8.911 -0.546,-17.263 -10.899,-20.885 -1.354,-0.473 -2.044,-3.382 -2.677,-5.284 -3.102,-9.33 -5.035,-10.771 -15.087,-10.8 -5.332,-0.014 -10.667,0.127 -15.994,-0.031 -7.177,-0.213 -10.916,3.411 -13.055,10.029 -0.924,2.862 -3.18,5.87 -5.681,7.535 -7.216,4.797 -11.135,19.594 -5.805,26.581 1.74,2.28 5.875,2.747 8.934,3.994 0.399,0.163 0.918,0.038 1.382,0.038 C -15.764,0.009 -7.882,0.008 0,0"
             style="fill:#1d1d1b;fill-opacity:1;fill-rule:nonzero;stroke:none"
             id="path178" /></g><g
           id="g180"
           transform="translate(228.4668,357.8391)"><path
             d="m 0,0 c -4.869,0.003 -9.759,-0.278 -14.601,0.08 -5.177,0.382 -8.968,3.126 -9.017,8.685 -0.048,5.506 3.462,8.666 8.78,8.821 9.959,0.292 19.941,0.32 29.898,-0.016 5.308,-0.179 8.846,-3.561 8.72,-8.939 C 23.653,3.224 19.868,0.357 14.603,0.056 9.75,-0.222 4.869,-0.003 0,0"
             style="fill:#1d1d1b;fill-opacity:1;fill-rule:nonzero;stroke:none"
             id="path182" /></g><g
           id="g184"
           transform="translate(480.2031,357.8123)"><path
             d="m 0,0 c -4.636,-0.004 -9.277,-0.153 -13.905,0.034 -5.559,0.224 -9.701,3.052 -9.846,8.719 -0.146,5.726 3.888,8.816 9.48,8.946 9.498,0.22 19.007,0.213 28.505,-0.017 C 19.815,17.547 23.69,14.628 23.608,8.72 23.525,2.751 19.41,0.272 13.904,0.044 9.276,-0.147 4.635,0.005 0,0"
             style="fill:#1d1d1b;fill-opacity:1;fill-rule:nonzero;stroke:none"
             id="path186" /></g><g
           id="g188"
           transform="translate(284.6392,445.6653)"><path
             d="m 0,0 c 0.008,-7.277 -7.677,-12.038 -12.816,-7.686 -8.797,7.45 -16.84,15.871 -24.502,24.504 -1.435,1.617 -0.734,7.253 1.016,9.024 2.076,2.102 7.982,3.868 9.412,2.601 C -17.762,20.356 -9.382,11.422 -0.853,2.672 -0.146,1.948 -0.155,0.525 0,0"
             style="fill:#1d1d1b;fill-opacity:1;fill-rule:nonzero;stroke:none"
             id="path190" /></g><g
           id="g192"
           transform="translate(432.1855,435.8582)"><path
             d="m 0,0 c -2.196,1.486 -5.63,2.598 -6.636,4.812 -1.133,2.494 -1.325,7.084 0.237,8.849 7.336,8.293 15.058,16.351 23.49,23.491 2.014,1.705 8.358,0.823 10.715,-1.197 1.905,-1.634 2.432,-8.144 0.765,-10.108 C 21.564,17.594 13.563,10.176 5.766,2.617 4.542,1.43 2.494,1.093 0,0"
             style="fill:#1d1d1b;fill-opacity:1;fill-rule:nonzero;stroke:none"
             id="path194" /></g><g
           id="g196"
           transform="translate(254.1694,257.7259)"><path
             d="m 0,0 c -2.368,1.715 -5.91,3.012 -6.978,5.41 -1.08,2.423 -0.849,6.949 0.79,8.8 7.035,7.944 14.605,15.452 22.385,22.683 3.587,3.334 8.194,3.324 11.85,-0.37 3.442,-3.475 3.513,-7.794 0.272,-11.248 C 21.048,17.527 13.436,10.095 5.81,2.69 4.603,1.519 2.602,1.165 0,0"
             style="fill:#1d1d1b;fill-opacity:1;fill-rule:nonzero;stroke:none"
             id="path198" /></g><g
           id="g200"
           transform="translate(432.1162,298.01)"><path
             d="m 0,0 c 3.162,-1.892 5.808,-2.912 7.71,-4.716 6.398,-6.063 12.609,-12.331 18.742,-18.666 4.968,-5.133 5.485,-10.48 1.168,-13.958 -4.891,-3.94 -9.379,-2.394 -13.469,1.822 -6.463,6.663 -13.379,12.918 -19.41,19.941 -1.849,2.152 -2.534,6.58 -1.713,9.364 C -6.258,-3.796 -2.663,-2.229 0,0"
             style="fill:#1d1d1b;fill-opacity:1;fill-rule:nonzero;stroke:none"
             id="path202" /></g><g
           id="g204"
           transform="translate(362.8838,492.5677)"><path
             d="m 0,0 c -0.005,-4.873 0.033,-9.746 -0.015,-14.618 -0.053,-5.489 -2.636,-8.864 -8.337,-8.957 -5.627,-0.092 -8.625,2.981 -8.684,8.572 -0.105,9.975 -0.13,19.954 -10e-4,29.929 0.073,5.515 3.067,8.823 8.646,8.741 5.619,-0.082 8.278,-3.597 8.376,-9.05 C 0.073,9.747 0.004,4.873 0,0"
             style="fill:#1d1d1b;fill-opacity:1;fill-rule:nonzero;stroke:none"
             id="path206" /></g><g
           id="g208"
           transform="translate(299.1382,368.3313)"><path
             d="m 0,0 c 1.606,29.297 22.98,51.091 52.129,53.183 5.633,0.404 10.541,-0.717 11.32,-7.265 0.763,-6.417 -3.231,-8.63 -9.122,-9.639 C 29.956,32.11 21.43,23.437 17.066,-1.248 16.1,-6.708 13.721,-10.465 7.84,-10.466 3.157,-10.468 -0.302,-5.515 0,0"
             style="fill:#ffffff;fill-opacity:1;fill-rule:nonzero;stroke:none"
             id="path210" /></g></g></g></g></svg>
