<?xml version="1.0" encoding="UTF-8" standalone="no"?>
<svg
   xmlns:dc="http://purl.org/dc/elements/1.1/"
   xmlns:cc="http://creativecommons.org/ns#"
   xmlns:rdf="http://www.w3.org/1999/02/22-rdf-syntax-ns#"
   xmlns:svg="http://www.w3.org/2000/svg"
   xmlns="http://www.w3.org/2000/svg"
   xmlns:sodipodi="http://sodipodi.sourceforge.net/DTD/sodipodi-0.dtd"
   xmlns:inkscape="http://www.inkscape.org/namespaces/inkscape"
   version="1.1"
   id="svg2"
   xml:space="preserve"
   width="944.88135"
   height="944.88135"
   viewBox="0 0 944.88135 944.88135"
   sodipodi:docname="Overtal.ai"><metadata
     id="metadata8"><rdf:RDF><cc:Work
         rdf:about=""><dc:format>image/svg+xml</dc:format><dc:type
           rdf:resource="http://purl.org/dc/dcmitype/StillImage" /></cc:Work></rdf:RDF></metadata><defs
     id="defs6"><clipPath
       clipPathUnits="userSpaceOnUse"
       id="clipPath18"><path
         d="M 0,708.661 H 708.661 V 0 H 0 Z"
         id="path16" /></clipPath></defs><sodipodi:namedview
     pagecolor="#ffffff"
     bordercolor="#666666"
     borderopacity="1"
     objecttolerance="10"
     gridtolerance="10"
     guidetolerance="10"
     inkscape:pageopacity="0"
     inkscape:pageshadow="2"
     inkscape:window-width="640"
     inkscape:window-height="480"
     id="namedview4" /><g
     id="g10"
     inkscape:groupmode="layer"
     inkscape:label="Overtal"
     transform="matrix(1.3333333,0,0,-1.3333333,0,944.88133)"><g
       id="g12"><g
         id="g14"
         clip-path="url(#clipPath18)"><g
           id="g20"
           transform="translate(694.4883,354.3308)"><path
             d="m 0,0 c 0,-187.95 -152.294,-340.312 -340.158,-340.312 -187.863,0 -340.157,152.362 -340.157,340.312 0,187.949 152.294,340.312 340.157,340.312 C -152.294,340.312 0,187.949 0,0"
             style="fill:#ffffff;fill-opacity:1;fill-rule:nonzero;stroke:none"
             id="path22" /></g><g
           id="g24"
           transform="translate(354.3306,692.0955)"><path
             d="m 0,0 c -186.512,0 -337.709,-151.223 -337.709,-337.765 0,-186.542 151.197,-337.765 337.709,-337.765 186.512,0 337.709,151.223 337.709,337.765 C 337.709,-151.223 186.512,0 0,0 m 350.404,-337.765 c 0,-193.537 -156.881,-350.431 -350.404,-350.431 -193.522,0 -350.403,156.894 -350.403,350.431 0,193.538 156.881,350.431 350.403,350.431 193.523,0 350.404,-156.893 350.404,-350.431"
             style="fill:#1d1d1b;fill-opacity:1;fill-rule:nonzero;stroke:none"
             id="path26" /></g><g
           id="g28"
           transform="translate(354.3306,556.9857)"><path
             d="m 0,0 c -111.86,0 -202.54,-90.731 -202.54,-202.655 0,-111.923 90.68,-202.655 202.54,-202.655 111.86,0 202.541,90.732 202.541,202.655 C 202.541,-90.731 111.86,0 0,0 m 325.034,-202.655 c 0,-179.546 -145.523,-325.098 -325.034,-325.098 -179.511,0 -325.034,145.552 -325.034,325.098 0,179.547 145.523,325.098 325.034,325.098 179.511,0 325.034,-145.551 325.034,-325.098"
             style="fill:#1d1d1b;fill-opacity:1;fill-rule:nonzero;stroke:none"
             id="path30" /></g><g
           id="g32"
           transform="translate(207.8706,112.4915)"><path
             d="M 0,0 C 6.989,-4.3 15.719,-1.446 20.829,6.857 25.938,15.161 24.551,24.24 17.562,28.54 10.573,32.841 1.741,29.99 -3.342,21.729 -8.425,13.47 -6.989,4.302 0,0.001 Z m -8.37,-13.603 c -14.761,9.082 -18.123,27.219 -8.143,43.438 9.979,16.217 27.685,21.393 42.447,12.311 C 40.657,33.087 44.007,15.017 34,-1.245 23.995,-17.506 6.354,-22.661 -8.37,-13.602 Z"
             style="fill:#ffffff;fill-opacity:1;fill-rule:nonzero;stroke:none"
             id="path34" /></g><g
           id="g36"
           transform="translate(306.1558,121.7728)"><path
             d="m 0,0 -39.966,-52.06 -13.063,4.547 0.567,65.771 16.004,-5.57 -2.333,-40.195 22.87,33.048 z"
             style="fill:#ffffff;fill-opacity:1;fill-rule:nonzero;stroke:none"
             id="path38" /></g><g
           id="g40"
           transform="translate(335.6836,70.8499)"><path
             d="m 0,0 -2.019,-14.75 -34.818,4.77 8.449,61.726 L 5.785,47.064 3.772,32.365 -15.752,35.039 -16.996,25.951 0.545,23.549 -1.364,9.6 l -17.541,2.404 -1.264,-9.24 z"
             style="fill:#ffffff;fill-opacity:1;fill-rule:nonzero;stroke:none"
             id="path42" /></g><g
           id="g44"
           transform="translate(362.6904,89.5511)"><path
             d="m 0,0 6.773,0.381 c 4.146,0.232 6.37,3.252 6.151,7.14 -0.218,3.887 -2.764,6.6 -6.908,6.368 L -0.758,13.508 Z M 6.187,-14.135 0.812,-14.436 1.88,-33.47 -12.948,-34.303 -16.441,27.904 6.887,29.215 C 18.49,29.866 27.407,21.328 28.138,8.324 28.566,0.689 25.691,-5.746 20.581,-9.725 l 11.957,-22.023 -16.55,-0.93 z"
             style="fill:#ffffff;fill-opacity:1;fill-rule:nonzero;stroke:none"
             id="path46" /></g><g
           id="g48"
           transform="translate(435.5391,115.844)"><path
             d="m 0,0 -14.185,-3.639 11.638,-45.379 -14.449,-3.705 -11.639,45.378 -14.185,-3.638 -3.839,14.969 42.82,10.984 z"
             style="fill:#ffffff;fill-opacity:1;fill-rule:nonzero;stroke:none"
             id="path50" /></g><g
           id="g52"
           transform="translate(458.1338,121.8362)"><path
             d="m 0,0 2.752,-20 10.769,4.986 z m 22.453,-25.679 -17.34,-8.03 1.542,-10.437 -14.442,-6.688 -6.963,65.435 13.174,6.1 L 44.241,-26.74 29.4,-33.612 Z"
             style="fill:#ffffff;fill-opacity:1;fill-rule:nonzero;stroke:none"
             id="path54" /></g><g
           id="g56"
           transform="translate(531.3047,134.8636)"><path
             d="m 0,0 9.043,-12.854 -27.999,-19.697 -35.846,50.949 12.308,8.659 26.803,-38.096 z"
             style="fill:#ffffff;fill-opacity:1;fill-rule:nonzero;stroke:none"
             id="path58" /></g><g
           id="g60"
           transform="translate(686.499,337.2405)"><path
             d="m 0,0 c 0,0 -19.77,-19.831 -23.023,-23.086 -3.944,-3.942 -7.667,-7.605 -11.45,-11.387 -7.574,-7.575 -15.184,-15.429 -22.712,-22.957 -0.959,-0.959 -2.04,-1.795 -2.999,-2.755 l -11.448,-11.448 c -1.898,-1.898 -4.127,-3.332 -6.795,-4.591 -1.32,-0.624 -2.685,-1.181 -4.163,-1.53 -3.253,-0.77 -6.806,-1.102 -10.347,-1.102 -3.58,0 -6.538,0.994 -9.304,2.082 -1.241,0.487 -2.684,1.127 -3.858,1.896 -1.168,0.77 -2.419,1.481 -3.366,2.327 -1.054,0.941 -2.008,1.824 -2.937,2.755 -0.994,0.993 -1.645,2.025 -2.45,3.245 -1.468,2.222 -2.653,4.759 -3.612,7.836 -0.901,2.89 -1.694,6.341 -1.163,10.039 0.237,1.654 0.669,3.149 1.286,4.47 1.709,3.663 4.441,7.146 9.672,7.407 3.845,0.192 6.019,-1.685 7.714,-3.734 0.957,-1.156 1.535,-2.338 1.836,-3.857 0.318,-1.613 0.175,-3.422 0.246,-5.449 0.124,-3.612 1.501,-6.09 3.917,-7.529 2.331,-1.389 5.842,-1.883 9.183,-0.735 2.668,0.916 4.385,3.345 6.245,5.204 1.892,1.892 4.01,4.009 5.693,5.693 0.967,0.968 1.838,2.003 2.753,3 2.682,2.917 5.782,5.667 8.572,8.509 4.266,4.345 8.567,8.655 12.876,12.957 2.212,2.208 4.427,4.414 6.639,6.622 0.824,0.822 1.592,1.852 2.474,2.595 0.998,0.839 1.999,2.299 1.999,2.299 l 37.726,40.746 z"
             style="fill:#ffffff;fill-opacity:1;fill-rule:evenodd;stroke:none"
             id="path62" /></g><g
           id="g64"
           transform="translate(22.1621,337.2405)"><path
             d="m 0,0 c 0,0 19.77,-19.831 23.024,-23.086 3.943,-3.942 7.666,-7.605 11.449,-11.387 7.574,-7.575 15.185,-15.429 22.712,-22.957 0.959,-0.959 2.04,-1.795 2.999,-2.755 3.748,-3.748 7.607,-7.606 11.448,-11.448 1.898,-1.898 4.127,-3.332 6.795,-4.591 1.321,-0.624 2.686,-1.181 4.163,-1.53 3.253,-0.77 6.806,-1.102 10.347,-1.102 3.58,0 6.538,0.994 9.304,2.082 1.241,0.487 2.684,1.127 3.858,1.896 1.168,0.77 2.419,1.481 3.366,2.327 1.054,0.941 2.008,1.824 2.938,2.755 0.994,0.993 1.644,2.025 2.449,3.245 1.468,2.222 2.653,4.759 3.612,7.836 0.901,2.89 1.695,6.341 1.163,10.039 -0.237,1.654 -0.669,3.149 -1.286,4.47 -1.709,3.663 -4.441,7.146 -9.672,7.407 -3.844,0.192 -6.018,-1.685 -7.713,-3.734 -0.957,-1.156 -1.536,-2.338 -1.837,-3.857 -0.318,-1.613 -0.175,-3.422 -0.245,-5.449 -0.125,-3.612 -1.501,-6.09 -3.918,-7.529 -2.331,-1.389 -5.842,-1.883 -9.183,-0.735 -2.668,0.916 -4.385,3.345 -6.245,5.204 -1.892,1.892 -4.01,4.009 -5.693,5.693 -0.967,0.968 -1.837,2.003 -2.753,3 -2.682,2.917 -5.782,5.667 -8.572,8.509 -4.265,4.345 -8.566,8.655 -12.876,12.957 -2.212,2.208 -4.426,4.414 -6.639,6.622 -0.824,0.822 -1.591,1.852 -2.474,2.595 -0.998,0.839 -1.999,2.299 -1.999,2.299 L 0.796,29.522 Z"
             style="fill:#ffffff;fill-opacity:1;fill-rule:evenodd;stroke:none"
             id="path66" /></g><g
           id="g68"
           transform="translate(90.4131,406.1111)"><path
             d="m 0,0 1.305,5.36 c 0.799,3.282 -0.83,5.677 -3.647,6.363 -2.816,0.684 -5.337,-0.702 -6.136,-3.983 L -9.783,2.38 Z m 11.492,1.712 -1.036,-4.255 13.785,-3.353 -2.858,-11.736 -45.053,10.959 4.496,18.463 c 2.236,9.183 10.382,14.252 19.8,11.961 5.529,-1.345 9.438,-5 11.078,-9.855 L 30.148,18.367 26.959,5.27 Z"
             style="fill:#ffffff;fill-opacity:1;fill-rule:nonzero;stroke:none"
             id="path70" /></g><g
           id="g72"
           transform="translate(76.7344,437.3904)"><path
             d="M 0,0 3.951,11.584 47.829,-3.381 43.878,-14.964 Z"
             style="fill:#ffffff;fill-opacity:1;fill-rule:nonzero;stroke:none"
             id="path74" /></g><g
           id="g76"
           transform="translate(108.7983,438.7439)"><path
             d="m 0,0 -1.673,0.732 4.885,11.143 1.075,-0.472 c 3.251,-1.424 6.14,-0.528 7.343,2.216 1.145,2.612 -0.118,5.329 -3.403,6.77 l -27.31,11.972 4.884,11.142 27.908,-12.234 C 22.912,27.234 26.597,18.15 22.518,8.847 18.468,-0.392 9.229,-4.046 0,0"
             style="fill:#ffffff;fill-opacity:1;fill-rule:nonzero;stroke:none"
             id="path78" /></g><g
           id="g80"
           transform="translate(123.3271,469.8435)"><path
             d="m 0,0 6.323,10.736 c 2.853,-1.68 5.469,-0.417 6.866,1.957 1.284,2.18 1.284,4.985 -0.898,6.27 -2.506,1.475 -4.965,-1.037 -8.004,-4.09 -4.651,-4.615 -10.526,-10.544 -19.62,-5.187 -7.867,4.633 -9.154,12.754 -3.908,21.663 5.334,9.057 13.309,11.355 21.437,6.567 L -3.951,27.479 c -2.527,1.488 -4.76,0.405 -6.03,-1.752 -1.093,-1.855 -1.292,-4.136 0.572,-5.235 2.269,-1.336 4.697,1.07 7.737,4.07 4.792,4.667 11.038,10.781 20.16,5.407 C 27.212,24.83 28.007,15.822 22.841,7.049 17.396,-2.197 8.708,-5.129 0,0"
             style="fill:#ffffff;fill-opacity:1;fill-rule:nonzero;stroke:none"
             id="path82" /></g><g
           id="g84"
           transform="translate(155.2534,567.2088)"><path
             d="m 0,0 26.868,-40.122 -6.825,-8.152 -22.557,7.915 11.862,-20.688 -6.826,-8.151 -44.358,19.233 8.326,9.944 25.053,-11.698 -13.606,25.012 2.683,3.204 27.152,-8.866 -16.029,22.509 z"
             style="fill:#ffffff;fill-opacity:1;fill-rule:nonzero;stroke:none"
             id="path86" /></g><g
           id="g88"
           transform="translate(158.8276,568.3162)"><path
             d="m 0,0 9.079,8.209 31.093,-34.394 -9.079,-8.208 z"
             style="fill:#ffffff;fill-opacity:1;fill-rule:nonzero;stroke:none"
             id="path90" /></g><g
           id="g92"
           transform="translate(187.5259,553.9793)"><path
             d="M 0,0 -1.098,1.459 8.624,8.771 9.33,7.834 c 2.133,-2.837 5.089,-3.473 7.484,-1.671 2.28,1.714 2.512,4.701 0.356,7.567 L -0.75,37.559 8.972,44.871 27.284,20.521 C 33.324,12.492 32.077,2.77 23.959,-3.337 15.898,-9.399 6.056,-8.052 0,0"
             style="fill:#ffffff;fill-opacity:1;fill-rule:nonzero;stroke:none"
             id="path94" /></g><g
           id="g96"
           transform="translate(246.1182,574.116)"><path
             d="m 0,0 -20.974,11.733 10.004,-17.875 -10.537,-5.9 -22.644,40.461 10.537,5.899 9.545,-17.054 0.566,22.715 12.219,6.842 -1.28,-26.456 25.067,-13.364 z"
             style="fill:#ffffff;fill-opacity:1;fill-rule:nonzero;stroke:none"
             id="path98" /></g><g
           id="g100"
           transform="translate(246.0923,591.3807)"><path
             d="m 0,0 11.581,4.596 c 1.222,-3.078 4.063,-3.686 6.622,-2.67 2.352,0.933 4.072,3.147 3.137,5.502 -1.073,2.704 -4.556,2.228 -8.83,1.683 C 6.005,8.322 -2.271,7.247 -6.167,17.06 c -3.369,8.487 0.596,15.688 10.205,19.502 9.769,3.876 17.477,0.795 20.959,-7.973 L 13.738,24.121 c -1.082,2.726 -3.51,3.241 -5.837,2.318 -2,-0.793 -3.558,-2.472 -2.759,-4.484 0.972,-2.448 4.365,-2.038 8.607,-1.536 6.647,0.744 15.331,1.736 19.238,-8.106 C 36.724,2.901 31.825,-4.699 22.363,-8.454 12.389,-12.412 3.729,-9.394 0,0"
             style="fill:#ffffff;fill-opacity:1;fill-rule:nonzero;stroke:none"
             id="path102" /></g><g
           id="g104"
           transform="translate(303.5137,593.6981)"><path
             d="m 0,0 c -13.01,-2.955 -25.042,5.026 -28.116,18.551 -3.091,13.599 4.311,25.994 17.321,28.949 11.203,2.545 21.657,-3.306 26,-14.375 L 3.273,30.414 c -2.521,4.304 -6.898,6.476 -11.397,5.454 -6.053,-1.375 -9.323,-7.531 -7.731,-14.532 1.584,-6.974 7.177,-11.039 13.23,-9.664 4.743,1.077 7.729,5.193 7.784,10.489 l 12.045,2.736 C 18.28,12.64 11.386,2.587 0,0.001 Z"
             style="fill:#ffffff;fill-opacity:1;fill-rule:nonzero;stroke:none"
             id="path106" /></g><g
           id="g108"
           transform="translate(357.7012,647.4774)"><path
             d="m 0,0 2.563,-46.292 -12.165,-0.674 -0.984,17.771 -13.135,-0.728 0.984,-17.77 -12.165,-0.674 -2.564,46.292 12.165,0.674 0.925,-16.702 13.135,0.728 -0.925,16.701 z"
             style="fill:#ffffff;fill-opacity:1;fill-rule:nonzero;stroke:none"
             id="path110" /></g><g
           id="g112"
           transform="translate(390.3428,609.4549)"><path
             d="M 0,0 -0.929,-11.042 -29.41,-8.646 -25.522,37.561 2.431,35.209 1.505,24.205 -14.466,25.549 -15.038,18.746 -0.69,17.539 -1.568,7.098 -15.917,8.305 -16.499,1.387 Z"
             style="fill:#ffffff;fill-opacity:1;fill-rule:nonzero;stroke:none"
             id="path114" /></g><g
           id="g116"
           transform="translate(404.4561,611.1063)"><path
             d="m 0,0 12.006,-3.333 c -0.887,-3.191 1.01,-5.392 3.663,-6.128 2.437,-0.677 5.147,0.049 5.825,2.489 0.778,2.803 -2.284,4.529 -6.018,6.675 C 9.815,3.004 2.57,7.146 5.396,17.318 7.84,26.117 15.353,29.46 25.313,26.695 35.441,23.883 39.722,16.772 37.196,7.682 l -11.672,3.24 c 0.786,2.826 -0.837,4.704 -3.25,5.373 -2.074,0.576 -4.329,0.179 -4.908,-1.906 -0.705,-2.538 2.246,-4.261 5.93,-6.423 C 29.042,4.543 36.562,0.089 33.728,-10.113 31.017,-19.872 22.521,-22.969 12.711,-20.245 2.371,-17.375 -2.705,-9.739 0,0"
             style="fill:#ffffff;fill-opacity:1;fill-rule:nonzero;stroke:none"
             id="path118" /></g><g
           id="g120"
           transform="translate(465.3643,605.8807)"><path
             d="m 0,0 c 1.305,3.026 0.304,5.996 -2.616,7.255 l -4.695,2.024 -4.456,-10.333 4.695,-2.023 C -4.152,-4.336 -1.306,-3.025 0,0 m 11.412,-4.889 c -3.85,-8.928 -13.014,-12.693 -21.571,-9.004 l -6.025,2.598 -5.07,-11.759 -11.116,4.792 18.361,42.575 17.14,-7.389 c 8.557,-3.69 12.131,-12.885 8.281,-21.813"
             style="fill:#ffffff;fill-opacity:1;fill-rule:nonzero;stroke:none"
             id="path122" /></g><g
           id="g124"
           transform="translate(493.2197,569.4627)"><path
             d="M 0,0 -5.633,-9.541 -30.242,4.992 -6.669,44.918 17.484,30.654 11.87,21.146 -1.93,29.296 -5.4,23.418 6.998,16.096 1.671,7.074 -10.727,14.396 -14.256,8.419 Z"
             style="fill:#ffffff;fill-opacity:1;fill-rule:nonzero;stroke:none"
             id="path126" /></g><g
           id="g128"
           transform="translate(516.5439,551.7654)"><path
             d="M 0,0 -6.683,-8.836 -29.481,8.398 -1.519,45.377 20.858,28.461 14.199,19.655 1.414,29.319 -2.703,23.876 8.783,15.192 2.464,6.837 -9.021,15.52 -13.208,9.983 Z"
             style="fill:#ffffff;fill-opacity:1;fill-rule:nonzero;stroke:none"
             id="path130" /></g><g
           id="g132"
           transform="translate(537.6631,532.5936)"><path
             d="M 0,0 -8.014,-8.521 -28.295,10.553 3.471,44.326 12.386,35.942 -11.366,10.689 Z"
             style="fill:#ffffff;fill-opacity:1;fill-rule:nonzero;stroke:none"
             id="path134" /></g><g
           id="g136"
           transform="translate(600.2881,510.3055)"><path
             d="m 0,0 -44.748,-18.177 -6.597,8.336 12.33,20.484 -22.668,-7.422 -6.597,8.335 27.841,39.536 8.048,-10.168 -16.543,-22.161 27.257,8.255 2.594,-3.278 -14.194,-24.79 25.296,11.133 z"
             style="fill:#ffffff;fill-opacity:1;fill-rule:nonzero;stroke:none"
             id="path138" /></g><g
           id="g140"
           transform="translate(600.6113,506.6678)"><path
             d="m 0,0 6.229,-10.534 -39.916,-23.595 -6.228,10.534 z"
             style="fill:#ffffff;fill-opacity:1;fill-rule:nonzero;stroke:none"
             id="path142" /></g><g
           id="g144"
           transform="translate(580.7695,481.4431)"><path
             d="m 0,0 1.645,0.793 5.276,-10.961 -1.058,-0.51 c -3.197,-1.539 -4.397,-4.315 -3.097,-7.015 1.236,-2.571 4.121,-3.38 7.352,-1.825 L 36.982,-6.584 42.258,-17.545 14.807,-30.762 C 5.754,-35.12 -3.539,-32.003 -7.944,-22.85 -12.319,-13.762 -9.078,-4.37 0,0"
             style="fill:#ffffff;fill-opacity:1;fill-rule:nonzero;stroke:none"
             id="path146" /></g><g
           id="g148"
           transform="translate(603.0977,416.9646)"><path
             d="m 0,0 -11.239,-3.891 -11.358,32.803 2.511,0.87 35.378,-4.944 -4.967,14.345 11.24,3.89 10.764,-31.086 -2.728,-0.944 -35.134,4.938 z"
             style="fill:#ffffff;fill-opacity:1;fill-rule:nonzero;stroke:none"
             id="path150" /></g><g
           id="g152"
           transform="translate(608.4033,389.1707)"><path
             d="M 0,0 -10.799,-2.476 -17.185,25.386 28.008,35.746 34.274,8.401 23.513,5.934 19.932,21.558 13.278,20.032 16.495,5.996 6.283,3.654 3.066,17.69 -3.699,16.14 Z"
             style="fill:#ffffff;fill-opacity:1;fill-rule:nonzero;stroke:none"
             id="path154" /></g><g
           id="g156"
           transform="translate(544.252,355.7732)"><path
             d="m 0,0 c 0,-104.891 -85.03,-189.921 -189.921,-189.921 -104.891,0 -189.921,85.03 -189.921,189.921 0,104.891 85.03,189.921 189.921,189.921 C -85.03,189.921 0,104.891 0,0"
             style="fill:#e30613;fill-opacity:1;fill-rule:nonzero;stroke:none"
             id="path158" /></g><g
           id="g160"
           transform="translate(221.7925,407.5818)"><path
             d="M 0,0 H -20.517 C -15.297,-6.342 -4.315,-6.234 0,0 m 234.61,-106.792 c 13.624,-0.221 25.549,11.141 26.022,24.793 0.478,13.767 -11.199,26.165 -25.033,26.581 -13.874,0.417 -25.942,-11.177 -26.266,-25.234 -0.326,-14.072 11.123,-25.912 25.277,-26.14 M 0.039,-81.209 c 0.06,-14.111 11.855,-25.792 25.844,-25.598 13.918,0.194 25.165,11.498 25.231,25.359 0.068,14.228 -11.388,25.98 -25.377,26.032 -13.929,0.053 -25.758,-11.819 -25.698,-25.793 m 96.151,55.334 c 30.689,-2.99 61.256,-6.074 91.857,-8.766 2.693,-0.237 5.612,2.094 9.086,3.5 -23.899,21.015 -39.175,26.637 -70.604,26.608 -14.219,-0.012 -24.831,-7.379 -30.339,-21.342 m 184.793,-70.302 c 0,5.489 0.198,10.527 -0.037,15.545 -0.732,15.641 -7.051,28.498 -20.151,37.344 -16.934,11.435 -35.773,9.158 -54.484,6.524 -1.945,-0.274 -4.32,-1.784 -5.358,-3.436 -3.707,-5.9 -9.093,-5.289 -14.681,-4.59 -3.349,0.419 -6.705,0.784 -10.064,1.114 -29.269,2.879 -58.541,5.728 -87.808,8.63 -5.517,0.547 -7.232,3.568 -4.661,8.462 3.083,5.87 6.491,11.569 10.368,18.42 C 85.047,-11.769 76.74,-14.743 68.712,-18.339 52.044,-25.804 34.988,-31.081 16.419,-30.244 8.227,-29.875 0,-30.342 -8.204,-30.123 c -4.746,0.127 -7.185,-1.331 -7.116,-6.508 0.173,-12.794 -0.166,-25.599 0.212,-38.384 0.104,-3.517 2.006,-6.98 3.084,-10.467 2.743,25.178 19.52,42.378 40.088,39.998 24.835,-2.874 36.131,-21.266 30.919,-50.511 H 202.06 c -5.393,17.452 -2.902,32.437 11.703,43.365 12.066,9.028 25.645,10.092 38.65,2.275 17.571,-10.562 21.313,-26.694 15.468,-45.822 z m 14.548,-6.884 c -2.235,-1.113 -4.381,-2.885 -6.722,-3.195 -4.033,-0.534 -8.186,-0.19 -12.289,-0.157 -8.837,0.071 -16.865,-0.401 -25.18,-5.763 -11.74,-7.573 -24.729,-5.763 -36.873,1.735 -3.605,2.226 -8.267,3.83 -12.456,3.854 -47.784,0.264 -95.571,0.263 -143.355,0.001 -4.196,-0.024 -8.951,-1.524 -12.468,-3.83 -14.636,-9.59 -33.2,-8.007 -45.806,4.241 -2.837,2.756 -6.249,5.115 -9.77,6.935 -9.804,5.068 -15.736,12.422 -15.705,23.875 0.033,12.067 -0.029,24.134 -0.023,36.201 0.008,14.151 2.772,17.454 17.883,19.804 -2.877,1.975 -4.832,4.462 -6.789,4.464 -8.53,0.007 -13.113,4.879 -16.432,11.804 V 8.499 c 8.287,0.656 16.573,1.317 24.86,1.962 0.719,0.057 1.475,0.14 2.165,-0.013 C 0.993,9.464 6.859,9.801 9.464,7.059 13.142,3.185 9.446,-6.745 4.164,-11.55 c -0.706,-0.641 -1.455,-1.234 -2.367,-2.004 2.884,-5.18 7.014,-6.593 12.844,-6.765 15.997,-0.471 30.88,2.963 45.509,9.304 13.183,5.714 26.522,12.211 40.455,14.827 36.824,6.912 71.318,1.363 100.646,-24.504 2.875,-2.536 7.644,-3.704 11.651,-4.02 9.827,-0.777 19.871,0.314 29.562,-1.128 29.036,-4.32 48.243,-27.082 48.661,-56.474 0.043,-3.135 -0.559,-6.412 0.18,-9.361 0.637,-2.54 2.76,-4.707 4.226,-7.039 z"
             style="fill:#1d1d1b;fill-opacity:1;fill-rule:nonzero;stroke:none"
             id="path162" /></g><g
           id="g164"
           transform="translate(338.3447,321.5813)"><path
             d="m 0,0 c 13.265,0 26.58,-0.677 39.772,0.303 6.052,0.45 13.217,2.723 17.455,6.731 5.941,5.62 9.879,13.482 14.058,20.74 0.865,1.503 -0.971,4.562 -1.561,6.905 -2.291,-0.7 -5.35,-0.717 -6.71,-2.245 C 60.34,29.43 58.275,25.742 56.556,22.059 52.211,12.755 45.109,9.669 34.997,9.865 9.441,10.36 -16.133,10.18 -41.692,9.804 c -2.749,-0.04 -7.434,-2.81 -7.786,-4.894 -0.858,-5.086 3.856,-4.914 7.512,-4.918 C -27.977,-0.024 -13.989,-0.015 0,0 m 164.431,-10.177 h -13.102 c 5.845,19.128 2.103,35.261 -15.469,45.823 -13.005,7.817 -26.584,6.752 -38.649,-2.275 C 82.605,22.442 80.115,7.457 85.508,-9.994 H -57.569 c 5.212,29.245 -6.084,47.636 -30.919,50.51 -20.568,2.38 -37.345,-14.82 -40.088,-39.997 -1.078,3.487 -2.981,6.95 -3.085,10.466 -0.377,12.786 -0.038,25.591 -0.211,38.385 -0.069,5.176 2.37,6.634 7.116,6.507 8.204,-0.218 16.431,0.248 24.623,-0.121 18.569,-0.836 35.625,4.441 52.293,11.906 8.028,3.596 16.335,6.569 25.395,10.175 -3.877,-6.851 -7.285,-12.55 -10.368,-18.42 -2.571,-4.895 -0.856,-7.915 4.661,-8.462 29.267,-2.903 58.539,-5.751 87.808,-8.63 3.359,-0.331 6.715,-0.695 10.064,-1.115 5.588,-0.699 10.973,-1.309 14.68,4.59 1.038,1.652 3.413,3.163 5.359,3.437 18.711,2.633 37.55,4.911 54.484,-6.525 13.1,-8.846 19.419,-21.702 20.151,-37.344 0.235,-5.017 0.037,-10.055 0.037,-15.545"
             style="fill:#ffffff;fill-opacity:1;fill-rule:nonzero;stroke:none"
             id="path166" /></g><g
           id="g168"
           transform="translate(227.3447,326.9095)"><path
             d="m 0,0 c -0.115,-10.835 7.388,-19.49 18.066,-20.842 9.534,-1.207 18.872,5.465 21.601,15.35 1.078,3.901 2.164,8.135 -2.994,9.536 -4.819,1.309 -5.159,-2.636 -6.606,-6.199 -1.36,-3.347 -4.737,-6.956 -8.036,-8.086 -2.581,-0.885 -7.237,0.974 -9.506,3.145 -5.641,5.396 -2.199,14.681 5.884,16.549 3.919,0.906 7.822,2.195 5.962,6.707 -0.794,1.927 -5.507,3.477 -8.197,3.157 C 6.97,18.226 0.101,9.521 0,0 M -5.513,-0.537 C -5.573,13.438 6.256,25.31 20.185,25.257 34.174,25.204 45.63,13.452 45.562,-0.775 45.496,-14.637 34.249,-25.94 20.331,-26.135 6.341,-26.329 -5.453,-14.647 -5.513,-0.537"
             style="fill:#ffffff;fill-opacity:1;fill-rule:nonzero;stroke:none"
             id="path170" /></g><g
           id="g172"
           transform="translate(457.5195,346.5677)"><path
             d="m 0,0 c -11.472,0.124 -20.625,-8.96 -21.297,-19.002 -0.694,-10.384 7.578,-20.085 18.335,-21.502 9.849,-1.298 20.608,6.66 22.083,16.542 0.531,3.562 1.078,7.79 -3.963,8.546 -4.414,0.662 -4.679,-3.163 -6.24,-6.223 -1.746,-3.42 -5.045,-7.52 -8.341,-8.239 -2.94,-0.641 -7.878,2.076 -10.027,4.811 -4.602,5.853 -0.519,12.469 7.963,15.221 2.188,0.71 4.892,3.35 5.149,5.382 C 3.866,-2.842 0.712,-0.795 0,0 M -1.117,-45.778 C -15.271,-45.55 -26.72,-33.71 -26.395,-19.638 -26.07,-5.581 -14.002,6.013 -0.128,5.596 13.706,5.18 25.383,-7.218 24.905,-20.984 24.432,-34.637 12.507,-45.999 -1.117,-45.778"
             style="fill:#ffffff;fill-opacity:1;fill-rule:nonzero;stroke:none"
             id="path174" /></g><g
           id="g176"
           transform="translate(221.7925,407.5818)"><path
             d="M 0,0 C -4.315,-6.234 -15.297,-6.342 -20.517,0 Z"
             style="fill:#ffffff;fill-opacity:1;fill-rule:nonzero;stroke:none"
             id="path178" /></g><g
           id="g180"
           transform="translate(338.3447,321.5745)"><path
             d="m 0,0 c -13.989,-0.008 -27.977,-0.018 -41.966,-0.001 -3.656,0.004 -8.37,-0.168 -7.512,4.918 0.352,2.084 5.037,4.854 7.786,4.894 25.559,0.376 51.133,0.556 76.689,0.061 10.112,-0.196 17.214,2.89 21.559,12.193 1.719,3.684 3.784,7.372 6.458,10.376 1.36,1.528 4.419,1.545 6.71,2.245 0.59,-2.343 2.426,-5.402 1.561,-6.905 C 67.106,20.522 63.168,12.661 57.227,7.041 52.989,3.033 45.824,0.76 39.772,0.31 26.58,-0.67 13.265,0.007 0,0"
             style="fill:#1d1d1b;fill-opacity:1;fill-rule:nonzero;stroke:none"
             id="path182" /></g><g
           id="g184"
           transform="translate(227.3447,326.9095)"><path
             d="m 0,0 c 0.101,9.521 6.97,18.226 16.174,19.317 2.69,0.32 7.403,-1.23 8.197,-3.157 1.86,-4.512 -2.043,-5.801 -5.962,-6.707 C 10.326,7.585 6.884,-1.7 12.525,-7.096 c 2.269,-2.171 6.925,-4.03 9.506,-3.145 3.299,1.13 6.676,4.739 8.036,8.086 1.447,3.563 1.787,7.508 6.606,6.199 5.158,-1.401 4.072,-5.635 2.994,-9.536 C 36.938,-15.377 27.6,-22.049 18.066,-20.842 7.388,-19.49 -0.115,-10.835 0,0"
             style="fill:#1d1d1b;fill-opacity:1;fill-rule:nonzero;stroke:none"
             id="path186" /></g><g
           id="g188"
           transform="translate(457.5195,346.5677)"><path
             d="m 0,0 c 0.712,-0.795 3.866,-2.842 3.662,-4.464 -0.257,-2.032 -2.961,-4.672 -5.149,-5.382 -8.482,-2.752 -12.565,-9.368 -7.963,-15.221 2.149,-2.735 7.087,-5.452 10.027,-4.811 3.296,0.719 6.595,4.819 8.341,8.239 1.561,3.06 1.826,6.885 6.24,6.223 5.041,-0.756 4.494,-4.984 3.963,-8.546 -1.475,-9.882 -12.234,-17.84 -22.083,-16.542 -10.757,1.417 -19.029,11.118 -18.335,21.502 C -20.625,-8.96 -11.472,0.124 0,0"
             style="fill:#1d1d1b;fill-opacity:1;fill-rule:nonzero;stroke:none"
             id="path190" /></g></g></g></g></svg>
