<?xml version="1.0" encoding="UTF-8" standalone="no"?>
<svg
   xmlns:dc="http://purl.org/dc/elements/1.1/"
   xmlns:cc="http://creativecommons.org/ns#"
   xmlns:rdf="http://www.w3.org/1999/02/22-rdf-syntax-ns#"
   xmlns:svg="http://www.w3.org/2000/svg"
   xmlns="http://www.w3.org/2000/svg"
   xmlns:sodipodi="http://sodipodi.sourceforge.net/DTD/sodipodi-0.dtd"
   xmlns:inkscape="http://www.inkscape.org/namespaces/inkscape"
   version="1.1"
   id="svg2"
   xml:space="preserve"
   width="944.88135"
   height="944.88135"
   viewBox="0 0 944.88135 944.88135"
   sodipodi:docname="Positiespel.ai"><metadata
     id="metadata8"><rdf:RDF><cc:Work
         rdf:about=""><dc:format>image/svg+xml</dc:format><dc:type
           rdf:resource="http://purl.org/dc/dcmitype/StillImage" /></cc:Work></rdf:RDF></metadata><defs
     id="defs6"><clipPath
       clipPathUnits="userSpaceOnUse"
       id="clipPath18"><path
         d="M 0,708.661 H 708.661 V 0 H 0 Z"
         id="path16" /></clipPath></defs><sodipodi:namedview
     pagecolor="#ffffff"
     bordercolor="#666666"
     borderopacity="1"
     objecttolerance="10"
     gridtolerance="10"
     guidetolerance="10"
     inkscape:pageopacity="0"
     inkscape:pageshadow="2"
     inkscape:window-width="640"
     inkscape:window-height="480"
     id="namedview4" /><g
     id="g10"
     inkscape:groupmode="layer"
     inkscape:label="Positiespel"
     transform="matrix(1.3333333,0,0,-1.3333333,0,944.88133)"><g
       id="g12"><g
         id="g14"
         clip-path="url(#clipPath18)"><g
           id="g20"
           transform="translate(694.4883,354.3308)"><path
             d="m 0,0 c 0,-187.95 -152.294,-340.312 -340.158,-340.312 -187.863,0 -340.157,152.362 -340.157,340.312 0,187.949 152.294,340.312 340.157,340.312 C -152.294,340.312 0,187.949 0,0"
             style="fill:#ffffff;fill-opacity:1;fill-rule:nonzero;stroke:none"
             id="path22" /></g><g
           id="g24"
           transform="translate(354.3306,692.0955)"><path
             d="m 0,0 c -186.512,0 -337.709,-151.223 -337.709,-337.765 0,-186.542 151.197,-337.765 337.709,-337.765 186.512,0 337.709,151.223 337.709,337.765 C 337.709,-151.223 186.512,0 0,0 m 350.404,-337.765 c 0,-193.537 -156.881,-350.431 -350.404,-350.431 -193.522,0 -350.403,156.894 -350.403,350.431 0,193.538 156.881,350.431 350.403,350.431 193.523,0 350.404,-156.893 350.404,-350.431"
             style="fill:#1d1d1b;fill-opacity:1;fill-rule:nonzero;stroke:none"
             id="path26" /></g><g
           id="g28"
           transform="translate(354.3306,556.9857)"><path
             d="m 0,0 c -111.86,0 -202.54,-90.731 -202.54,-202.655 0,-111.923 90.68,-202.655 202.54,-202.655 111.86,0 202.541,90.732 202.541,202.655 C 202.541,-90.731 111.86,0 0,0 m 325.034,-202.655 c 0,-179.546 -145.523,-325.098 -325.034,-325.098 -179.511,0 -325.034,145.552 -325.034,325.098 0,179.547 145.523,325.098 325.034,325.098 179.511,0 325.034,-145.551 325.034,-325.098"
             style="fill:#1d1d1b;fill-opacity:1;fill-rule:nonzero;stroke:none"
             id="path30" /></g><g
           id="g32"
           transform="translate(169.0078,175.0452)"><path
             d="m 0,0 c 3.191,3.07 3.661,7.099 0.951,9.916 l -4.358,4.529 -10.895,-10.482 4.358,-4.53 C -7.234,-3.385 -3.191,-3.07 0,0 m 10.612,-10.975 c -9.414,-9.058 -22.177,-9.523 -30.121,-1.266 l -5.593,5.813 -12.398,-11.929 -10.32,10.726 44.893,43.194 15.912,-16.54 c 7.944,-8.256 7.041,-20.94 -2.373,-29.998"
             style="fill:#ffffff;fill-opacity:1;fill-rule:nonzero;stroke:none"
             id="path34" /></g><g
           id="g36"
           transform="translate(191.7256,123.1409)"><path
             d="m 0,0 c 6.703,-4.734 15.596,-2.439 21.22,5.523 5.625,7.963 4.814,17.111 -1.889,21.845 C 12.628,32.103 3.634,29.818 -1.961,21.896 -7.557,13.975 -6.703,4.734 0,0 Z m -9.213,-13.045 c -14.158,10 -16.365,28.313 -5.38,43.863 10.985,15.553 28.982,19.595 43.139,9.596 C 42.667,30.441 44.868,12.197 33.853,-3.397 22.839,-18.99 4.908,-23.017 -9.213,-13.043 Z"
             style="fill:#ffffff;fill-opacity:1;fill-rule:nonzero;stroke:none"
             id="path38" /></g><g
           id="g40"
           transform="translate(227.4316,106.9671)"><path
             d="m 0,0 14.061,-6.084 c -1.767,-4.084 0.1,-7.252 3.207,-8.596 2.855,-1.235 6.341,-0.66 7.692,2.464 1.552,3.587 -1.849,6.292 -5.988,9.65 C 12.71,2.582 4.676,9.063 10.308,22.08 15.18,33.34 25.129,36.692 36.795,31.645 48.656,26.514 52.414,16.533 47.381,4.9 l -13.67,5.914 c 1.565,3.617 -0.034,6.322 -2.859,7.543 -2.428,1.051 -5.287,0.845 -6.441,-1.824 C 23.006,13.286 26.27,10.599 30.343,7.23 36.686,1.908 44.991,-5.023 39.342,-18.079 33.939,-30.566 22.832,-33.457 11.343,-28.486 -0.767,-23.246 -5.392,-12.463 0,0"
             style="fill:#ffffff;fill-opacity:1;fill-rule:nonzero;stroke:none"
             id="path42" /></g><g
           id="g44"
           transform="translate(288.3999,127.9905)"><path
             d="m 0,0 14.529,-3.918 -16.224,-60.146 -14.53,3.918 z"
             style="fill:#ffffff;fill-opacity:1;fill-rule:nonzero;stroke:none"
             id="path46" /></g><g
           id="g48"
           transform="translate(348.0542,101.8792)"><path
             d="m 0,0 -14.542,1.715 -5.485,-46.528 -14.813,1.748 5.486,46.527 -14.543,1.715 1.809,15.348 L 1.81,15.35 Z"
             style="fill:#ffffff;fill-opacity:1;fill-rule:nonzero;stroke:none"
             id="path50" /></g><g
           id="g52"
           transform="translate(353.1704,118.137)"><path
             d="M 0,0 15.042,0.423 16.793,-61.849 1.751,-62.271 Z"
             style="fill:#ffffff;fill-opacity:1;fill-rule:nonzero;stroke:none"
             id="path54" /></g><g
           id="g56"
           transform="translate(418.0156,77.7386)"><path
             d="m 0,0 2.481,-14.678 -34.651,-5.857 -10.382,61.428 34.009,5.748 2.472,-14.629 -19.431,-3.283 1.529,-9.045 17.456,2.951 2.346,-13.881 -17.456,-2.951 1.554,-9.196 z"
             style="fill:#ffffff;fill-opacity:1;fill-rule:nonzero;stroke:none"
             id="path58" /></g><g
           id="g60"
           transform="translate(426.3311,85.0628)"><path
             d="m 0,0 14.386,5.266 c 1.529,-4.178 5.063,-5.192 8.243,-4.028 2.921,1.071 5.053,3.887 3.883,7.083 -1.343,3.669 -5.673,3.291 -10.985,2.876 C 7.441,10.621 -2.847,9.793 -7.723,23.111 -11.94,34.631 -7.032,43.912 4.903,48.281 17.039,52.725 26.634,48.072 30.991,36.17 L 17.006,31.051 C 15.651,34.75 12.63,35.611 9.74,34.553 7.255,33.644 5.324,31.526 6.323,28.797 7.54,25.473 11.758,25.771 17.03,26.131 25.294,26.637 36.089,27.328 40.979,13.969 45.656,1.191 39.589,-8.551 27.835,-12.854 15.445,-17.39 4.668,-12.752 0,0"
             style="fill:#ffffff;fill-opacity:1;fill-rule:nonzero;stroke:none"
             id="path62" /></g><g
           id="g64"
           transform="translate(490.8604,136.0511)"><path
             d="m 0,0 c -2.264,3.807 -6.079,5.182 -9.438,3.185 l -5.404,-3.212 7.727,-12.998 5.403,3.212 C 1.648,-7.814 2.263,-3.807 0,0 m 13.102,7.834 c 6.677,-11.23 4.225,-23.765 -5.623,-29.619 L 0.545,-25.908 9.339,-40.699 -3.455,-48.305 -35.296,5.25 -15.568,16.979 c 9.848,5.855 21.993,2.085 28.67,-9.145"
             style="fill:#ffffff;fill-opacity:1;fill-rule:nonzero;stroke:none"
             id="path66" /></g><g
           id="g68"
           transform="translate(552.0039,151.8226)"><path
             d="m 0,0 9.587,-11.391 -26.894,-22.632 -40.119,47.669 26.396,22.213 9.553,-11.352 -15.08,-12.691 5.907,-7.018 13.548,11.401 9.066,-10.771 -13.549,-11.403 6.006,-7.135 z"
             style="fill:#ffffff;fill-opacity:1;fill-rule:nonzero;stroke:none"
             id="path70" /></g><g
           id="g72"
           transform="translate(582.6377,186.1741)"><path
             d="m 0,0 11.668,-10.531 -22.939,-25.408 -46.25,41.742 10.083,11.168 34.582,-31.211 z"
             style="fill:#ffffff;fill-opacity:1;fill-rule:nonzero;stroke:none"
             id="path74" /></g><g
           id="g76"
           transform="translate(686.499,337.2405)"><path
             d="m 0,0 c 0,0 -19.77,-19.831 -23.023,-23.086 -3.944,-3.942 -7.667,-7.605 -11.45,-11.387 -7.574,-7.575 -15.184,-15.429 -22.712,-22.957 -0.959,-0.959 -2.04,-1.795 -2.999,-2.755 l -11.448,-11.448 c -1.898,-1.898 -4.127,-3.332 -6.795,-4.591 -1.32,-0.624 -2.685,-1.181 -4.163,-1.53 -3.253,-0.77 -6.806,-1.102 -10.347,-1.102 -3.58,0 -6.538,0.994 -9.304,2.082 -1.241,0.487 -2.684,1.127 -3.858,1.896 -1.168,0.77 -2.419,1.481 -3.366,2.327 -1.054,0.941 -2.008,1.824 -2.937,2.755 -0.994,0.993 -1.645,2.025 -2.45,3.245 -1.468,2.222 -2.653,4.759 -3.612,7.836 -0.901,2.89 -1.694,6.341 -1.163,10.039 0.237,1.654 0.669,3.149 1.286,4.47 1.709,3.663 4.441,7.146 9.672,7.407 3.845,0.192 6.019,-1.685 7.714,-3.734 0.957,-1.156 1.535,-2.338 1.836,-3.857 0.318,-1.613 0.175,-3.422 0.246,-5.449 0.124,-3.612 1.501,-6.09 3.917,-7.529 2.331,-1.389 5.842,-1.883 9.183,-0.735 2.668,0.916 4.385,3.345 6.245,5.204 1.892,1.892 4.01,4.009 5.693,5.693 0.967,0.968 1.838,2.003 2.753,3 2.682,2.917 5.782,5.667 8.572,8.509 4.266,4.345 8.567,8.655 12.876,12.957 2.212,2.208 4.427,4.414 6.639,6.622 0.824,0.822 1.592,1.852 2.474,2.595 0.998,0.839 1.999,2.299 1.999,2.299 l 37.726,40.746 z"
             style="fill:#ffffff;fill-opacity:1;fill-rule:evenodd;stroke:none"
             id="path78" /></g><g
           id="g80"
           transform="translate(22.1621,337.2405)"><path
             d="m 0,0 c 0,0 19.77,-19.831 23.024,-23.086 3.943,-3.942 7.666,-7.605 11.449,-11.387 7.574,-7.575 15.185,-15.429 22.712,-22.957 0.959,-0.959 2.04,-1.795 2.999,-2.755 3.748,-3.748 7.607,-7.606 11.448,-11.448 1.898,-1.898 4.127,-3.332 6.795,-4.591 1.321,-0.624 2.686,-1.181 4.163,-1.53 3.253,-0.77 6.806,-1.102 10.347,-1.102 3.58,0 6.538,0.994 9.304,2.082 1.241,0.487 2.684,1.127 3.858,1.896 1.168,0.77 2.419,1.481 3.366,2.327 1.054,0.941 2.008,1.824 2.938,2.755 0.994,0.993 1.644,2.025 2.449,3.245 1.468,2.222 2.653,4.759 3.612,7.836 0.901,2.89 1.695,6.341 1.163,10.039 -0.237,1.654 -0.669,3.149 -1.286,4.47 -1.709,3.663 -4.441,7.146 -9.672,7.407 -3.844,0.192 -6.018,-1.685 -7.713,-3.734 -0.957,-1.156 -1.536,-2.338 -1.837,-3.857 -0.318,-1.613 -0.175,-3.422 -0.245,-5.449 -0.125,-3.612 -1.501,-6.09 -3.918,-7.529 -2.331,-1.389 -5.842,-1.883 -9.183,-0.735 -2.668,0.916 -4.385,3.345 -6.245,5.204 -1.892,1.892 -4.01,4.009 -5.693,5.693 -0.967,0.968 -1.837,2.003 -2.753,3 -2.682,2.917 -5.782,5.667 -8.572,8.509 -4.265,4.345 -8.566,8.655 -12.876,12.957 -2.212,2.208 -4.426,4.414 -6.639,6.622 -0.824,0.822 -1.591,1.852 -2.474,2.595 -0.998,0.839 -1.999,2.299 -1.999,2.299 L 0.796,29.522 Z"
             style="fill:#ffffff;fill-opacity:1;fill-rule:evenodd;stroke:none"
             id="path82" /></g><g
           id="g84"
           transform="translate(90.4126,406.1111)"><path
             d="m 0,0 1.305,5.36 c 0.799,3.282 -0.83,5.677 -3.647,6.363 -2.816,0.684 -5.337,-0.702 -6.136,-3.983 L -9.783,2.38 Z m 11.492,1.712 -1.036,-4.255 13.785,-3.353 -2.858,-11.736 -45.053,10.959 4.496,18.463 c 2.236,9.183 10.382,14.252 19.8,11.961 5.529,-1.345 9.438,-5 11.078,-9.855 L 30.148,18.367 26.959,5.27 Z"
             style="fill:#ffffff;fill-opacity:1;fill-rule:nonzero;stroke:none"
             id="path86" /></g><g
           id="g88"
           transform="translate(76.7339,437.3904)"><path
             d="M 0,0 3.951,11.584 47.829,-3.381 43.878,-14.964 Z"
             style="fill:#ffffff;fill-opacity:1;fill-rule:nonzero;stroke:none"
             id="path90" /></g><g
           id="g92"
           transform="translate(108.7979,438.7439)"><path
             d="m 0,0 -1.673,0.732 4.885,11.143 1.075,-0.472 c 3.251,-1.424 6.14,-0.528 7.343,2.216 1.145,2.612 -0.118,5.329 -3.403,6.77 l -27.31,11.972 4.884,11.142 27.908,-12.234 C 22.912,27.234 26.597,18.15 22.518,8.847 18.468,-0.392 9.229,-4.046 0,0"
             style="fill:#ffffff;fill-opacity:1;fill-rule:nonzero;stroke:none"
             id="path94" /></g><g
           id="g96"
           transform="translate(123.3267,469.8435)"><path
             d="m 0,0 6.323,10.736 c 2.853,-1.68 5.469,-0.417 6.866,1.957 1.284,2.18 1.284,4.985 -0.898,6.27 -2.506,1.475 -4.965,-1.037 -8.004,-4.09 -4.651,-4.615 -10.526,-10.544 -19.62,-5.187 -7.867,4.633 -9.154,12.754 -3.908,21.663 5.334,9.057 13.309,11.355 21.437,6.567 L -3.951,27.479 c -2.527,1.488 -4.76,0.405 -6.03,-1.752 -1.093,-1.855 -1.292,-4.136 0.572,-5.235 2.269,-1.336 4.697,1.07 7.737,4.07 4.792,4.667 11.038,10.781 20.16,5.407 C 27.212,24.83 28.007,15.822 22.841,7.049 17.396,-2.197 8.708,-5.129 0,0"
             style="fill:#ffffff;fill-opacity:1;fill-rule:nonzero;stroke:none"
             id="path98" /></g><g
           id="g100"
           transform="translate(155.2529,567.2088)"><path
             d="m 0,0 26.868,-40.122 -6.825,-8.152 -22.557,7.915 11.862,-20.688 -6.826,-8.151 -44.358,19.233 8.326,9.944 25.053,-11.698 -13.606,25.012 2.683,3.204 27.152,-8.866 -16.029,22.509 z"
             style="fill:#ffffff;fill-opacity:1;fill-rule:nonzero;stroke:none"
             id="path102" /></g><g
           id="g104"
           transform="translate(158.8271,568.3162)"><path
             d="m 0,0 9.079,8.209 31.093,-34.394 -9.079,-8.208 z"
             style="fill:#ffffff;fill-opacity:1;fill-rule:nonzero;stroke:none"
             id="path106" /></g><g
           id="g108"
           transform="translate(187.5254,553.9793)"><path
             d="M 0,0 -1.098,1.459 8.624,8.771 9.33,7.834 c 2.133,-2.837 5.089,-3.473 7.484,-1.671 2.28,1.714 2.512,4.701 0.356,7.567 L -0.75,37.559 8.972,44.871 27.284,20.521 C 33.324,12.492 32.077,2.77 23.959,-3.337 15.898,-9.399 6.056,-8.052 0,0"
             style="fill:#ffffff;fill-opacity:1;fill-rule:nonzero;stroke:none"
             id="path110" /></g><g
           id="g112"
           transform="translate(246.1177,574.116)"><path
             d="m 0,0 -20.974,11.733 10.004,-17.875 -10.537,-5.9 -22.644,40.461 10.537,5.899 9.545,-17.054 0.566,22.715 12.219,6.842 -1.28,-26.456 25.067,-13.364 z"
             style="fill:#ffffff;fill-opacity:1;fill-rule:nonzero;stroke:none"
             id="path114" /></g><g
           id="g116"
           transform="translate(246.0918,591.3807)"><path
             d="m 0,0 11.581,4.596 c 1.222,-3.078 4.063,-3.686 6.622,-2.67 2.352,0.933 4.072,3.147 3.137,5.502 -1.073,2.704 -4.556,2.228 -8.83,1.683 C 6.005,8.322 -2.271,7.247 -6.167,17.06 c -3.369,8.487 0.596,15.688 10.205,19.502 9.769,3.876 17.477,0.795 20.959,-7.973 L 13.738,24.121 c -1.082,2.726 -3.51,3.241 -5.837,2.318 -2,-0.793 -3.558,-2.472 -2.759,-4.484 0.972,-2.448 4.365,-2.038 8.607,-1.536 6.647,0.744 15.331,1.736 19.238,-8.106 C 36.724,2.901 31.825,-4.699 22.363,-8.454 12.389,-12.412 3.729,-9.394 0,0"
             style="fill:#ffffff;fill-opacity:1;fill-rule:nonzero;stroke:none"
             id="path118" /></g><g
           id="g120"
           transform="translate(303.5132,593.6981)"><path
             d="m 0,0 c -13.01,-2.955 -25.042,5.026 -28.116,18.551 -3.091,13.599 4.311,25.994 17.321,28.949 11.203,2.545 21.657,-3.306 26,-14.375 L 3.273,30.414 c -2.521,4.304 -6.898,6.476 -11.397,5.454 -6.053,-1.375 -9.323,-7.531 -7.731,-14.532 1.584,-6.974 7.177,-11.039 13.23,-9.664 4.743,1.077 7.729,5.193 7.784,10.489 l 12.045,2.736 C 18.28,12.64 11.386,2.587 0,0.001 Z"
             style="fill:#ffffff;fill-opacity:1;fill-rule:nonzero;stroke:none"
             id="path122" /></g><g
           id="g124"
           transform="translate(357.7012,647.4774)"><path
             d="m 0,0 2.563,-46.292 -12.166,-0.674 -0.983,17.771 -13.136,-0.728 0.984,-17.77 -12.165,-0.674 -2.563,46.292 12.165,0.674 0.925,-16.702 13.135,0.728 -0.925,16.701 z"
             style="fill:#ffffff;fill-opacity:1;fill-rule:nonzero;stroke:none"
             id="path126" /></g><g
           id="g128"
           transform="translate(390.3428,609.4549)"><path
             d="M 0,0 -0.929,-11.042 -29.41,-8.646 -25.522,37.561 2.431,35.209 1.505,24.205 -14.466,25.549 -15.038,18.746 -0.69,17.539 -1.568,7.098 -15.917,8.305 -16.499,1.387 Z"
             style="fill:#ffffff;fill-opacity:1;fill-rule:nonzero;stroke:none"
             id="path130" /></g><g
           id="g132"
           transform="translate(404.4561,611.1063)"><path
             d="m 0,0 12.006,-3.333 c -0.887,-3.191 1.01,-5.392 3.663,-6.128 2.437,-0.677 5.147,0.049 5.825,2.489 0.778,2.803 -2.284,4.529 -6.018,6.675 C 9.815,3.004 2.57,7.146 5.396,17.318 7.84,26.117 15.353,29.46 25.313,26.695 35.441,23.883 39.722,16.772 37.196,7.682 l -11.672,3.24 c 0.786,2.826 -0.837,4.704 -3.25,5.373 -2.074,0.576 -4.329,0.179 -4.908,-1.906 -0.705,-2.538 2.246,-4.261 5.93,-6.423 C 29.042,4.543 36.562,0.089 33.728,-10.113 31.017,-19.872 22.521,-22.969 12.711,-20.245 2.371,-17.375 -2.705,-9.739 0,0"
             style="fill:#ffffff;fill-opacity:1;fill-rule:nonzero;stroke:none"
             id="path134" /></g><g
           id="g136"
           transform="translate(465.3643,605.8807)"><path
             d="m 0,0 c 1.305,3.026 0.304,5.996 -2.616,7.255 l -4.695,2.024 -4.456,-10.333 4.695,-2.023 C -4.152,-4.336 -1.306,-3.025 0,0 m 11.412,-4.889 c -3.85,-8.928 -13.014,-12.693 -21.571,-9.004 l -6.025,2.598 -5.07,-11.759 -11.116,4.792 18.361,42.575 17.14,-7.389 c 8.557,-3.69 12.131,-12.885 8.281,-21.813"
             style="fill:#ffffff;fill-opacity:1;fill-rule:nonzero;stroke:none"
             id="path138" /></g><g
           id="g140"
           transform="translate(493.2197,569.4627)"><path
             d="M 0,0 -5.633,-9.541 -30.242,4.992 -6.669,44.918 17.484,30.654 11.87,21.146 -1.93,29.296 -5.4,23.418 6.998,16.096 1.671,7.074 -10.727,14.396 -14.256,8.419 Z"
             style="fill:#ffffff;fill-opacity:1;fill-rule:nonzero;stroke:none"
             id="path142" /></g><g
           id="g144"
           transform="translate(516.5439,551.7654)"><path
             d="M 0,0 -6.683,-8.836 -29.481,8.398 -1.519,45.377 20.858,28.461 14.199,19.655 1.414,29.319 -2.703,23.876 8.783,15.192 2.464,6.837 -9.021,15.52 -13.208,9.983 Z"
             style="fill:#ffffff;fill-opacity:1;fill-rule:nonzero;stroke:none"
             id="path146" /></g><g
           id="g148"
           transform="translate(537.6631,532.5936)"><path
             d="M 0,0 -8.014,-8.521 -28.295,10.553 3.471,44.326 12.386,35.942 -11.366,10.689 Z"
             style="fill:#ffffff;fill-opacity:1;fill-rule:nonzero;stroke:none"
             id="path150" /></g><g
           id="g152"
           transform="translate(600.2881,510.3055)"><path
             d="m 0,0 -44.748,-18.177 -6.597,8.336 12.33,20.484 -22.668,-7.422 -6.597,8.335 27.841,39.536 8.048,-10.168 -16.543,-22.161 27.257,8.255 2.594,-3.278 -14.194,-24.79 25.296,11.133 z"
             style="fill:#ffffff;fill-opacity:1;fill-rule:nonzero;stroke:none"
             id="path154" /></g><g
           id="g156"
           transform="translate(600.6113,506.6678)"><path
             d="m 0,0 6.229,-10.534 -39.916,-23.595 -6.228,10.534 z"
             style="fill:#ffffff;fill-opacity:1;fill-rule:nonzero;stroke:none"
             id="path158" /></g><g
           id="g160"
           transform="translate(580.7695,481.4431)"><path
             d="m 0,0 1.645,0.793 5.276,-10.961 -1.058,-0.51 c -3.197,-1.539 -4.397,-4.315 -3.097,-7.015 1.236,-2.571 4.121,-3.38 7.352,-1.825 L 36.982,-6.584 42.258,-17.545 14.807,-30.762 C 5.754,-35.12 -3.539,-32.003 -7.944,-22.85 -12.319,-13.762 -9.078,-4.37 0,0"
             style="fill:#ffffff;fill-opacity:1;fill-rule:nonzero;stroke:none"
             id="path162" /></g><g
           id="g164"
           transform="translate(603.0977,416.9646)"><path
             d="m 0,0 -11.239,-3.891 -11.358,32.803 2.511,0.87 35.378,-4.944 -4.967,14.345 11.24,3.89 10.764,-31.086 -2.728,-0.944 -35.134,4.938 z"
             style="fill:#ffffff;fill-opacity:1;fill-rule:nonzero;stroke:none"
             id="path166" /></g><g
           id="g168"
           transform="translate(608.4033,389.1707)"><path
             d="M 0,0 -10.799,-2.476 -17.185,25.386 28.008,35.746 34.274,8.401 23.513,5.934 19.932,21.558 13.278,20.032 16.495,5.996 6.283,3.654 3.066,17.69 -3.699,16.14 Z"
             style="fill:#ffffff;fill-opacity:1;fill-rule:nonzero;stroke:none"
             id="path170" /></g><g
           id="g172"
           transform="translate(544.252,355.7732)"><path
             d="m 0,0 c 0,-104.891 -85.03,-189.921 -189.921,-189.921 -104.891,0 -189.921,85.03 -189.921,189.921 0,104.891 85.03,189.921 189.921,189.921 C -85.03,189.921 0,104.891 0,0"
             style="fill:#ffed00;fill-opacity:1;fill-rule:nonzero;stroke:none"
             id="path174" /></g><g
           id="g176"
           transform="translate(329.7061,392.5017)"><path
             d="M 0,0 20.684,136.16 41.685,-5.776 97.349,36.966 60.029,-16.002 200.555,-37.22 58.965,-58.194 l 42.49,-57.574 -58.782,41.235 -20.415,-137.968 -21.244,139.814 -56.757,-41.131 38.831,55.118 -134.394,20.336 137.973,20.418 -42.735,57.449 z"
             style="fill:#1d1d1b;fill-opacity:1;fill-rule:nonzero;stroke:none"
             id="path178" /></g><g
           id="g180"
           transform="translate(334.856,364.4324)"><path
             d="M 0,0 C 0,0 1.449,5.684 -11.603,6.455 -19.286,6.909 -31.996,4.447 -52.987,1.377 -65.998,-0.526 -82.19,-2.497 -102.34,-6.749 l 90.746,-0.371 c 0,0 12.422,-1.236 11.594,7.12"
             style="fill:#ffffff;fill-opacity:1;fill-rule:nonzero;stroke:none"
             id="path182" /></g><g
           id="g184"
           transform="translate(352.9321,368.4461)"><path
             d="m 0,0 c -7.466,0 -13.518,-6.052 -13.518,-13.518 0,-7.466 6.052,-13.518 13.518,-13.518 7.465,0 13.518,6.052 13.518,13.518 C 13.518,-6.052 7.465,0 0,0"
             style="fill:#ffffff;fill-opacity:1;fill-rule:nonzero;stroke:none"
             id="path186" /></g><g
           id="g188"
           transform="translate(342.208,336.3157)"><path
             d="m 0,0 c 0,0 -5.684,1.449 -6.455,-11.603 -0.454,-7.683 2.008,-20.393 5.078,-41.384 1.903,-13.011 3.874,-29.203 8.126,-49.353 L 7.12,-11.595 C 7.12,-11.595 8.356,0.828 0,0"
             style="fill:#ffffff;fill-opacity:1;fill-rule:nonzero;stroke:none"
             id="path190" /></g><g
           id="g192"
           transform="translate(374.0801,345.2239)"><path
             d="m 0,0 c 0,0 -1.449,-5.684 11.603,-6.455 7.683,-0.454 20.393,2.008 41.384,5.078 13.011,1.903 29.203,3.874 49.353,8.125 L 11.595,7.119 C 11.595,7.119 -0.828,8.356 0,0"
             style="fill:#ffffff;fill-opacity:1;fill-rule:nonzero;stroke:none"
             id="path194" /></g><g
           id="g196"
           transform="translate(360.0156,373.5408)"><path
             d="M 0,0 C 0,0 5.684,-1.449 6.455,11.603 6.909,19.286 4.447,31.996 1.377,52.987 -0.526,65.998 -2.497,82.19 -6.749,102.34 L -7.12,11.594 C -7.12,11.594 -8.356,-0.828 0,0"
             style="fill:#ffffff;fill-opacity:1;fill-rule:nonzero;stroke:none"
             id="path198" /></g></g></g></g></svg>
