<?xml version="1.0" encoding="UTF-8" standalone="no"?>
<svg
   xmlns:dc="http://purl.org/dc/elements/1.1/"
   xmlns:cc="http://creativecommons.org/ns#"
   xmlns:rdf="http://www.w3.org/1999/02/22-rdf-syntax-ns#"
   xmlns:svg="http://www.w3.org/2000/svg"
   xmlns="http://www.w3.org/2000/svg"
   xmlns:sodipodi="http://sodipodi.sourceforge.net/DTD/sodipodi-0.dtd"
   xmlns:inkscape="http://www.inkscape.org/namespaces/inkscape"
   version="1.1"
   id="svg2"
   xml:space="preserve"
   width="944.88135"
   height="944.88135"
   viewBox="0 0 944.88135 944.88135"
   sodipodi:docname="Samen.ai"><metadata
     id="metadata8"><rdf:RDF><cc:Work
         rdf:about=""><dc:format>image/svg+xml</dc:format><dc:type
           rdf:resource="http://purl.org/dc/dcmitype/StillImage" /></cc:Work></rdf:RDF></metadata><defs
     id="defs6"><clipPath
       clipPathUnits="userSpaceOnUse"
       id="clipPath18"><path
         d="M 0,708.661 H 708.661 V 0 H 0 Z"
         id="path16" /></clipPath></defs><sodipodi:namedview
     pagecolor="#ffffff"
     bordercolor="#666666"
     borderopacity="1"
     objecttolerance="10"
     gridtolerance="10"
     guidetolerance="10"
     inkscape:pageopacity="0"
     inkscape:pageshadow="2"
     inkscape:window-width="640"
     inkscape:window-height="480"
     id="namedview4" /><g
     id="g10"
     inkscape:groupmode="layer"
     inkscape:label="Samen"
     transform="matrix(1.3333333,0,0,-1.3333333,0,944.88133)"><g
       id="g12"><g
         id="g14"
         clip-path="url(#clipPath18)"><g
           id="g20"
           transform="translate(694.4883,354.3308)"><path
             d="m 0,0 c 0,-187.95 -152.294,-340.312 -340.158,-340.312 -187.863,0 -340.157,152.362 -340.157,340.312 0,187.949 152.294,340.312 340.157,340.312 C -152.294,340.312 0,187.949 0,0"
             style="fill:#ffffff;fill-opacity:1;fill-rule:nonzero;stroke:none"
             id="path22" /></g><g
           id="g24"
           transform="translate(354.3306,692.0955)"><path
             d="m 0,0 c -186.512,0 -337.709,-151.223 -337.709,-337.765 0,-186.542 151.197,-337.765 337.709,-337.765 186.512,0 337.709,151.223 337.709,337.765 C 337.709,-151.223 186.512,0 0,0 m 350.404,-337.765 c 0,-193.537 -156.881,-350.431 -350.404,-350.431 -193.522,0 -350.403,156.894 -350.403,350.431 0,193.538 156.881,350.431 350.403,350.431 193.523,0 350.404,-156.893 350.404,-350.431"
             style="fill:#1d1d1b;fill-opacity:1;fill-rule:nonzero;stroke:none"
             id="path26" /></g><g
           id="g28"
           transform="translate(354.3306,556.9857)"><path
             d="m 0,0 c -111.86,0 -202.54,-90.731 -202.54,-202.655 0,-111.923 90.68,-202.655 202.54,-202.655 111.86,0 202.541,90.732 202.541,202.655 C 202.541,-90.731 111.86,0 0,0 m 325.034,-202.655 c 0,-179.546 -145.523,-325.098 -325.034,-325.098 -179.511,0 -325.034,145.552 -325.034,325.098 0,179.547 145.523,325.098 325.034,325.098 179.511,0 325.034,-145.551 325.034,-325.098"
             style="fill:#1d1d1b;fill-opacity:1;fill-rule:nonzero;stroke:none"
             id="path30" /></g><g
           id="g32"
           transform="translate(215.894,113.3948)"><path
             d="m 0,0 13.764,-6.732 c -1.956,-3.997 -0.239,-7.248 2.802,-8.737 2.795,-1.367 6.305,-0.955 7.8,2.102 1.718,3.511 -1.554,6.373 -5.532,9.918 -6.018,5.435 -13.74,12.285 -7.508,25.024 5.391,11.02 15.486,13.905 26.906,8.32 11.61,-5.68 14.899,-15.825 9.33,-27.209 L 34.182,9.23 c 1.73,3.54 0.259,6.316 -2.506,7.668 -2.377,1.164 -5.242,1.09 -6.52,-1.521 -1.554,-3.178 1.581,-6.016 5.492,-9.57 6.09,-5.612 14.064,-12.923 7.813,-25.702 C 32.481,-32.116 21.25,-34.484 10.004,-28.982 -1.849,-23.185 -5.967,-12.197 0,0"
             style="fill:#ffffff;fill-opacity:1;fill-rule:nonzero;stroke:none"
             id="path34" /></g><g
           id="g36"
           transform="translate(291.9155,106.9085)"><path
             d="m 0,0 -10.621,-17.169 11.476,-3.017 z m 0.945,-34.096 -18.479,4.858 -5.46,-9.028 -15.393,4.045 36.321,54.87 14.039,-3.69 5.088,-65.754 -15.816,4.158 z"
             style="fill:#ffffff;fill-opacity:1;fill-rule:nonzero;stroke:none"
             id="path38" /></g><g
           id="g40"
           transform="translate(377.7881,56.3675)"><path
             d="m 0,0 -4.883,35.795 -13.615,-36.246 -4.386,-0.082 -14.966,35.693 -3.471,-35.937 -15.046,-0.284 6.977,62.446 14.828,0.279 13.33,-33.657 12.136,34.136 14.826,0.279 9.251,-62.14 z"
             style="fill:#ffffff;fill-opacity:1;fill-rule:nonzero;stroke:none"
             id="path42" /></g><g
           id="g44"
           transform="translate(439.7998,83.927)"><path
             d="m 0,0 3.688,-14.423 -34.052,-8.705 -15.435,60.359 33.422,8.543 3.676,-14.374 -19.096,-4.881 2.273,-8.886 17.155,4.386 3.487,-13.641 -17.155,-4.385 2.31,-9.035 z"
             style="fill:#ffffff;fill-opacity:1;fill-rule:nonzero;stroke:none"
             id="path46" /></g><g
           id="g48"
           transform="translate(475.2725,151.6644)"><path
             d="m 0,0 27.076,-56.107 -11.06,-5.34 -33.981,21.139 14.694,-30.449 -12.959,-6.257 -27.078,56.109 11.706,5.651 32.846,-20.438 -14.205,29.436 z"
             style="fill:#ffffff;fill-opacity:1;fill-rule:nonzero;stroke:none"
             id="path50" /></g><g
           id="g52"
           transform="translate(686.499,337.2405)"><path
             d="m 0,0 c 0,0 -19.77,-19.831 -23.023,-23.086 -3.944,-3.942 -7.667,-7.605 -11.45,-11.387 -7.574,-7.575 -15.184,-15.429 -22.712,-22.957 -0.959,-0.959 -2.04,-1.795 -2.999,-2.755 l -11.448,-11.448 c -1.898,-1.898 -4.127,-3.332 -6.795,-4.591 -1.32,-0.624 -2.685,-1.181 -4.163,-1.53 -3.253,-0.77 -6.806,-1.102 -10.347,-1.102 -3.58,0 -6.538,0.994 -9.304,2.082 -1.241,0.487 -2.684,1.127 -3.858,1.896 -1.168,0.77 -2.419,1.481 -3.366,2.327 -1.054,0.941 -2.008,1.824 -2.937,2.755 -0.994,0.993 -1.645,2.025 -2.45,3.245 -1.468,2.222 -2.653,4.759 -3.612,7.836 -0.901,2.89 -1.694,6.341 -1.163,10.039 0.237,1.654 0.669,3.149 1.286,4.47 1.709,3.663 4.441,7.146 9.672,7.407 3.845,0.192 6.019,-1.685 7.714,-3.734 0.957,-1.156 1.535,-2.338 1.836,-3.857 0.318,-1.613 0.175,-3.422 0.246,-5.449 0.124,-3.612 1.501,-6.09 3.917,-7.529 2.331,-1.389 5.842,-1.883 9.183,-0.735 2.668,0.916 4.385,3.345 6.245,5.204 1.892,1.892 4.01,4.009 5.693,5.693 0.967,0.968 1.838,2.003 2.753,3 2.682,2.917 5.782,5.667 8.572,8.509 4.266,4.345 8.567,8.655 12.876,12.957 2.212,2.208 4.427,4.414 6.639,6.622 0.824,0.822 1.592,1.852 2.474,2.595 0.998,0.839 1.999,2.299 1.999,2.299 l 37.726,40.746 z"
             style="fill:#ffffff;fill-opacity:1;fill-rule:evenodd;stroke:none"
             id="path54" /></g><g
           id="g56"
           transform="translate(22.1621,337.2405)"><path
             d="m 0,0 c 0,0 19.77,-19.831 23.024,-23.086 3.943,-3.942 7.666,-7.605 11.449,-11.387 7.574,-7.575 15.185,-15.429 22.712,-22.957 0.959,-0.959 2.04,-1.795 2.999,-2.755 3.748,-3.748 7.607,-7.606 11.448,-11.448 1.898,-1.898 4.127,-3.332 6.795,-4.591 1.321,-0.624 2.686,-1.181 4.163,-1.53 3.253,-0.77 6.806,-1.102 10.347,-1.102 3.58,0 6.538,0.994 9.304,2.082 1.241,0.487 2.684,1.127 3.858,1.896 1.168,0.77 2.419,1.481 3.366,2.327 1.054,0.941 2.008,1.824 2.938,2.755 0.994,0.993 1.644,2.025 2.449,3.245 1.468,2.222 2.653,4.759 3.612,7.836 0.901,2.89 1.695,6.341 1.163,10.039 -0.237,1.654 -0.669,3.149 -1.286,4.47 -1.709,3.663 -4.441,7.146 -9.672,7.407 -3.844,0.192 -6.018,-1.685 -7.713,-3.734 -0.957,-1.156 -1.536,-2.338 -1.837,-3.857 -0.318,-1.613 -0.175,-3.422 -0.245,-5.449 -0.125,-3.612 -1.501,-6.09 -3.918,-7.529 -2.331,-1.389 -5.842,-1.883 -9.183,-0.735 -2.668,0.916 -4.385,3.345 -6.245,5.204 -1.892,1.892 -4.01,4.009 -5.693,5.693 -0.967,0.968 -1.837,2.003 -2.753,3 -2.682,2.917 -5.782,5.667 -8.572,8.509 -4.265,4.345 -8.566,8.655 -12.876,12.957 -2.212,2.208 -4.426,4.414 -6.639,6.622 -0.824,0.822 -1.591,1.852 -2.474,2.595 -0.998,0.839 -1.999,2.299 -1.999,2.299 L 0.796,29.522 Z"
             style="fill:#ffffff;fill-opacity:1;fill-rule:evenodd;stroke:none"
             id="path58" /></g><g
           id="g60"
           transform="translate(90.4136,406.1111)"><path
             d="M 0,0 1.305,5.36 C 2.104,8.642 0.475,11.037 -2.342,11.723 -5.158,12.407 -7.68,11.021 -8.479,7.74 L -9.783,2.38 Z M 11.491,1.712 10.455,-2.543 24.24,-5.896 21.383,-17.632 -23.67,-6.673 -19.175,11.79 c 2.236,9.183 10.383,14.252 19.801,11.961 5.528,-1.345 9.437,-5 11.077,-9.855 L 30.148,18.367 26.959,5.27 Z"
             style="fill:#ffffff;fill-opacity:1;fill-rule:nonzero;stroke:none"
             id="path62" /></g><g
           id="g64"
           transform="translate(76.7339,437.3904)"><path
             d="M 0,0 3.951,11.584 47.829,-3.381 43.879,-14.964 Z"
             style="fill:#ffffff;fill-opacity:1;fill-rule:nonzero;stroke:none"
             id="path66" /></g><g
           id="g68"
           transform="translate(108.7983,438.7439)"><path
             d="m 0,0 -1.673,0.732 4.885,11.143 1.075,-0.472 c 3.25,-1.424 6.14,-0.528 7.343,2.216 1.145,2.612 -0.118,5.329 -3.403,6.77 l -27.311,11.972 4.885,11.142 27.908,-12.234 C 22.912,27.234 26.597,18.15 22.518,8.847 18.468,-0.392 9.229,-4.046 0,0"
             style="fill:#ffffff;fill-opacity:1;fill-rule:nonzero;stroke:none"
             id="path70" /></g><g
           id="g72"
           transform="translate(123.3276,469.8435)"><path
             d="m 0,0 6.322,10.736 c 2.854,-1.68 5.469,-0.417 6.867,1.957 1.284,2.18 1.284,4.985 -0.899,6.27 C 9.784,20.438 7.326,17.926 4.287,14.873 -0.365,10.258 -6.239,4.329 -15.334,9.686 c -7.866,4.633 -9.154,12.754 -3.908,21.663 5.334,9.057 13.31,11.355 21.437,6.567 L -3.951,27.479 c -2.528,1.488 -4.76,0.405 -6.031,-1.752 -1.092,-1.855 -1.291,-4.136 0.572,-5.235 2.269,-1.336 4.697,1.07 7.738,4.07 4.791,4.667 11.037,10.781 20.159,5.407 C 27.212,24.83 28.007,15.822 22.84,7.049 17.395,-2.197 8.707,-5.129 0,0"
             style="fill:#ffffff;fill-opacity:1;fill-rule:nonzero;stroke:none"
             id="path74" /></g><g
           id="g76"
           transform="translate(155.2534,567.2088)"><path
             d="m 0,0 26.868,-40.122 -6.825,-8.152 -22.557,7.915 11.862,-20.688 -6.826,-8.151 -44.358,19.233 8.326,9.944 25.053,-11.698 -13.606,25.012 2.682,3.204 27.153,-8.866 -16.029,22.509 z"
             style="fill:#ffffff;fill-opacity:1;fill-rule:nonzero;stroke:none"
             id="path78" /></g><g
           id="g80"
           transform="translate(158.8276,568.3162)"><path
             d="m 0,0 9.079,8.209 31.093,-34.394 -9.079,-8.208 z"
             style="fill:#ffffff;fill-opacity:1;fill-rule:nonzero;stroke:none"
             id="path82" /></g><g
           id="g84"
           transform="translate(187.5259,553.9793)"><path
             d="M 0,0 -1.098,1.459 8.624,8.771 9.329,7.834 c 2.134,-2.837 5.09,-3.473 7.485,-1.671 2.281,1.714 2.512,4.701 0.357,7.567 L -0.751,37.559 8.972,44.871 27.284,20.521 C 33.323,12.492 32.077,2.77 23.959,-3.337 15.897,-9.399 6.056,-8.052 0,0"
             style="fill:#ffffff;fill-opacity:1;fill-rule:nonzero;stroke:none"
             id="path86" /></g><g
           id="g88"
           transform="translate(246.1187,574.116)"><path
             d="m 0,0 -20.975,11.733 10.004,-17.875 -10.537,-5.9 -22.644,40.461 10.538,5.899 9.545,-17.054 0.565,22.715 12.22,6.842 -1.28,-26.456 25.066,-13.364 z"
             style="fill:#ffffff;fill-opacity:1;fill-rule:nonzero;stroke:none"
             id="path90" /></g><g
           id="g92"
           transform="translate(246.0923,591.3807)"><path
             d="m 0,0 11.581,4.596 c 1.222,-3.078 4.063,-3.686 6.622,-2.67 2.352,0.933 4.071,3.147 3.138,5.502 -1.074,2.704 -4.557,2.228 -8.83,1.683 C 6.005,8.322 -2.271,7.247 -6.167,17.06 c -3.369,8.487 0.596,15.688 10.205,19.502 9.77,3.876 17.477,0.795 20.959,-7.973 L 13.738,24.121 c -1.082,2.726 -3.51,3.241 -5.837,2.318 -2,-0.793 -3.558,-2.472 -2.759,-4.484 0.972,-2.448 4.365,-2.038 8.607,-1.536 6.647,0.744 15.33,1.736 19.238,-8.106 C 36.724,2.901 31.825,-4.699 22.362,-8.454 12.39,-12.412 3.729,-9.394 0,0"
             style="fill:#ffffff;fill-opacity:1;fill-rule:nonzero;stroke:none"
             id="path94" /></g><g
           id="g96"
           transform="translate(303.5132,593.6981)"><path
             d="m 0,0 c -13.01,-2.955 -25.042,5.026 -28.115,18.551 -3.092,13.599 4.31,25.994 17.32,28.949 11.203,2.545 21.658,-3.306 26,-14.375 L 3.273,30.414 c -2.521,4.304 -6.898,6.476 -11.396,5.454 -6.054,-1.375 -9.323,-7.531 -7.732,-14.532 1.585,-6.974 7.177,-11.039 13.23,-9.664 4.743,1.077 7.729,5.193 7.785,10.489 l 12.044,2.736 C 18.281,12.64 11.387,2.587 0,0.001 Z"
             style="fill:#ffffff;fill-opacity:1;fill-rule:nonzero;stroke:none"
             id="path98" /></g><g
           id="g100"
           transform="translate(357.7002,647.4774)"><path
             d="m 0,0 2.564,-46.292 -12.165,-0.674 -0.984,17.771 -13.135,-0.728 0.984,-17.77 -12.166,-0.674 -2.562,46.292 12.164,0.674 0.925,-16.702 13.135,0.728 -0.925,16.701 z"
             style="fill:#ffffff;fill-opacity:1;fill-rule:nonzero;stroke:none"
             id="path102" /></g><g
           id="g104"
           transform="translate(390.3428,609.4549)"><path
             d="m 0,0 -0.93,-11.042 -28.48,2.396 3.887,46.207 L 2.431,35.209 1.505,24.205 -14.467,25.549 -15.039,18.746 -0.69,17.539 -1.568,7.098 -15.918,8.305 -16.5,1.387 Z"
             style="fill:#ffffff;fill-opacity:1;fill-rule:nonzero;stroke:none"
             id="path106" /></g><g
           id="g108"
           transform="translate(404.4561,611.1063)"><path
             d="m 0,0 12.006,-3.333 c -0.887,-3.191 1.01,-5.392 3.663,-6.128 2.437,-0.677 5.147,0.049 5.825,2.489 0.778,2.803 -2.285,4.529 -6.019,6.675 C 9.814,3.004 2.57,7.146 5.396,17.318 7.84,26.117 15.352,29.46 25.312,26.695 35.441,23.883 39.721,16.772 37.195,7.682 l -11.671,3.24 c 0.786,2.826 -0.838,4.704 -3.251,5.373 -2.073,0.576 -4.328,0.179 -4.908,-1.906 -0.705,-2.538 2.246,-4.261 5.93,-6.423 C 29.042,4.543 36.562,0.089 33.728,-10.113 31.017,-19.872 22.52,-22.969 12.711,-20.245 2.371,-17.375 -2.705,-9.739 0,0"
             style="fill:#ffffff;fill-opacity:1;fill-rule:nonzero;stroke:none"
             id="path110" /></g><g
           id="g112"
           transform="translate(465.3643,605.8807)"><path
             d="m 0,0 c 1.305,3.026 0.303,5.996 -2.616,7.255 l -4.695,2.024 -4.456,-10.333 4.695,-2.023 C -4.152,-4.336 -1.306,-3.025 0,0 m 11.412,-4.889 c -3.85,-8.928 -13.014,-12.693 -21.571,-9.004 l -6.025,2.598 -5.07,-11.759 -11.116,4.792 18.36,42.575 17.141,-7.389 c 8.557,-3.69 12.131,-12.885 8.281,-21.813"
             style="fill:#ffffff;fill-opacity:1;fill-rule:nonzero;stroke:none"
             id="path114" /></g><g
           id="g116"
           transform="translate(493.2197,569.4627)"><path
             d="M 0,0 -5.633,-9.541 -30.242,4.992 -6.67,44.918 17.484,30.654 11.87,21.146 -1.93,29.296 -5.4,23.418 6.998,16.096 1.671,7.074 -10.727,14.396 -14.256,8.419 Z"
             style="fill:#ffffff;fill-opacity:1;fill-rule:nonzero;stroke:none"
             id="path118" /></g><g
           id="g120"
           transform="translate(516.5439,551.7654)"><path
             d="M 0,0 -6.683,-8.836 -29.482,8.398 -1.519,45.377 20.857,28.461 14.199,19.655 1.414,29.319 -2.703,23.876 8.783,15.192 2.464,6.837 -9.021,15.52 -13.208,9.983 Z"
             style="fill:#ffffff;fill-opacity:1;fill-rule:nonzero;stroke:none"
             id="path122" /></g><g
           id="g124"
           transform="translate(537.6631,532.5936)"><path
             d="M 0,0 -8.014,-8.521 -28.295,10.553 3.471,44.326 12.386,35.942 -11.366,10.689 Z"
             style="fill:#ffffff;fill-opacity:1;fill-rule:nonzero;stroke:none"
             id="path126" /></g><g
           id="g128"
           transform="translate(600.2881,510.3055)"><path
             d="m 0,0 -44.748,-18.177 -6.598,8.336 12.33,20.484 -22.668,-7.422 -6.596,8.335 27.841,39.536 8.048,-10.168 -16.543,-22.161 27.257,8.255 2.594,-3.278 -14.194,-24.79 25.296,11.133 z"
             style="fill:#ffffff;fill-opacity:1;fill-rule:nonzero;stroke:none"
             id="path130" /></g><g
           id="g132"
           transform="translate(600.6113,506.6678)"><path
             d="m 0,0 6.229,-10.534 -39.916,-23.595 -6.228,10.534 z"
             style="fill:#ffffff;fill-opacity:1;fill-rule:nonzero;stroke:none"
             id="path134" /></g><g
           id="g136"
           transform="translate(580.7686,481.4431)"><path
             d="m 0,0 1.646,0.793 5.276,-10.961 -1.058,-0.51 c -3.198,-1.539 -4.397,-4.315 -3.098,-7.015 1.237,-2.571 4.121,-3.38 7.353,-1.825 L 36.982,-6.584 42.259,-17.545 14.807,-30.762 C 5.754,-35.12 -3.538,-32.003 -7.943,-22.85 -12.318,-13.762 -9.078,-4.37 0,0"
             style="fill:#ffffff;fill-opacity:1;fill-rule:nonzero;stroke:none"
             id="path138" /></g><g
           id="g140"
           transform="translate(603.0977,416.9646)"><path
             d="m 0,0 -11.239,-3.891 -11.358,32.803 2.511,0.87 35.378,-4.944 -4.967,14.345 11.24,3.89 10.764,-31.086 -2.728,-0.944 -35.134,4.938 z"
             style="fill:#ffffff;fill-opacity:1;fill-rule:nonzero;stroke:none"
             id="path142" /></g><g
           id="g144"
           transform="translate(608.4033,389.1707)"><path
             d="M 0,0 -10.799,-2.476 -17.185,25.386 28.008,35.746 34.274,8.401 23.513,5.934 19.932,21.558 13.278,20.032 16.495,5.996 6.283,3.654 3.066,17.69 -3.699,16.14 Z"
             style="fill:#ffffff;fill-opacity:1;fill-rule:nonzero;stroke:none"
             id="path146" /></g><g
           id="g148"
           transform="translate(544.252,355.7732)"><path
             d="m 0,0 c 0,-104.891 -85.03,-189.921 -189.921,-189.921 -104.891,0 -189.921,85.03 -189.921,189.921 0,104.891 85.03,189.921 189.921,189.921 C -85.03,189.921 0,104.891 0,0"
             style="fill:#009640;fill-opacity:1;fill-rule:nonzero;stroke:none"
             id="path150" /></g><g
           id="g152"
           transform="translate(322.0908,362.0994)"><path
             d="M 0,0 C 11.959,-11.258 20.013,-24.377 24.65,-40.025 35.884,-28.07 49.063,-20.028 64.742,-15.422 52.8,-4.157 44.694,8.931 40.11,24.642 28.889,12.8 15.819,4.667 0,0 m 3.632,-111.394 c 0.998,-0.061 1.735,-0.14 2.473,-0.145 3.652,-0.02 7.306,-0.101 10.955,-0.007 3.985,0.103 7.453,-1.08 10.56,-3.565 1.598,-1.279 3.305,-2.442 5.055,-3.507 8.593,-5.224 17.998,-6.459 27.874,-5.928 21.497,1.154 43.004,2.105 64.507,3.137 3.267,0.158 6.538,0.268 9.801,0.472 2.505,0.156 4.565,2.608 4.438,5.154 -0.108,2.179 -1.315,2.995 -4.428,3.034 -2.205,0.028 -4.427,-0.07 -6.609,0.17 -2.796,0.308 -4.727,2.628 -4.721,5.292 0.006,2.688 1.931,4.914 4.811,5.143 2.568,0.203 5.165,0.019 7.748,0.072 1.053,0.022 2.146,0.065 3.145,0.357 2.601,0.762 4.071,3.278 3.694,6.063 -0.347,2.563 -2.196,4.008 -5.161,4.013 -2.587,0.004 -5.177,-0.099 -7.758,0.019 -1.257,0.058 -2.602,0.292 -3.72,0.833 -2.149,1.038 -3.071,3.41 -2.551,5.787 0.551,2.516 2.458,4.07 5.51,4.186 3.267,0.125 6.545,-0.027 9.811,0.103 1.252,0.049 2.603,0.32 3.703,0.887 2.467,1.272 3.58,4.315 2.841,7.072 -0.696,2.602 -3.071,4.531 -5.868,4.587 -3.65,0.074 -7.306,-0.051 -10.954,0.068 -2.89,0.094 -4.772,1.813 -5.267,4.479 -0.411,2.219 0.812,4.703 3.006,5.591 1.091,0.442 2.364,0.568 3.558,0.593 3.574,0.076 7.152,-0.029 10.727,0.055 3.244,0.076 5.321,2.089 5.372,5.004 0.05,2.878 -2.01,4.81 -5.354,4.995 -0.759,0.042 -1.52,0.023 -2.281,0.025 -18.26,0.031 -36.519,0.052 -54.778,0.107 -1.587,0.005 -3.228,0.022 -4.752,0.402 -5.701,1.42 -8.869,5.776 -8.977,12.17 -0.053,3.089 -0.01,6.178 -0.01,9.801 -4.503,-1.661 -8.642,-2.944 -12.58,-4.683 -10.742,-4.745 -19.945,-11.618 -27.414,-20.717 -3.364,-4.098 -7.493,-6.239 -12.897,-5.948 -3.489,0.187 -6.997,0.038 -10.497,0.034 -3.002,-0.003 -3.01,-0.007 -3.011,-3.078 -0.002,-16.51 -10e-4,-33.019 -10e-4,-49.527 z m 11.038,65.875 c -0.06,0.694 -0.034,1.073 -0.13,1.418 -3.93,14.114 -10.875,26.558 -22.061,36.05 -6.123,5.196 -9.556,10.824 -8.49,18.881 0.05,0.374 0.007,0.76 0.007,1.14 v 8.738 c -0.539,0.154 -0.752,0.269 -0.966,0.269 -17.575,0.011 -35.151,0.004 -52.726,0.035 -1.301,0.003 -1.732,-0.493 -1.721,-1.746 0.037,-3.879 -0.078,-7.762 0.013,-11.64 0.095,-4.069 -1.188,-7.521 -3.736,-10.713 -6.393,-8.011 -9.761,-17.172 -9.318,-27.478 1.041,-24.17 2.23,-48.333 3.358,-72.499 0.113,-2.432 0.174,-4.867 0.341,-7.295 0.176,-2.562 2.291,-4.331 4.976,-4.265 2.291,0.056 3.105,1.19 3.14,4.277 0.027,2.28 -0.052,4.577 0.2,6.835 0.305,2.729 2.496,4.518 5.147,4.544 2.785,0.026 4.942,-1.788 5.316,-4.623 0.168,-1.274 0.075,-2.58 0.117,-3.871 0.073,-2.275 -0.072,-4.587 0.297,-6.815 0.459,-2.777 2.938,-4.343 5.735,-4.037 2.76,0.301 4.316,2.135 4.341,5.139 0.022,2.587 -0.039,5.176 0.072,7.758 0.051,1.193 0.23,2.456 0.696,3.538 0.978,2.266 3.323,3.289 5.883,2.816 2.443,-0.451 4.104,-2.476 4.197,-5.505 0.1,-3.191 -0.048,-6.39 -0.049,-9.585 -10e-4,-4.264 2.572,-7.14 6.333,-7.13 3.792,0.012 6.367,2.862 6.389,7.067 0.018,3.423 -0.068,6.851 0.097,10.268 0.145,3.013 2.314,4.973 5.177,5.012 2.865,0.039 5.034,-1.869 5.377,-4.819 0.123,-1.053 0.089,-2.125 0.096,-3.189 0.021,-3.347 -0.088,-6.7 0.074,-10.04 0.132,-2.722 2.132,-4.491 4.757,-4.576 2.654,-0.086 4.812,1.752 5.161,4.466 0.116,0.9 0.096,1.822 0.096,2.733 0.006,18.488 -0.009,36.978 0.01,55.466 0.009,8.92 4.432,13.344 13.293,13.374 2.787,0.01 5.573,0.002 8.501,0.002 m -19.987,55.54 c 0.797,0.116 1.265,0.095 1.661,0.254 5.491,2.205 11.151,4.08 16.416,6.738 8.583,4.332 15.815,10.52 21.909,17.965 3.325,4.061 7.445,6.043 12.728,5.821 3.798,-0.16 7.61,0.018 11.414,-0.053 1.631,-0.031 2.355,0.528 2.355,2.228 -0.003,17.121 0.022,34.243 0.083,51.365 0.006,1.427 -0.536,1.836 -1.878,1.813 -3.88,-0.065 -7.764,0.04 -11.642,-0.068 -3.924,-0.109 -7.336,1.165 -10.343,3.561 -8.838,7.038 -18.866,10.167 -30.149,9.6 -23.482,-1.181 -46.968,-2.261 -70.453,-3.383 -2.432,-0.116 -4.87,-0.162 -7.294,-0.373 -2.287,-0.198 -4.25,-2.655 -4.134,-4.973 0.109,-2.185 1.439,-3.147 4.346,-3.161 2.13,-0.01 4.268,0.077 6.388,-0.079 3.062,-0.225 5.102,-2.507 5.049,-5.413 -0.053,-2.835 -2.038,-4.936 -5.052,-5.154 -1.893,-0.137 -3.803,-0.032 -5.704,-0.086 -1.514,-0.044 -3.06,0.006 -4.533,-0.287 -2.767,-0.55 -4.519,-3.02 -4.234,-5.644 0.302,-2.78 2.294,-4.465 5.311,-4.471 2.816,-0.006 5.635,0.092 8.446,-0.013 3.871,-0.143 6.268,-2.904 5.699,-6.387 -0.44,-2.694 -2.637,-4.363 -6.045,-4.442 -3.347,-0.077 -6.701,0.065 -10.044,-0.079 -5.143,-0.221 -7.92,-5.403 -5.233,-9.68 1.212,-1.929 3.007,-2.958 5.333,-2.962 3.577,-0.006 7.157,0.077 10.729,-0.055 2.809,-0.104 4.799,-1.85 5.245,-4.246 0.46,-2.469 -0.649,-4.898 -2.95,-5.837 -1.155,-0.473 -2.508,-0.602 -3.777,-0.632 -3.727,-0.089 -7.459,0.025 -11.184,-0.088 -2.772,-0.084 -4.438,-1.736 -4.709,-4.341 -0.249,-2.393 1.305,-4.68 3.767,-5.287 1.089,-0.268 2.261,-0.28 3.396,-0.281 18.719,-0.005 37.44,0.016 56.159,0.01 1.595,0 3.215,0.002 4.779,-0.261 3.823,-0.643 6.607,-2.731 7.76,-6.516 0.41,-1.345 0.351,-2.854 0.37,-4.291 0.047,-3.541 0.015,-7.084 0.015,-10.812 M 49.946,29.985 C 52.12,21.229 55.539,13.56 60.214,6.457 64.339,0.189 69.27,-5.379 75.119,-10.099 c 4.083,-3.294 5.975,-7.514 5.818,-12.758 -0.115,-3.801 0.04,-7.609 -0.051,-11.412 -0.04,-1.693 0.595,-2.285 2.255,-2.283 17.043,0.019 34.086,0.013 51.129,-0.048 1.655,-0.007 2.056,0.634 2.04,2.142 -0.042,4.031 0.081,8.064 0.05,12.096 -0.028,3.815 1.212,7.091 3.582,10.083 6.304,7.959 9.835,16.984 9.406,27.221 -1.035,24.626 -2.238,49.245 -3.372,73.867 -0.099,2.128 -0.105,4.264 -0.314,6.381 -0.225,2.281 -2.671,4.125 -5.068,3.993 -2.159,-0.118 -3.019,-1.313 -3.046,-4.186 -0.023,-2.281 0.064,-4.575 -0.143,-6.841 -0.254,-2.776 -2.551,-4.686 -5.279,-4.669 -2.805,0.017 -4.914,1.857 -5.215,4.714 -0.158,1.506 -0.053,3.038 -0.112,4.557 -0.079,2.044 0.017,4.129 -0.362,6.12 -0.511,2.676 -3.219,4.409 -5.786,4.061 -2.68,-0.362 -4.302,-2.31 -4.317,-5.214 -0.014,-2.587 0.079,-5.178 -0.04,-7.76 -0.058,-1.26 -0.271,-2.606 -0.801,-3.731 -1.051,-2.228 -3.498,-3.162 -6,-2.575 -2.301,0.54 -3.889,2.591 -3.976,5.474 -0.102,3.345 0.012,6.696 -0.045,10.042 -0.068,3.942 -2.947,6.89 -6.517,6.776 -3.6,-0.117 -6.048,-2.885 -6.071,-6.886 -0.021,-3.272 0.052,-6.545 -0.055,-9.814 -0.127,-3.866 -2.618,-6.106 -6.128,-5.681 -2.853,0.347 -4.598,2.54 -4.66,6.05 -0.07,4.03 0.069,8.067 -0.092,12.093 -0.104,2.609 -2.274,4.452 -4.852,4.523 -2.543,0.07 -4.429,-1.522 -4.842,-4.205 -0.161,-1.045 -0.143,-2.123 -0.146,-3.186 C 72.068,80.356 72.046,61.868 72.001,43.379 71.979,34.597 67.398,30.026 58.624,29.987 55.832,29.975 53.039,29.985 49.946,29.985 M -86.958,71.89 c -0.717,3.058 -1.778,6.084 -2.069,9.183 -0.403,4.288 1.305,8.062 4.272,11.171 0.862,0.903 1.019,1.584 0.532,2.778 -3.93,9.642 2.622,20.494 13.001,21.134 16.482,1.016 32.982,1.744 49.477,2.548 10.64,0.519 21.28,1.17 31.927,1.369 12.306,0.231 23.244,-3.9 33.07,-11.26 1.401,-1.048 3.394,-1.677 5.159,-1.792 3.941,-0.255 7.911,-0.017 11.867,-0.08 1.372,-0.021 2.154,0.367 2.844,1.663 4.666,8.752 15.055,11.102 23.164,5.259 1.16,-0.836 1.935,-0.945 3.178,-0.1 6.664,4.533 15.41,3.848 21.215,-1.633 0.985,-0.931 1.654,-1.105 2.91,-0.407 6.186,3.441 13.393,2.549 18.581,-2.29 1.055,-0.983 1.814,-1.106 3.146,-0.553 9.353,3.886 20.428,-2.822 21.021,-12.952 1.013,-17.321 1.816,-34.656 2.549,-51.991 0.471,-11.173 0.865,-22.356 0.913,-33.537 0.04,-9.417 -3.285,-18.004 -8.739,-25.491 -2.977,-4.086 -4.402,-8.087 -3.967,-13.011 0.226,-2.566 -0.111,-5.18 0.055,-7.755 0.056,-0.857 0.677,-2.03 1.394,-2.44 8.917,-5.102 11.222,-15.177 5.244,-23.619 -0.727,-1.027 -0.803,-1.714 -0.082,-2.801 4.638,-7.001 4.041,-15.243 -1.547,-21.418 -0.862,-0.953 -0.96,-1.604 -0.342,-2.754 3.383,-6.294 2.539,-13.321 -2.261,-18.618 -0.967,-1.067 -1.089,-1.857 -0.548,-3.171 3.687,-8.972 -2.517,-20.008 -12.106,-20.899 -9.387,-0.871 -18.837,-1.081 -28.26,-1.542 -16.494,-0.807 -32.994,-1.497 -49.482,-2.402 -14.03,-0.77 -26.598,2.948 -37.819,11.426 -1.223,0.925 -2.99,1.471 -4.54,1.554 -4.098,0.217 -8.216,0.046 -12.325,0.113 -1.279,0.021 -2.036,-0.339 -2.704,-1.532 -4.95,-8.835 -15.267,-11.12 -23.404,-5.186 -1.137,0.83 -1.871,0.739 -2.985,0.005 -6.867,-4.525 -15.223,-3.856 -21.447,1.702 -0.871,0.777 -1.464,0.918 -2.551,0.338 -6.446,-3.44 -13.462,-2.601 -18.822,2.251 -0.978,0.886 -1.765,1.177 -2.985,0.578 -7.928,-3.887 -20.711,2.325 -21.137,12.839 -0.512,12.621 -1.241,25.233 -1.834,37.852 -0.683,14.519 -1.544,29.034 -1.908,43.561 -0.312,12.461 3.9,23.562 11.432,33.472 0.881,1.159 1.413,2.84 1.486,4.31 0.203,4.1 0.02,8.217 0.117,12.325 0.035,1.483 -0.426,2.289 -1.773,3.024 -8.67,4.728 -10.977,15.198 -5.185,23.249 0.668,0.93 1.123,1.652 0.285,2.804 -4.87,6.693 -4.072,16.527 2.113,22.274 0.163,0.151 0.265,0.367 0.395,0.552 -0.175,-0.033 -0.35,-0.067 -0.525,-0.1"
             style="fill:#1d1d1b;fill-opacity:1;fill-rule:nonzero;stroke:none"
             id="path154" /></g><g
           id="g156"
           transform="translate(372.0371,392.0843)"><path
             d="m 0,0 c 3.093,0 5.886,-0.01 8.678,0.002 8.774,0.039 13.355,4.61 13.377,13.392 0.045,18.489 0.067,36.978 0.108,55.466 0.003,1.063 -0.016,2.141 0.146,3.186 0.413,2.683 2.298,4.275 4.841,4.205 2.579,-0.071 4.748,-1.914 4.853,-4.523 0.161,-4.026 0.021,-8.062 0.092,-12.093 0.061,-3.51 1.806,-5.703 4.66,-6.05 3.51,-0.425 6.001,1.815 6.128,5.681 0.106,3.269 0.034,6.543 0.055,9.814 0.023,4.001 2.471,6.77 6.071,6.886 3.57,0.115 6.449,-2.834 6.516,-6.776 0.058,-3.346 -0.056,-6.697 0.045,-10.042 0.088,-2.883 1.676,-4.934 3.977,-5.474 2.502,-0.587 4.949,0.347 6,2.575 0.53,1.125 0.743,2.471 0.801,3.731 0.119,2.582 0.026,5.173 0.04,7.76 0.014,2.905 1.636,4.852 4.317,5.215 2.566,0.347 5.274,-1.386 5.785,-4.062 0.38,-1.991 0.283,-4.076 0.363,-6.12 0.059,-1.519 -0.046,-3.051 0.112,-4.557 0.301,-2.857 2.41,-4.696 5.215,-4.714 2.728,-0.017 5.025,1.893 5.279,4.669 0.207,2.267 0.12,4.56 0.143,6.841 0.027,2.873 0.886,4.068 3.045,4.186 2.398,0.132 4.843,-1.712 5.069,-3.992 0.209,-2.118 0.215,-4.254 0.313,-6.382 1.135,-24.622 2.338,-49.241 3.372,-73.867 0.43,-10.237 -3.101,-19.262 -9.405,-27.221 -2.37,-2.992 -3.61,-6.268 -3.582,-10.083 0.03,-4.032 -0.093,-8.065 -0.051,-12.096 0.017,-1.508 -0.384,-2.149 -2.04,-2.142 -17.043,0.062 -34.086,0.067 -51.129,0.048 -1.659,-0.002 -2.295,0.59 -2.255,2.283 0.091,3.803 -0.063,7.611 0.051,11.412 0.157,5.244 -1.734,9.464 -5.817,12.758 -5.85,4.72 -10.78,10.289 -14.905,16.556 C 5.593,-16.425 2.174,-8.755 0,0"
             style="fill:#ffffff;fill-opacity:1;fill-rule:nonzero;stroke:none"
             id="path158" /></g><g
           id="g160"
           transform="translate(316.7739,372.1204)"><path
             d="m 0,0 c 0,3.728 0.032,7.271 -0.015,10.812 -0.019,1.437 0.039,2.946 -0.37,4.291 -1.154,3.785 -3.937,5.873 -7.76,6.516 -1.564,0.263 -3.184,0.261 -4.779,0.261 -18.72,0.006 -37.44,-0.015 -56.159,-0.01 -1.135,10e-4 -2.307,0.013 -3.396,0.281 -2.462,0.607 -4.016,2.894 -3.767,5.287 0.27,2.605 1.936,4.257 4.708,4.341 3.726,0.113 7.458,-0.001 11.184,0.088 1.27,0.03 2.623,0.159 3.778,0.632 2.301,0.939 3.409,3.368 2.95,5.837 -0.446,2.396 -2.436,4.142 -5.246,4.246 -3.571,0.132 -7.151,0.049 -10.728,0.055 -2.326,0.004 -4.121,1.033 -5.333,2.962 -2.687,4.277 0.09,9.459 5.233,9.68 3.343,0.144 6.697,0.002 10.044,0.079 3.408,0.079 5.605,1.748 6.045,4.442 0.569,3.483 -1.828,6.244 -5.699,6.388 -2.812,0.104 -5.63,0.006 -8.446,0.012 -3.017,0.006 -5.009,1.691 -5.311,4.471 -0.285,2.624 1.467,5.094 4.234,5.644 1.473,0.293 3.019,0.243 4.533,0.287 1.901,0.054 3.811,-0.051 5.704,0.086 3.013,0.218 4.999,2.319 5.052,5.154 0.053,2.906 -1.987,5.188 -5.049,5.413 -2.12,0.156 -4.259,0.069 -6.388,0.079 -2.907,0.014 -4.237,0.976 -4.346,3.161 -0.116,2.318 1.847,4.775 4.134,4.973 2.424,0.211 4.862,0.257 7.294,0.373 23.484,1.122 46.971,2.202 70.453,3.383 11.283,0.567 21.311,-2.562 30.149,-9.6 3.006,-2.396 6.419,-3.67 10.343,-3.561 3.878,0.108 7.762,0.003 11.642,0.068 1.342,0.023 1.884,-0.386 1.878,-1.813 -0.062,-17.122 -0.086,-34.244 -0.083,-51.365 0,-1.7 -0.724,-2.259 -2.356,-2.228 -3.803,0.071 -7.615,-0.107 -11.413,0.053 C 47.431,31 43.311,29.018 39.986,24.957 33.892,17.512 26.66,11.324 18.077,6.992 12.812,4.334 7.152,2.459 1.661,0.254 1.265,0.095 0.797,0.116 0,0"
             style="fill:#ffffff;fill-opacity:1;fill-rule:nonzero;stroke:none"
             id="path162" /></g><g
           id="g164"
           transform="translate(336.7607,316.5804)"><path
             d="m 0,0 c -2.928,0 -5.714,0.008 -8.5,-0.002 -8.862,-0.03 -13.285,-4.454 -13.293,-13.374 -0.019,-18.488 -0.005,-36.978 -0.011,-55.466 0,-0.911 0.02,-1.833 -0.096,-2.733 -0.349,-2.714 -2.507,-4.552 -5.161,-4.466 -2.625,0.085 -4.625,1.854 -4.757,4.576 -0.161,3.34 -0.053,6.693 -0.074,10.04 -0.006,1.064 0.027,2.136 -0.096,3.189 -0.343,2.95 -2.512,4.858 -5.377,4.819 -2.863,-0.039 -5.031,-1.999 -5.177,-5.012 -0.165,-3.417 -0.079,-6.845 -0.097,-10.268 -0.022,-4.205 -2.597,-7.055 -6.389,-7.067 -3.761,-0.01 -6.334,2.866 -6.333,7.13 10e-4,3.196 0.149,6.394 0.049,9.585 -0.093,3.029 -1.753,5.054 -4.197,5.505 -2.56,0.473 -4.905,-0.55 -5.883,-2.816 -0.466,-1.082 -0.645,-2.345 -0.696,-3.537 -0.111,-2.583 -0.05,-5.172 -0.072,-7.759 -0.025,-3.004 -1.581,-4.838 -4.34,-5.139 -2.798,-0.306 -5.277,1.26 -5.736,4.037 -0.368,2.228 -0.224,4.54 -0.297,6.815 -0.042,1.291 0.052,2.597 -0.117,3.871 -0.374,2.835 -2.531,4.649 -5.316,4.623 -2.651,-0.026 -4.842,-1.815 -5.147,-4.544 -0.252,-2.258 -0.173,-4.555 -0.2,-6.835 -0.035,-3.087 -0.849,-4.221 -3.14,-4.277 -2.685,-0.066 -4.799,1.703 -4.976,4.265 -0.167,2.428 -0.228,4.863 -0.341,7.295 -1.128,24.166 -2.316,48.329 -3.357,72.499 -0.444,10.306 2.924,19.467 9.317,27.478 2.548,3.193 3.831,6.644 3.736,10.713 -0.091,3.878 0.024,7.761 -0.012,11.64 -0.012,1.253 0.419,1.749 1.72,1.746 17.575,-0.031 35.151,-0.024 52.726,-0.035 0.214,0 0.427,-0.115 0.966,-0.268 v -8.739 c 0,-0.38 0.043,-0.766 -0.007,-1.14 -1.066,-8.057 2.367,-13.685 8.49,-18.881 C -11.005,27.976 -4.06,15.532 -0.13,1.418 -0.034,1.073 -0.06,0.694 0,0"
             style="fill:#ffffff;fill-opacity:1;fill-rule:nonzero;stroke:none"
             id="path166" /></g><g
           id="g168"
           transform="translate(325.7227,250.7054)"><path
             d="m 0,0 v 2.6 c 0,16.508 -0.001,33.017 0.001,49.527 0.001,3.071 0.009,3.075 3.011,3.078 3.5,0.004 7.008,0.153 10.497,-0.034 5.405,-0.291 9.533,1.85 12.897,5.948 7.469,9.099 16.672,15.972 27.414,20.717 3.938,1.739 8.077,3.022 12.58,4.683 0,-3.623 -0.043,-6.712 0.01,-9.801 0.109,-6.394 3.277,-10.75 8.977,-12.17 1.524,-0.38 3.165,-0.397 4.753,-0.402 18.258,-0.055 36.517,-0.076 54.777,-0.107 0.761,-0.002 1.522,0.017 2.281,-0.025 3.344,-0.185 5.405,-2.117 5.354,-4.994 -0.051,-2.916 -2.128,-4.929 -5.372,-5.005 -3.575,-0.084 -7.153,0.021 -10.727,-0.055 -1.194,-0.025 -2.467,-0.151 -3.557,-0.593 -2.195,-0.888 -3.417,-3.372 -3.006,-5.591 0.494,-2.666 2.377,-4.385 5.266,-4.479 3.648,-0.119 7.304,0.006 10.954,-0.068 2.797,-0.056 5.172,-1.985 5.869,-4.587 0.738,-2.757 -0.375,-5.8 -2.842,-7.072 -1.1,-0.567 -2.45,-0.838 -3.702,-0.887 -3.267,-0.13 -6.544,0.022 -9.812,-0.103 -3.052,-0.116 -4.959,-1.67 -5.51,-4.186 -0.52,-2.377 0.403,-4.749 2.551,-5.787 1.118,-0.541 2.463,-0.775 3.72,-0.833 2.581,-0.118 5.172,-0.015 7.759,-0.019 2.964,-0.005 4.813,-1.45 5.16,-4.013 0.378,-2.785 -1.093,-5.301 -3.694,-6.063 -0.999,-0.292 -2.091,-0.335 -3.145,-0.357 -2.583,-0.052 -5.18,0.131 -7.748,-0.072 -2.88,-0.229 -4.805,-2.455 -4.811,-5.143 -0.006,-2.664 1.925,-4.984 4.721,-5.292 2.183,-0.24 4.404,-0.142 6.609,-0.169 3.114,-0.04 4.32,-0.856 4.428,-3.035 0.127,-2.546 -1.933,-4.998 -4.437,-5.154 -3.264,-0.204 -6.535,-0.314 -9.802,-0.472 -21.503,-1.032 -43.01,-1.983 -64.507,-3.137 -9.876,-0.531 -19.281,0.704 -27.874,5.928 -1.75,1.065 -3.457,2.228 -5.055,3.507 -3.107,2.485 -6.575,3.668 -10.56,3.565 C 9.779,-0.246 6.125,-0.165 2.474,-0.145 1.735,-0.14 0.998,-0.061 0,0"
             style="fill:#ffffff;fill-opacity:1;fill-rule:nonzero;stroke:none"
             id="path170" /></g></g></g></g></svg>
