<?xml version="1.0" encoding="UTF-8" standalone="no"?>
<svg
   xmlns:dc="http://purl.org/dc/elements/1.1/"
   xmlns:cc="http://creativecommons.org/ns#"
   xmlns:rdf="http://www.w3.org/1999/02/22-rdf-syntax-ns#"
   xmlns:svg="http://www.w3.org/2000/svg"
   xmlns="http://www.w3.org/2000/svg"
   xmlns:sodipodi="http://sodipodi.sourceforge.net/DTD/sodipodi-0.dtd"
   xmlns:inkscape="http://www.inkscape.org/namespaces/inkscape"
   version="1.1"
   id="svg2"
   xml:space="preserve"
   width="944.88135"
   height="944.88135"
   viewBox="0 0 944.88135 944.88135"
   sodipodi:docname="Speelwijze.ai"><metadata
     id="metadata8"><rdf:RDF><cc:Work
         rdf:about=""><dc:format>image/svg+xml</dc:format><dc:type
           rdf:resource="http://purl.org/dc/dcmitype/StillImage" /></cc:Work></rdf:RDF></metadata><defs
     id="defs6"><clipPath
       clipPathUnits="userSpaceOnUse"
       id="clipPath18"><path
         d="M 0,708.661 H 708.661 V 0 H 0 Z"
         id="path16" /></clipPath></defs><sodipodi:namedview
     pagecolor="#ffffff"
     bordercolor="#666666"
     borderopacity="1"
     objecttolerance="10"
     gridtolerance="10"
     guidetolerance="10"
     inkscape:pageopacity="0"
     inkscape:pageshadow="2"
     inkscape:window-width="640"
     inkscape:window-height="480"
     id="namedview4" /><g
     id="g10"
     inkscape:groupmode="layer"
     inkscape:label="Speelwijze"
     transform="matrix(1.3333333,0,0,-1.3333333,0,944.88133)"><g
       id="g12"><g
         id="g14"
         clip-path="url(#clipPath18)"><g
           id="g20"
           transform="translate(694.4883,354.3308)"><path
             d="m 0,0 c 0,-187.95 -152.294,-340.312 -340.158,-340.312 -187.863,0 -340.157,152.362 -340.157,340.312 0,187.949 152.294,340.312 340.157,340.312 C -152.294,340.312 0,187.949 0,0"
             style="fill:#ffffff;fill-opacity:1;fill-rule:nonzero;stroke:none"
             id="path22" /></g><g
           id="g24"
           transform="translate(354.3306,692.0955)"><path
             d="m 0,0 c -186.512,0 -337.709,-151.223 -337.709,-337.765 0,-186.542 151.197,-337.765 337.709,-337.765 186.512,0 337.709,151.223 337.709,337.765 C 337.709,-151.223 186.512,0 0,0 m 350.404,-337.765 c 0,-193.537 -156.881,-350.431 -350.404,-350.431 -193.522,0 -350.403,156.894 -350.403,350.431 0,193.538 156.881,350.431 350.403,350.431 193.523,0 350.404,-156.893 350.404,-350.431"
             style="fill:#1d1d1b;fill-opacity:1;fill-rule:nonzero;stroke:none"
             id="path26" /></g><g
           id="g28"
           transform="translate(354.3306,556.9857)"><path
             d="m 0,0 c -111.86,0 -202.54,-90.731 -202.54,-202.655 0,-111.923 90.68,-202.655 202.54,-202.655 111.86,0 202.541,90.732 202.541,202.655 C 202.541,-90.731 111.86,0 0,0 m 325.034,-202.655 c 0,-179.546 -145.523,-325.098 -325.034,-325.098 -179.511,0 -325.034,145.552 -325.034,325.098 0,179.547 145.523,325.098 325.034,325.098 179.511,0 325.034,-145.551 325.034,-325.098"
             style="fill:#1d1d1b;fill-opacity:1;fill-rule:nonzero;stroke:none"
             id="path30" /></g><g
           id="g32"
           transform="translate(686.499,337.2405)"><path
             d="m 0,0 c 0,0 -19.77,-19.831 -23.023,-23.086 -3.944,-3.942 -7.667,-7.605 -11.45,-11.387 -7.574,-7.575 -15.184,-15.429 -22.712,-22.957 -0.959,-0.959 -2.04,-1.795 -2.999,-2.755 l -11.448,-11.448 c -1.898,-1.898 -4.127,-3.332 -6.795,-4.591 -1.32,-0.624 -2.685,-1.181 -4.163,-1.53 -3.253,-0.77 -6.806,-1.102 -10.347,-1.102 -3.58,0 -6.538,0.994 -9.304,2.082 -1.241,0.487 -2.684,1.127 -3.858,1.896 -1.168,0.77 -2.419,1.481 -3.366,2.327 -1.054,0.941 -2.008,1.824 -2.937,2.755 -0.994,0.993 -1.645,2.025 -2.45,3.245 -1.468,2.222 -2.653,4.759 -3.612,7.836 -0.901,2.89 -1.694,6.341 -1.163,10.039 0.237,1.654 0.669,3.149 1.286,4.47 1.709,3.663 4.441,7.146 9.672,7.407 3.845,0.192 6.019,-1.685 7.714,-3.734 0.957,-1.156 1.535,-2.338 1.836,-3.857 0.318,-1.613 0.175,-3.422 0.246,-5.449 0.124,-3.612 1.501,-6.09 3.917,-7.529 2.331,-1.389 5.842,-1.883 9.183,-0.735 2.668,0.916 4.385,3.345 6.245,5.204 1.892,1.892 4.01,4.009 5.693,5.693 0.967,0.968 1.838,2.003 2.753,3 2.682,2.917 5.782,5.667 8.572,8.509 4.266,4.345 8.567,8.655 12.876,12.957 2.212,2.208 4.427,4.414 6.639,6.622 0.824,0.822 1.592,1.852 2.474,2.595 0.998,0.839 1.999,2.299 1.999,2.299 l 37.726,40.746 z"
             style="fill:#ffffff;fill-opacity:1;fill-rule:evenodd;stroke:none"
             id="path34" /></g><g
           id="g36"
           transform="translate(22.1621,337.2405)"><path
             d="m 0,0 c 0,0 19.77,-19.831 23.024,-23.086 3.943,-3.942 7.666,-7.605 11.449,-11.387 7.574,-7.575 15.185,-15.429 22.712,-22.957 0.959,-0.959 2.04,-1.795 2.999,-2.755 3.748,-3.748 7.607,-7.606 11.448,-11.448 1.898,-1.898 4.127,-3.332 6.795,-4.591 1.321,-0.624 2.686,-1.181 4.163,-1.53 3.253,-0.77 6.806,-1.102 10.347,-1.102 3.58,0 6.538,0.994 9.304,2.082 1.241,0.487 2.684,1.127 3.858,1.896 1.168,0.77 2.419,1.481 3.366,2.327 1.054,0.941 2.008,1.824 2.938,2.755 0.994,0.993 1.644,2.025 2.449,3.245 1.468,2.222 2.653,4.759 3.612,7.836 0.901,2.89 1.695,6.341 1.163,10.039 -0.237,1.654 -0.669,3.149 -1.286,4.47 -1.709,3.663 -4.441,7.146 -9.672,7.407 -3.844,0.192 -6.018,-1.685 -7.713,-3.734 -0.957,-1.156 -1.536,-2.338 -1.837,-3.857 -0.318,-1.613 -0.175,-3.422 -0.245,-5.449 -0.125,-3.612 -1.501,-6.09 -3.918,-7.529 -2.331,-1.389 -5.842,-1.883 -9.183,-0.735 -2.668,0.916 -4.385,3.345 -6.245,5.204 -1.892,1.892 -4.01,4.009 -5.693,5.693 -0.967,0.968 -1.837,2.003 -2.753,3 -2.682,2.917 -5.782,5.667 -8.572,8.509 -4.265,4.345 -8.566,8.655 -12.876,12.957 -2.212,2.208 -4.426,4.414 -6.639,6.622 -0.824,0.822 -1.591,1.852 -2.474,2.595 -0.998,0.839 -1.999,2.299 -1.999,2.299 L 0.796,29.522 Z"
             style="fill:#ffffff;fill-opacity:1;fill-rule:evenodd;stroke:none"
             id="path38" /></g><g
           id="g40"
           transform="translate(536.8525,521.8729)"><path
             d="M 0,0 C 0.775,0.756 1.552,1.512 2.314,2.283 3.837,3.822 5.32,5.492 6.985,6.88 8.409,8.204 10.11,7.825 11.922,7.826 h 6.239 c 3.965,0 7.98,0.029 11.959,0.125 6.667,0.16 11.946,0.125 18.626,0.125 2.306,0 4.484,0.247 5.916,-0.377 1.82,-0.796 2.773,-1.662 2.643,-4.154 C 57.221,1.97 56.382,1.214 55.038,-0.104 48.14,-6.866 41.214,-14.053 34.524,-20.744 c -8.105,-8.105 -15.76,-15.635 -23.536,-23.41 -15.572,-15.572 -31.218,-31.72 -46.694,-47.194 -1.972,-1.972 -4.193,-3.691 -6.166,-5.664 -7.704,-7.705 -15.638,-15.637 -23.534,-23.534 -3.904,-3.905 -8.485,-6.851 -13.971,-9.438 -2.714,-1.284 -5.521,-2.429 -8.559,-3.148 -6.686,-1.583 -13.991,-2.265 -21.27,-2.265 -7.36,0 -13.442,2.043 -19.128,4.28 -2.552,1.002 -5.519,2.318 -7.931,3.9 -2.402,1.58 -4.973,3.044 -6.92,4.783 -2.166,1.934 -4.128,3.751 -6.041,5.664 -2.043,2.042 -3.379,4.164 -5.035,6.671 -3.017,4.568 -5.453,9.784 -7.425,16.11 -1.852,5.942 -3.483,13.036 -2.39,20.639 0.488,3.398 1.376,6.472 2.643,9.188 3.514,7.532 9.13,14.693 19.884,15.228 7.903,0.394 12.373,-3.464 15.859,-7.677 1.966,-2.377 3.156,-4.806 3.775,-7.929 0.654,-3.316 0.359,-7.035 0.505,-11.201 0.255,-7.427 3.085,-12.521 8.053,-15.48 4.792,-2.854 12.009,-3.87 18.878,-1.51 5.485,1.882 9.015,6.876 12.838,10.698 3.891,3.89 8.245,8.243 11.704,11.703 1.989,1.989 3.779,4.117 5.662,6.167 5.512,5.996 11.886,11.652 17.622,17.494 6.88,7.008 13.803,13.972 20.747,20.917 6.883,6.885 13.68,13.854 20.666,20.635 C -3.488,-3.416 -1.749,-1.703 0,0"
             style="fill:#1d1d1b;fill-opacity:1;fill-rule:evenodd;stroke:none"
             id="path42" /></g><g
           id="g44"
           transform="translate(335.7739,374.3929)"><path
             d="m 0,0 c 9.402,8.759 17.918,17.668 27.185,26.935 1.12,1.119 2.715,3.091 4.53,3.147 2.401,0.073 4.866,-3.23 6.167,-4.531 3.795,-3.795 6.823,-6.823 10.698,-10.699 1.541,-1.541 4.586,-3.702 4.657,-6.042 0.058,-1.963 -1.798,-3.559 -3.022,-4.781 -8.426,-8.427 -16.498,-16.373 -25.045,-24.92 -0.313,-0.313 -1.884,-1.807 -1.888,-1.889 -0.003,-0.113 1.498,-1.623 1.888,-2.013 8.075,-8.073 16.55,-16.55 24.919,-24.92 1.267,-1.265 3.148,-2.5 3.148,-4.404 0,-1.611 -1.609,-2.992 -2.771,-4.153 -7.092,-7.094 -13.556,-13.43 -20.765,-20.639 -1.17,-1.171 -2.124,-2.713 -4.028,-2.769 -2.195,-0.067 -4.197,2.938 -5.915,4.657 -25.362,25.363 -50.242,50.242 -75.637,75.638 -1.628,1.627 -4.658,3.892 -4.658,6.043 0,2.59 4.408,5.917 5.915,7.425 5.792,5.791 10.878,10.752 16.614,16.487 1.223,1.223 2.479,3.081 4.152,3.146 2.223,0.085 3.787,-1.772 5.161,-3.146 C -19.231,19.109 -9.199,9.129 0,0"
             style="fill:#1d1d1b;fill-opacity:1;fill-rule:evenodd;stroke:none"
             id="path46" /></g><g
           id="g48"
           transform="translate(294.9956,306.9378)"><path
             d="m 0,0 c 6.81,1.376 12.587,-0.313 16.99,-2.267 4.786,-2.125 7.885,-5.744 11.327,-9.187 4.996,-4.996 10.007,-10.006 15.355,-15.356 1.578,-1.579 4.404,-3.412 4.404,-5.79 0,-2.724 -4.155,-5.539 -5.663,-7.047 -4.411,-4.412 -8.075,-8.2 -12.586,-12.71 -1.773,-1.776 -4.574,-5.593 -6.921,-5.664 -2.507,-0.078 -4.747,3.238 -6.167,4.656 -3.755,3.757 -7.181,7.055 -10.824,10.699 -1.849,1.849 -3.46,3.938 -5.538,5.159 -4.453,2.616 -12.404,2.918 -16.865,0.378 -2.749,-1.566 -5.254,-4.879 -7.676,-7.301 -6.42,-6.418 -12.171,-12.046 -18.753,-18.626 -1.456,-1.455 -2.741,-3.018 -4.405,-3.018 -2.38,0 -4.889,3.504 -6.167,4.78 -3.857,3.858 -6.889,7.057 -10.824,11.077 -1.711,1.746 -4.708,3.589 -4.782,6.04 -0.07,2.34 2.485,4.122 3.902,5.537 9.329,9.331 18.424,18.425 27.939,27.942 2.502,2.5 6.128,4.728 4.406,10.194 -0.856,2.714 -4.657,5.701 -7.678,5.536 -2.387,-0.131 -4.085,-2.448 -5.789,-4.153 -9.46,-9.462 -19.213,-19.086 -28.947,-28.82 -1.42,-1.419 -3.038,-4.082 -5.412,-4.154 -2.569,-0.075 -4.539,3.03 -6.167,4.657 -3.834,3.835 -6.945,6.945 -10.823,10.825 -1.578,1.577 -4.656,3.409 -4.656,6.04 0,1.667 1.809,3.195 3.146,4.531 13.968,13.968 28.476,28.475 42.161,42.161 4.004,4.004 7.907,7.312 14.222,8.811 12.605,2.992 24.099,-1.589 31.339,-7.175 C -5.842,33.426 -2.954,28.118 0,20.512 2.321,14.539 2.079,5.629 0,0"
             style="fill:#1d1d1b;fill-opacity:1;fill-rule:evenodd;stroke:none"
             id="path50" /></g><g
           id="g52"
           transform="translate(458.958,280.7102)"><path
             d="m 0,0 -6.8,-7.067 c 0,0 -2.399,-6.534 5.2,-5.466 l 7.333,8 h 1.108 l 7.333,-8 c 7.6,-1.068 5.2,5.466 5.2,5.466 L 12.574,0 v 1.349 l 6.8,7.066 c 0,0 2.4,6.533 -5.2,5.467 l -7.333,-8 H 5.733 l -7.333,8 C -9.199,14.948 -6.8,8.415 -6.8,8.415 L 0,1.349 Z"
             style="fill:#1d1d1b;fill-opacity:1;fill-rule:nonzero;stroke:none"
             id="path54" /></g><g
           id="g56"
           transform="translate(194.1216,379.4134)"><path
             d="m 0,0 -6.8,-7.066 c 0,0 -2.4,-6.534 5.2,-5.467 l 7.333,8 H 6.84 l 7.334,-8 c 7.6,-1.067 5.2,5.467 5.2,5.467 L 12.574,0 v 1.349 l 6.8,7.067 c 0,0 2.4,6.533 -5.2,5.466 l -7.334,-8 H 5.733 l -7.333,8 C -9.2,14.949 -6.8,8.416 -6.8,8.416 L 0,1.349 Z"
             style="fill:#1d1d1b;fill-opacity:1;fill-rule:nonzero;stroke:none"
             id="path58" /></g><g
           id="g60"
           transform="translate(524.3262,362.3352)"><path
             d="m 0,0 c -3.63,4.447 -10.178,5.108 -14.624,1.479 -4.446,-3.631 -5.108,-10.178 -1.479,-14.625 3.631,-4.447 10.178,-5.109 14.625,-1.478 C 2.969,-10.994 3.631,-4.446 0,0 m 1.809,-18.649 c -6.67,-5.446 -16.492,-4.454 -21.937,2.216 -5.445,6.67 -4.452,16.492 2.218,21.937 6.67,5.445 16.491,4.453 21.936,-2.217 5.446,-6.67 4.453,-16.491 -2.217,-21.936"
             style="fill:#1d1d1b;fill-opacity:1;fill-rule:nonzero;stroke:none"
             id="path62" /></g><g
           id="g64"
           transform="translate(348.0439,513.2425)"><path
             d="m 0,0 -6.8,-7.067 c 0,0 -2.4,-6.533 5.2,-5.467 l 7.333,8 H 6.84 l 7.334,-8 c 7.599,-1.066 5.2,5.467 5.2,5.467 L 12.573,0 v 1.349 l 6.801,7.067 c 0,0 2.399,6.533 -5.2,5.466 l -7.334,-8 H 5.733 l -7.333,8 C -9.2,14.949 -6.8,8.416 -6.8,8.416 L 0,1.349 Z"
             style="fill:#1d1d1b;fill-opacity:1;fill-rule:nonzero;stroke:none"
             id="path66" /></g><g
           id="g68"
           transform="translate(303.6807,457.5623)"><path
             d="m 0,0 -6.8,-7.067 c 0,0 -2.4,-6.533 5.2,-5.466 l 7.333,8 H 6.84 l 7.334,-8 c 7.6,-1.067 5.2,5.466 5.2,5.466 L 12.574,0 v 1.349 l 6.8,7.067 c 0,0 2.4,6.533 -5.2,5.466 l -7.334,-8 H 5.733 l -7.333,8 C -9.2,14.949 -6.8,8.416 -6.8,8.416 L 0,1.349 Z"
             style="fill:#1d1d1b;fill-opacity:1;fill-rule:nonzero;stroke:none"
             id="path70" /></g><g
           id="g72"
           transform="translate(248.7993,469.3787)"><path
             d="m 0,0 c -3.63,4.447 -10.178,5.108 -14.625,1.479 -4.446,-3.631 -5.108,-10.178 -1.478,-14.625 3.631,-4.447 10.178,-5.108 14.625,-1.479 C 2.968,-10.994 3.63,-4.447 0,0 m 1.809,-18.65 c -6.671,-5.445 -16.492,-4.453 -21.937,2.217 -5.446,6.67 -4.453,16.492 2.217,21.937 6.67,5.445 16.492,4.453 21.937,-2.217 5.445,-6.67 4.453,-16.492 -2.217,-21.937"
             style="fill:#1d1d1b;fill-opacity:1;fill-rule:nonzero;stroke:none"
             id="path74" /></g><g
           id="g76"
           transform="translate(382.4043,209.9153)"><path
             d="m 0,0 c -3.63,4.446 -10.178,5.108 -14.624,1.479 -4.446,-3.631 -5.108,-10.178 -1.479,-14.625 3.63,-4.447 10.178,-5.109 14.624,-1.478 C 2.969,-10.994 3.631,-4.446 0,0 m 1.809,-18.65 c -6.67,-5.446 -16.492,-4.453 -21.937,2.217 -5.445,6.67 -4.453,16.492 2.217,21.937 6.67,5.445 16.492,4.452 21.937,-2.218 5.445,-6.67 4.453,-16.491 -2.217,-21.936"
             style="fill:#1d1d1b;fill-opacity:1;fill-rule:nonzero;stroke:none"
             id="path78" /></g><g
           id="g80"
           transform="translate(290.2344,201.5569)"><path
             d="m 0,0 -6.8,-7.066 c 0,0 -2.4,-6.534 5.2,-5.467 l 7.333,8 H 6.84 l 7.334,-8 c 7.599,-1.067 5.2,5.467 5.2,5.467 L 12.574,0 v 1.35 l 6.8,7.066 c 0,0 2.399,6.533 -5.2,5.467 l -7.334,-8 H 5.733 l -7.333,8 C -9.2,14.949 -6.8,8.416 -6.8,8.416 L 0,1.35 Z"
             style="fill:#1d1d1b;fill-opacity:1;fill-rule:nonzero;stroke:none"
             id="path82" /></g><g
           id="g84"
           transform="translate(85.458,377.989)"><path
             d="m 0,0 0.785,5.461 c 0.48,3.343 -1.371,5.572 -4.241,5.984 -2.868,0.411 -5.245,-1.211 -5.725,-4.552 L -9.966,1.431 Z m 11.274,2.806 -0.623,-4.335 14.043,-2.017 -1.718,-11.956 -45.897,6.591 2.704,18.809 c 1.344,9.356 8.968,15.183 18.562,13.805 5.633,-0.808 9.874,-4.072 11.972,-8.749 L 28.248,21.174 26.33,7.83 Z"
             style="fill:#ffffff;fill-opacity:1;fill-rule:nonzero;stroke:none"
             id="path86" /></g><g
           id="g88"
           transform="translate(68.8247,407.782)"><path
             d="M 0,0 2.812,11.911 47.939,1.262 45.128,-10.649 Z"
             style="fill:#ffffff;fill-opacity:1;fill-rule:nonzero;stroke:none"
             id="path90" /></g><g
           id="g92"
           transform="translate(100.6235,412.2322)"><path
             d="m 0,0 -1.736,0.567 3.777,11.566 1.115,-0.364 c 3.373,-1.102 6.161,0.072 7.091,2.921 0.886,2.712 -0.636,5.292 -4.045,6.406 l -28.341,9.253 3.776,11.565 28.961,-9.455 C 20.148,29.341 24.699,20.659 21.545,11.002 18.415,1.412 9.577,-3.126 0,0"
             style="fill:#ffffff;fill-opacity:1;fill-rule:nonzero;stroke:none"
             id="path94" /></g><g
           id="g96"
           transform="translate(112.0435,444.5847)"><path
             d="m 0,0 5.233,11.308 c 3.006,-1.392 5.483,0.124 6.64,2.623 1.063,2.296 0.786,5.087 -1.513,6.15 -2.639,1.223 -4.838,-1.52 -7.561,-4.858 -4.173,-5.051 -9.434,-11.53 -19.012,-7.094 -8.286,3.837 -10.368,11.791 -6.026,21.173 4.415,9.539 12.125,12.611 20.685,8.647 L -6.642,26.957 c -2.661,1.231 -4.776,-0.066 -5.828,-2.338 -0.904,-1.953 -0.878,-4.243 1.086,-5.152 2.39,-1.107 4.568,1.526 7.298,4.811 4.308,5.117 9.92,11.816 19.528,7.367 C 24.631,27.39 26.311,18.504 22.034,9.265 17.527,-0.474 9.171,-4.247 0,0"
             style="fill:#ffffff;fill-opacity:1;fill-rule:nonzero;stroke:none"
             id="path98" /></g><g
           id="g100"
           transform="translate(134.1074,544.6297)"><path
             d="m 0,0 30.761,-37.233 -5.973,-8.794 -23.239,5.618 13.879,-19.398 -5.973,-8.794 -46.068,14.699 7.287,10.727 26.102,-9.132 -16.049,23.525 2.348,3.457 27.907,-6.105 -18.208,20.792 z"
             style="fill:#ffffff;fill-opacity:1;fill-rule:nonzero;stroke:none"
             id="path102" /></g><g
           id="g104"
           transform="translate(137.5044,546.0574)"><path
             d="m 0,0 8.19,9.094 34.447,-31.03 -8.19,-9.093 z"
             style="fill:#ffffff;fill-opacity:1;fill-rule:nonzero;stroke:none"
             id="path106" /></g><g
           id="g108"
           transform="translate(167.5068,534.7088)"><path
             d="M 0,0 -1.244,1.337 7.667,9.621 8.466,8.762 c 2.416,-2.599 5.424,-2.924 7.618,-0.883 2.09,1.942 2.01,4.937 -0.433,7.564 L -4.653,37.279 4.257,45.563 25.005,23.25 C 31.848,15.892 31.619,6.091 24.179,-0.827 16.792,-7.695 6.861,-7.379 0,0"
             style="fill:#ffffff;fill-opacity:1;fill-rule:nonzero;stroke:none"
             id="path110" /></g><g
           id="g112"
           transform="translate(223.6636,560.8836)"><path
             d="m 0,0 -22.107,9.43 11.854,-16.705 -9.849,-6.989 -26.831,37.811 9.849,6.989 11.31,-15.938 -1.86,22.643 11.421,8.105 1.548,-26.439 26.351,-10.614 z"
             style="fill:#ffffff;fill-opacity:1;fill-rule:nonzero;stroke:none"
             id="path114" /></g><g
           id="g116"
           transform="translate(221.7944,578.0457)"><path
             d="m 0,0 11.01,5.831 c 1.55,-2.927 4.44,-3.221 6.874,-1.932 2.235,1.185 3.704,3.574 2.518,5.812 -1.361,2.569 -4.772,1.718 -8.96,0.71 -6.38,-1.494 -14.489,-3.465 -19.43,5.862 -4.274,8.07 -1.117,15.66 8.018,20.498 9.287,4.92 17.285,2.698 21.7,-5.638 L 11.027,25.474 C 9.654,28.065 7.185,28.313 4.973,27.142 3.071,26.134 1.706,24.296 2.719,22.384 3.952,20.057 7.279,20.833 11.441,21.795 17.967,23.26 26.49,25.193 31.446,15.837 36.187,6.889 32.146,-1.2 23.149,-5.965 13.667,-10.986 4.731,-8.931 0,0"
             style="fill:#ffffff;fill-opacity:1;fill-rule:nonzero;stroke:none"
             id="path118" /></g><g
           id="g120"
           transform="translate(278.6396,586.657)"><path
             d="m 0,0 c -12.604,-4.379 -25.447,2.218 -30,15.317 -4.578,13.173 1.405,26.311 14.01,30.69 10.852,3.77 21.891,-0.884 27.433,-11.403 L -0.116,30.588 c -2.982,3.997 -7.573,5.67 -11.932,4.155 -5.864,-2.037 -8.431,-8.517 -6.075,-15.298 2.348,-6.755 8.357,-10.174 14.221,-8.137 4.594,1.596 7.106,6.017 6.575,11.287 l 11.668,4.053 C 16.769,14.587 11.03,3.833 0,0 Z"
             style="fill:#ffffff;fill-opacity:1;fill-rule:nonzero;stroke:none"
             id="path122" /></g><g
           id="g124"
           transform="translate(326.5386,646.1111)"><path
             d="m 0,0 7.669,-45.727 -12.017,-2.015 -2.944,17.554 -12.975,-2.177 2.945,-17.553 -12.017,-2.016 -7.669,45.726 12.016,2.016 2.767,-16.497 12.975,2.175 -2.767,16.498 z"
             style="fill:#ffffff;fill-opacity:1;fill-rule:nonzero;stroke:none"
             id="path126" /></g><g
           id="g128"
           transform="translate(363.1797,611.8924)"><path
             d="m 0,0 0.287,-11.075 -28.571,-0.745 -1.207,46.345 28.042,0.732 0.288,-11.037 -16.022,-0.418 0.178,-6.823 14.394,0.375 0.272,-10.472 -14.393,-0.376 0.18,-6.938 z"
             style="fill:#ffffff;fill-opacity:1;fill-rule:nonzero;stroke:none"
             id="path130" /></g><g
           id="g132"
           transform="translate(421.584,639.4402)"><path
             d="m 0,0 -7.979,-45.673 -12.001,2.099 3.062,17.533 -12.959,2.267 -3.062,-17.534 -12.002,2.099 7.978,45.673 12.002,-2.1 -2.879,-16.477 12.959,-2.267 2.879,16.479 z"
             style="fill:#ffffff;fill-opacity:1;fill-rule:nonzero;stroke:none"
             id="path134" /></g><g
           id="g136"
           transform="translate(438.1953,596.5652)"><path
             d="M 0,0 C 6.273,-2.271 12.589,0.986 15.059,7.808 17.529,14.629 14.764,21.174 8.49,23.445 2.217,25.716 -4.181,22.448 -6.639,15.663 -9.096,8.877 -6.274,2.272 0,0.001 Z M -4.047,-11.174 C -17.298,-6.377 -23.286,6.621 -18.461,19.943 -13.637,33.266 -0.713,39.418 12.537,34.621 25.754,29.836 31.721,16.887 26.883,3.528 22.045,-9.829 9.17,-15.957 -4.047,-11.173 Z"
             style="fill:#ffffff;fill-opacity:1;fill-rule:nonzero;stroke:none"
             id="path138" /></g><g
           id="g140"
           transform="translate(464.8867,599.9676)"><path
             d="M 0,0 C 6.988,12.067 20.848,16.112 32.395,9.425 42.338,3.667 46.02,-7.732 41.672,-18.798 l -10.59,6.133 c 1.08,4.869 -0.651,9.438 -4.645,11.751 -5.372,3.11 -11.957,0.825 -15.554,-5.387 -3.583,-6.188 -2.25,-12.971 3.123,-16.083 4.209,-2.438 9.198,-1.454 12.843,2.389 l 10.69,-6.191 C 29.988,-35.899 18.094,-38.573 7.988,-32.722 -3.559,-26.034 -6.949,-12 0,0"
             style="fill:#ffffff;fill-opacity:1;fill-rule:nonzero;stroke:none"
             id="path142" /></g><g
           id="g144"
           transform="translate(509.9199,542.4285)"><path
             d="M 0,0 3.066,23.836 -9.787,7.891 -19.189,15.471 9.906,51.563 19.309,43.982 7.043,28.769 28.328,36.71 39.231,27.919 14.209,19.248 11.155,-8.994 Z"
             style="fill:#ffffff;fill-opacity:1;fill-rule:nonzero;stroke:none"
             id="path146" /></g><g
           id="g148"
           transform="translate(545.4434,523.0262)"><path
             d="M 0,0 -7.967,-7.7 -27.826,12.849 5.51,45.074 25.002,24.905 17.062,17.231 5.926,28.755 1.018,24.01 11.023,13.657 3.49,6.376 -6.515,16.729 -11.506,11.904 Z"
             style="fill:#ffffff;fill-opacity:1;fill-rule:nonzero;stroke:none"
             id="path150" /></g><g
           id="g152"
           transform="translate(565.9629,507.7898)"><path
             d="M 0,0 -14.501,-10.892 -21.889,-1.055 -7.361,9.856 6.051,38.953 14.096,28.242 5.512,11.772 23.723,15.425 31.768,4.714 Z"
             style="fill:#ffffff;fill-opacity:1;fill-rule:nonzero;stroke:none"
             id="path154" /></g><g
           id="g156"
           transform="translate(575.9844,503.5594)"><path
             d="m 0,0 c 12.164,6.82 26.148,3.237 32.674,-8.401 5.617,-10.021 2.973,-21.705 -6.408,-29.01 l -5.985,10.674 c 3.412,3.638 4.252,8.452 1.996,12.476 -3.035,5.414 -9.866,6.804 -16.128,3.293 -6.237,-3.498 -8.548,-10.013 -5.512,-15.428 2.378,-4.243 7.172,-5.939 12.265,-4.491 l 6.041,-10.774 C 7.495,-46.17 -4.1,-42.409 -9.811,-32.224 -16.336,-20.585 -12.096,-6.783 0,0"
             style="fill:#ffffff;fill-opacity:1;fill-rule:nonzero;stroke:none"
             id="path158" /></g><g
           id="g160"
           transform="translate(597.9932,432.408)"><path
             d="M 0,0 -10.841,-4.392 -21.294,21.41 21.677,38.82 26.271,27.479 -5.858,14.46 Z"
             style="fill:#ffffff;fill-opacity:1;fill-rule:nonzero;stroke:none"
             id="path162" /></g><g
           id="g164"
           transform="translate(603.5078,436.1892)"><path
             d="M 0,0 27.402,7.564 30.686,-4.333 3.514,-11.834 c -4.368,-1.205 -6.456,-4.646 -5.383,-8.533 1.072,-3.887 4.63,-5.77 8.998,-4.564 l 27.172,7.501 3.284,-11.897 -27.401,-7.565 c -10.996,-3.035 -20.538,2.59 -23.51,13.362 C -16.301,-12.758 -10.995,-3.035 0,0"
             style="fill:#ffffff;fill-opacity:1;fill-rule:nonzero;stroke:none"
             id="path166" /></g><g
           id="g168"
           transform="translate(634.7969,381.6258)"><path
             d="m 0,0 -0.844,6.045 -7.994,-1.116 0.843,-6.045 c 0.349,-2.501 2.179,-3.82 4.561,-3.487 C -1.051,-4.27 0.349,-2.501 0,0 m -20.828,-7.735 c 2.439,0.34 3.92,2.273 3.558,4.864 l -0.906,6.498 -8.349,-1.166 0.906,-6.498 c 0.361,-2.59 2.314,-4.044 4.791,-3.698 m 10.387,-3.824 c -1.481,-4.378 -5.231,-7.518 -10.242,-8.217 -7.44,-1.038 -13.922,4.246 -15.04,12.26 l -2.791,20.013 45.918,6.408 2.736,-19.611 c 1.073,-7.699 -3.111,-14.01 -9.895,-14.957 -4.102,-0.572 -8.097,1.085 -10.685,4.105 z"
             style="fill:#ffffff;fill-opacity:1;fill-rule:nonzero;stroke:none"
             id="path170" /></g><g
           id="g172"
           transform="translate(449.7998,504.3787)"><path
             d="m 0,0 c -3.631,4.447 -10.178,5.108 -14.625,1.479 -4.446,-3.631 -5.108,-10.178 -1.479,-14.625 3.631,-4.447 10.179,-5.108 14.625,-1.479 C 2.968,-10.994 3.63,-4.447 0,0 m 1.808,-18.65 c -6.67,-5.445 -16.492,-4.453 -21.937,2.217 -5.445,6.67 -4.452,16.492 2.218,21.937 6.67,5.445 16.491,4.453 21.936,-2.217 5.446,-6.67 4.453,-16.492 -2.217,-21.937"
             style="fill:#1d1d1b;fill-opacity:1;fill-rule:nonzero;stroke:none"
             id="path174" /></g><g
           id="g176"
           transform="translate(480.7031,345.0247)"><path
             d="m 0,0 -18.68,-20.145 c 0,0 -13.819,-6.77 -6.842,6.345 l 4.953,5.342 -0.887,0.822 -0.639,1.512 -13.684,-4.036 c -29.689,-2.697 -37.796,-21.768 -37.796,-21.768 -15.637,-32.303 16.5,-48.612 16.5,-48.612 1.79,-0.943 3.5,-2.048 5.07,-3.325 9.629,-7.832 11.774,-20.571 10.381,-32.297 -0.47,-3.956 -1.406,-7.761 -2.462,-11.591 -1.934,-7.021 -8.046,-11.112 -14.931,-13.001 -5.831,-1.6 -11.984,-1.552 -18.017,-1.141 -2.858,0.193 -6.072,0.663 -7.746,2.988 -0.322,0.447 -0.575,0.97 -0.569,1.521 0.017,1.491 1.743,2.273 3.182,2.655 3.551,0.943 7.161,1.663 10.802,2.153 3.231,0.435 6.507,0.694 9.636,1.609 18.806,5.501 10.785,33.68 -2.858,41.032 -10e-4,0 -3.078,1.66 -13.592,11.752 -10.514,10.094 -15.984,24.173 -4.656,48.756 11.328,24.583 32.578,26.683 32.578,26.683 l 27.81,6.059 0.779,1.333 0.728,1.246 -5.567,2.589 c -8.687,9.018 5.611,9.603 5.611,9.603 L 0.095,8.317 C 0.095,8.317 8.005,5.896 0,0"
             style="fill:#1d1d1b;fill-opacity:1;fill-rule:nonzero;stroke:none"
             id="path178" /></g><g
           id="g180"
           transform="translate(121.1758,203.3421)"><path
             d="m 0,0 10.701,-13.451 c -3.58,-2.848 -3.248,-6.843 -0.883,-9.816 2.173,-2.731 5.786,-4.115 8.524,-1.937 3.144,2.501 1.124,6.91 -1.303,12.336 -3.642,8.273 -8.37,18.771 3.04,27.848 9.869,7.853 20.97,5.503 29.849,-5.657 9.026,-11.346 8.035,-22.761 -2.162,-30.873 L 37.364,-8.474 c 3.169,2.522 2.881,5.936 0.731,8.638 -1.848,2.323 -4.689,3.707 -7.028,1.846 -2.846,-2.265 -0.95,-6.581 1.409,-11.982 3.639,-8.479 8.42,-19.549 -3.024,-28.654 C 18.507,-47.334 6.506,-43.911 -2.237,-32.921 -11.452,-21.337 -10.924,-8.691 0,0"
             style="fill:#ffffff;fill-opacity:1;fill-rule:nonzero;stroke:none"
             id="path182" /></g><g
           id="g184"
           transform="translate(197.0977,151.8499)"><path
             d="m 0,0 c 2.933,3.482 2.796,7.807 -0.558,10.632 l -5.393,4.544 -10.013,-11.888 5.393,-4.544 C -7.217,-4.081 -2.933,-3.481 0,0 M 13.124,-11.005 C 4.471,-21.276 -9.139,-22.608 -18.969,-14.326 l -6.921,5.831 -11.396,-13.529 -12.77,10.758 41.261,48.985 19.691,-16.59 c 9.831,-8.282 10.88,-21.861 2.228,-32.134"
             style="fill:#ffffff;fill-opacity:1;fill-rule:nonzero;stroke:none"
             id="path186" /></g><g
           id="g188"
           transform="translate(239.0283,95.7395)"><path
             d="M 0,0 -7.374,-13.41 -41.927,5.587 -11.07,61.706 22.843,43.061 15.495,29.696 -3.881,40.35 -8.424,32.087 8.983,22.517 2.01,9.836 l -17.407,9.569 -4.62,-8.4 z"
             style="fill:#ffffff;fill-opacity:1;fill-rule:nonzero;stroke:none"
             id="path190" /></g><g
           id="g192"
           transform="translate(289.8633,78.1565)"><path
             d="M 0,0 -4.676,-14.571 -42.217,-2.524 -22.649,58.454 14.196,46.631 9.536,32.109 -11.515,38.864 -14.396,29.887 4.517,23.817 0.095,10.038 -18.818,16.107 -21.747,6.979 Z"
             style="fill:#ffffff;fill-opacity:1;fill-rule:nonzero;stroke:none"
             id="path194" /></g><g
           id="g196"
           transform="translate(342.1357,71.6458)"><path
             d="m 0,0 -1.951,-16.039 -38.126,4.633 7.733,63.574 16.76,-2.036 -5.783,-47.536 z"
             style="fill:#ffffff;fill-opacity:1;fill-rule:nonzero;stroke:none"
             id="path198" /></g><g
           id="g200"
           transform="translate(427.8066,127.6311)"><path
             d="m 0,0 -10.372,-65.9 -14.55,-1.863 -15.432,29.192 -7.366,-32.11 -14.55,-1.862 -26.912,61.127 17.75,2.272 14.417,-35.371 9.648,38.132 5.72,0.733 19.197,-34.469 4.848,37.866 z"
             style="fill:#ffffff;fill-opacity:1;fill-rule:nonzero;stroke:none"
             id="path202" /></g><g
           id="g204"
           transform="translate(427.5811,132.0345)"><path
             d="M 0,0 15.77,6.031 38.648,-53.783 22.879,-59.814 Z"
             style="fill:#ffffff;fill-opacity:1;fill-rule:nonzero;stroke:none"
             id="path206" /></g><g
           id="g208"
           transform="translate(468.1289,101.9153)"><path
             d="m 0,0 -1.266,2.182 14.518,8.423 0.814,-1.402 c 2.46,-4.24 6.409,-5.599 9.985,-3.524 3.404,1.975 4.21,6.032 1.723,10.317 l -20.668,35.622 14.518,8.423 21.12,-36.4 C 47.709,11.637 44.413,-1.488 32.29,-8.522 20.253,-15.507 6.984,-12.038 0,0"
             style="fill:#ffffff;fill-opacity:1;fill-rule:nonzero;stroke:none"
             id="path210" /></g><g
           id="g212"
           transform="translate(557.417,159.3841)"><path
             d="m 0,0 10.883,-12.305 -35.864,-31.72 -2.432,2.749 -12.326,47.757 -15.684,-13.871 -10.884,12.306 33.988,30.062 2.641,-2.987 12.204,-47.445 z"
             style="fill:#ffffff;fill-opacity:1;fill-rule:nonzero;stroke:none"
             id="path214" /></g><g
           id="g216"
           transform="translate(590.792,199.1185)"><path
             d="m 0,0 12.045,-9.44 -24.324,-31.038 -50.405,39.51 23.873,30.461 12.003,-9.408 -13.639,-17.404 7.421,-5.818 12.254,15.637 11.39,-8.929 -12.254,-15.635 7.545,-5.915 z"
             style="fill:#ffffff;fill-opacity:1;fill-rule:nonzero;stroke:none"
             id="path218" /></g></g></g></g></svg>
