<?xml version="1.0" encoding="UTF-8" standalone="no"?>
<svg
   xmlns:dc="http://purl.org/dc/elements/1.1/"
   xmlns:cc="http://creativecommons.org/ns#"
   xmlns:rdf="http://www.w3.org/1999/02/22-rdf-syntax-ns#"
   xmlns:svg="http://www.w3.org/2000/svg"
   xmlns="http://www.w3.org/2000/svg"
   xmlns:sodipodi="http://sodipodi.sourceforge.net/DTD/sodipodi-0.dtd"
   xmlns:inkscape="http://www.inkscape.org/namespaces/inkscape"
   version="1.1"
   id="svg2"
   xml:space="preserve"
   width="944.88135"
   height="944.88135"
   viewBox="0 0 944.88135 944.88135"
   sodipodi:docname="Sterk.ai"><metadata
     id="metadata8"><rdf:RDF><cc:Work
         rdf:about=""><dc:format>image/svg+xml</dc:format><dc:type
           rdf:resource="http://purl.org/dc/dcmitype/StillImage" /></cc:Work></rdf:RDF></metadata><defs
     id="defs6"><clipPath
       clipPathUnits="userSpaceOnUse"
       id="clipPath18"><path
         d="M 0,708.661 H 708.661 V 0 H 0 Z"
         id="path16" /></clipPath></defs><sodipodi:namedview
     pagecolor="#ffffff"
     bordercolor="#666666"
     borderopacity="1"
     objecttolerance="10"
     gridtolerance="10"
     guidetolerance="10"
     inkscape:pageopacity="0"
     inkscape:pageshadow="2"
     inkscape:window-width="640"
     inkscape:window-height="480"
     id="namedview4" /><g
     id="g10"
     inkscape:groupmode="layer"
     inkscape:label="Sterk"
     transform="matrix(1.3333333,0,0,-1.3333333,0,944.88133)"><g
       id="g12"><g
         id="g14"
         clip-path="url(#clipPath18)"><g
           id="g20"
           transform="translate(694.4883,354.3308)"><path
             d="m 0,0 c 0,-187.95 -152.294,-340.312 -340.158,-340.312 -187.863,0 -340.157,152.362 -340.157,340.312 0,187.949 152.294,340.312 340.157,340.312 C -152.294,340.312 0,187.949 0,0"
             style="fill:#ffffff;fill-opacity:1;fill-rule:nonzero;stroke:none"
             id="path22" /></g><g
           id="g24"
           transform="translate(354.3306,692.0955)"><path
             d="m 0,0 c -186.512,0 -337.709,-151.223 -337.709,-337.765 0,-186.542 151.197,-337.765 337.709,-337.765 186.512,0 337.709,151.223 337.709,337.765 C 337.709,-151.223 186.512,0 0,0 m 350.404,-337.765 c 0,-193.537 -156.881,-350.431 -350.404,-350.431 -193.522,0 -350.403,156.894 -350.403,350.431 0,193.538 156.881,350.431 350.403,350.431 193.523,0 350.404,-156.893 350.404,-350.431"
             style="fill:#1d1d1b;fill-opacity:1;fill-rule:nonzero;stroke:none"
             id="path26" /></g><g
           id="g28"
           transform="translate(354.3306,556.9857)"><path
             d="m 0,0 c -111.86,0 -202.54,-90.731 -202.54,-202.655 0,-111.923 90.68,-202.655 202.54,-202.655 111.86,0 202.541,90.732 202.541,202.655 C 202.541,-90.731 111.86,0 0,0 m 325.034,-202.655 c 0,-179.546 -145.523,-325.098 -325.034,-325.098 -179.511,0 -325.034,145.552 -325.034,325.098 0,179.547 145.523,325.098 325.034,325.098 179.511,0 325.034,-145.551 325.034,-325.098"
             style="fill:#1d1d1b;fill-opacity:1;fill-rule:nonzero;stroke:none"
             id="path30" /></g><g
           id="g32"
           transform="translate(235.1816,103.0296)"><path
             d="m 0,0 14.244,-5.641 c -1.639,-4.136 0.325,-7.245 3.473,-8.492 2.892,-1.144 6.358,-0.46 7.611,2.704 1.44,3.634 -2.045,6.232 -6.285,9.457 -6.42,4.951 -14.65,11.177 -9.428,24.365 4.518,11.406 14.358,15.069 26.175,10.39 12.015,-4.758 16.081,-14.615 11.414,-26.4 l -13.847,5.482 c 1.452,3.664 -0.23,6.317 -3.092,7.45 -2.46,0.974 -5.31,0.679 -6.381,-2.024 C 22.58,14 25.927,11.416 30.103,8.177 36.607,3.057 45.125,-3.611 39.885,-16.839 34.875,-29.489 23.863,-32.726 12.225,-28.117 -0.041,-23.26 -5,-12.626 0,0"
             style="fill:#ffffff;fill-opacity:1;fill-rule:nonzero;stroke:none"
             id="path34" /></g><g
           id="g36"
           transform="translate(330.123,103.0022)"><path
             d="m 0,0 -14.374,2.793 -8.939,-45.981 -14.642,2.846 8.939,45.982 -14.375,2.794 2.95,15.169 43.39,-8.435 z"
             style="fill:#ffffff;fill-opacity:1;fill-rule:nonzero;stroke:none"
             id="path38" /></g><g
           id="g40"
           transform="translate(369.9746,70.5149)"><path
             d="m 0,0 -0.281,-14.886 -35.139,0.662 1.176,62.293 34.486,-0.65 -0.279,-14.834 -19.704,0.371 -0.173,-9.172 L -2.212,23.452 -2.478,9.376 -20.18,9.708 -20.355,0.384 Z"
             style="fill:#ffffff;fill-opacity:1;fill-rule:nonzero;stroke:none"
             id="path42" /></g><g
           id="g44"
           transform="translate(394.6992,92.6311)"><path
             d="m 0,0 6.67,1.234 c 4.083,0.756 5.907,4.032 5.197,7.862 -0.709,3.828 -3.577,6.196 -7.66,5.44 l -6.67,-1.235 z M 7.928,-13.236 2.632,-14.217 6.103,-32.959 -8.502,-35.664 -19.846,25.593 3.131,29.848 C 14.56,31.963 24.486,24.624 26.857,11.818 28.25,4.302 26.213,-2.446 21.647,-7.039 l 14.652,-20.328 -16.301,-3.02 z"
             style="fill:#ffffff;fill-opacity:1;fill-rule:nonzero;stroke:none"
             id="path46" /></g><g
           id="g48"
           transform="translate(472.9727,81.3421)"><path
             d="m 0,0 -24.756,19.592 10.453,-25.464 -13.74,-5.642 -23.658,57.637 13.739,5.641 9.973,-24.295 3.21,29.707 15.931,6.542 -4.509,-34.476 29.658,-22.549 z"
             style="fill:#ffffff;fill-opacity:1;fill-rule:nonzero;stroke:none"
             id="path50" /></g><g
           id="g52"
           transform="translate(686.499,337.2405)"><path
             d="m 0,0 c 0,0 -19.77,-19.831 -23.023,-23.086 -3.944,-3.942 -7.667,-7.605 -11.45,-11.387 -7.574,-7.575 -15.184,-15.429 -22.712,-22.957 -0.959,-0.959 -2.04,-1.795 -2.999,-2.755 l -11.448,-11.448 c -1.898,-1.898 -4.127,-3.332 -6.795,-4.591 -1.32,-0.624 -2.685,-1.181 -4.163,-1.53 -3.253,-0.77 -6.806,-1.102 -10.347,-1.102 -3.58,0 -6.538,0.994 -9.304,2.082 -1.241,0.487 -2.684,1.127 -3.858,1.896 -1.168,0.77 -2.419,1.481 -3.366,2.327 -1.054,0.941 -2.008,1.824 -2.937,2.755 -0.994,0.993 -1.645,2.025 -2.45,3.245 -1.468,2.222 -2.653,4.759 -3.612,7.836 -0.901,2.89 -1.694,6.341 -1.163,10.039 0.237,1.654 0.669,3.149 1.286,4.47 1.709,3.663 4.441,7.146 9.672,7.407 3.845,0.192 6.019,-1.685 7.714,-3.734 0.957,-1.156 1.535,-2.338 1.836,-3.857 0.318,-1.613 0.175,-3.422 0.246,-5.449 0.124,-3.612 1.501,-6.09 3.917,-7.529 2.331,-1.389 5.842,-1.883 9.183,-0.735 2.668,0.916 4.385,3.345 6.245,5.204 1.892,1.892 4.01,4.009 5.693,5.693 0.967,0.968 1.838,2.003 2.753,3 2.682,2.917 5.782,5.667 8.572,8.509 4.266,4.345 8.567,8.655 12.876,12.957 2.212,2.208 4.427,4.414 6.639,6.622 0.824,0.822 1.592,1.852 2.474,2.595 0.998,0.839 1.999,2.299 1.999,2.299 l 37.726,40.746 z"
             style="fill:#ffffff;fill-opacity:1;fill-rule:evenodd;stroke:none"
             id="path54" /></g><g
           id="g56"
           transform="translate(22.1621,337.2405)"><path
             d="m 0,0 c 0,0 19.77,-19.831 23.024,-23.086 3.943,-3.942 7.666,-7.605 11.449,-11.387 7.574,-7.575 15.185,-15.429 22.712,-22.957 0.959,-0.959 2.04,-1.795 2.999,-2.755 3.748,-3.748 7.607,-7.606 11.448,-11.448 1.898,-1.898 4.127,-3.332 6.795,-4.591 1.321,-0.624 2.686,-1.181 4.163,-1.53 3.253,-0.77 6.806,-1.102 10.347,-1.102 3.58,0 6.538,0.994 9.304,2.082 1.241,0.487 2.684,1.127 3.858,1.896 1.168,0.77 2.419,1.481 3.366,2.327 1.054,0.941 2.008,1.824 2.938,2.755 0.994,0.993 1.644,2.025 2.449,3.245 1.468,2.222 2.653,4.759 3.612,7.836 0.901,2.89 1.695,6.341 1.163,10.039 -0.237,1.654 -0.669,3.149 -1.286,4.47 -1.709,3.663 -4.441,7.146 -9.672,7.407 -3.844,0.192 -6.018,-1.685 -7.713,-3.734 -0.957,-1.156 -1.536,-2.338 -1.837,-3.857 -0.318,-1.613 -0.175,-3.422 -0.245,-5.449 -0.125,-3.612 -1.501,-6.09 -3.918,-7.529 -2.331,-1.389 -5.842,-1.883 -9.183,-0.735 -2.668,0.916 -4.385,3.345 -6.245,5.204 -1.892,1.892 -4.01,4.009 -5.693,5.693 -0.967,0.968 -1.837,2.003 -2.753,3 -2.682,2.917 -5.782,5.667 -8.572,8.509 -4.265,4.345 -8.566,8.655 -12.876,12.957 -2.212,2.208 -4.426,4.414 -6.639,6.622 -0.824,0.822 -1.591,1.852 -2.474,2.595 -0.998,0.839 -1.999,2.299 -1.999,2.299 L 0.796,29.522 Z"
             style="fill:#ffffff;fill-opacity:1;fill-rule:evenodd;stroke:none"
             id="path58" /></g><g
           id="g60"
           transform="translate(90.4131,406.1111)"><path
             d="M 0,0 1.306,5.36 C 2.104,8.642 0.475,11.037 -2.342,11.723 -5.157,12.407 -7.679,11.021 -8.478,7.74 L -9.782,2.38 Z m 11.491,1.712 -1.035,-4.255 13.785,-3.353 -2.857,-11.736 -45.054,10.959 4.495,18.463 c 2.237,9.183 10.383,14.252 19.801,11.961 5.529,-1.345 9.437,-5 11.078,-9.855 L 30.148,18.367 26.96,5.27 Z"
             style="fill:#ffffff;fill-opacity:1;fill-rule:nonzero;stroke:none"
             id="path62" /></g><g
           id="g64"
           transform="translate(76.7344,437.3904)"><path
             d="M 0,0 3.951,11.584 47.828,-3.381 43.879,-14.964 Z"
             style="fill:#ffffff;fill-opacity:1;fill-rule:nonzero;stroke:none"
             id="path66" /></g><g
           id="g68"
           transform="translate(108.7988,438.7439)"><path
             d="m 0,0 -1.674,0.732 4.885,11.143 1.076,-0.472 c 3.25,-1.424 6.139,-0.528 7.342,2.216 1.146,2.612 -0.117,5.329 -3.402,6.77 l -27.311,11.972 4.885,11.142 27.908,-12.234 C 22.912,27.234 26.596,18.15 22.518,8.847 18.467,-0.392 9.229,-4.046 0,0"
             style="fill:#ffffff;fill-opacity:1;fill-rule:nonzero;stroke:none"
             id="path70" /></g><g
           id="g72"
           transform="translate(123.3271,469.8435)"><path
             d="m 0,0 6.323,10.736 c 2.854,-1.68 5.469,-0.417 6.866,1.957 1.285,2.18 1.284,4.985 -0.899,6.27 -2.506,1.475 -4.964,-1.037 -8.003,-4.09 -4.651,-4.615 -10.526,-10.544 -19.62,-5.187 -7.867,4.633 -9.154,12.754 -3.908,21.663 5.334,9.057 13.309,11.355 21.437,6.567 L -3.951,27.479 c -2.527,1.488 -4.76,0.405 -6.03,-1.752 -1.092,-1.855 -1.292,-4.136 0.572,-5.235 2.269,-1.336 4.697,1.07 7.737,4.07 4.792,4.667 11.038,10.781 20.159,5.407 8.725,-5.139 9.52,-14.147 4.354,-22.92 C 17.396,-2.197 8.708,-5.129 0,0"
             style="fill:#ffffff;fill-opacity:1;fill-rule:nonzero;stroke:none"
             id="path74" /></g><g
           id="g76"
           transform="translate(155.2539,567.2088)"><path
             d="m 0,0 26.867,-40.122 -6.824,-8.152 -22.558,7.915 11.863,-20.688 -6.827,-8.151 -44.357,19.233 8.326,9.944 25.053,-11.698 -13.607,25.012 2.683,3.204 27.152,-8.866 -16.029,22.509 z"
             style="fill:#ffffff;fill-opacity:1;fill-rule:nonzero;stroke:none"
             id="path78" /></g><g
           id="g80"
           transform="translate(158.8281,568.3162)"><path
             d="m 0,0 9.078,8.209 31.094,-34.394 -9.08,-8.208 z"
             style="fill:#ffffff;fill-opacity:1;fill-rule:nonzero;stroke:none"
             id="path82" /></g><g
           id="g84"
           transform="translate(187.5254,553.9793)"><path
             d="M 0,0 -1.098,1.459 8.625,8.771 9.33,7.834 c 2.133,-2.837 5.09,-3.473 7.484,-1.671 2.281,1.714 2.512,4.701 0.357,7.567 L -0.75,37.559 8.973,44.871 27.285,20.521 C 33.324,12.492 32.078,2.77 23.959,-3.337 15.898,-9.399 6.057,-8.052 0,0"
             style="fill:#ffffff;fill-opacity:1;fill-rule:nonzero;stroke:none"
             id="path86" /></g><g
           id="g88"
           transform="translate(246.1182,574.116)"><path
             d="m 0,0 -20.974,11.733 10.004,-17.875 -10.537,-5.9 -22.644,40.461 10.537,5.899 9.545,-17.054 0.566,22.715 12.219,6.842 -1.279,-26.456 25.066,-13.364 z"
             style="fill:#ffffff;fill-opacity:1;fill-rule:nonzero;stroke:none"
             id="path90" /></g><g
           id="g92"
           transform="translate(246.0918,591.3807)"><path
             d="m 0,0 11.581,4.596 c 1.222,-3.078 4.064,-3.686 6.622,-2.67 2.352,0.933 4.072,3.147 3.138,5.502 -1.073,2.704 -4.557,2.228 -8.83,1.683 C 6.006,8.322 -2.271,7.247 -6.166,17.06 c -3.369,8.487 0.596,15.688 10.204,19.502 9.77,3.876 17.478,0.795 20.959,-7.973 L 13.738,24.121 c -1.082,2.726 -3.509,3.241 -5.837,2.318 -2,-0.793 -3.557,-2.472 -2.758,-4.484 0.971,-2.448 4.365,-2.038 8.606,-1.536 6.647,0.744 15.331,1.736 19.239,-8.106 C 36.725,2.901 31.826,-4.699 22.363,-8.454 12.39,-12.412 3.73,-9.394 0,0"
             style="fill:#ffffff;fill-opacity:1;fill-rule:nonzero;stroke:none"
             id="path94" /></g><g
           id="g96"
           transform="translate(303.5137,593.6981)"><path
             d="m 0,0 c -13.01,-2.955 -25.043,5.026 -28.116,18.551 -3.091,13.599 4.311,25.994 17.321,28.949 11.203,2.545 21.657,-3.306 26,-14.375 L 3.273,30.414 c -2.521,4.304 -6.898,6.476 -11.397,5.454 -6.054,-1.375 -9.323,-7.531 -7.731,-14.532 1.584,-6.974 7.177,-11.039 13.23,-9.664 4.742,1.077 7.729,5.193 7.784,10.489 l 12.044,2.736 C 18.28,12.64 11.386,2.587 0,0.001 Z"
             style="fill:#ffffff;fill-opacity:1;fill-rule:nonzero;stroke:none"
             id="path98" /></g><g
           id="g100"
           transform="translate(357.7012,647.4774)"><path
             d="m 0,0 2.563,-46.292 -12.165,-0.674 -0.984,17.771 -13.135,-0.728 0.984,-17.77 -12.165,-0.674 -2.564,46.292 12.165,0.674 0.925,-16.702 13.136,0.728 -0.926,16.701 z"
             style="fill:#ffffff;fill-opacity:1;fill-rule:nonzero;stroke:none"
             id="path102" /></g><g
           id="g104"
           transform="translate(390.3428,609.4549)"><path
             d="M 0,0 -0.929,-11.042 -29.41,-8.646 -25.522,37.561 2.431,35.209 1.505,24.205 -14.466,25.549 -15.038,18.746 -0.69,17.539 -1.568,7.098 -15.917,8.305 -16.499,1.387 Z"
             style="fill:#ffffff;fill-opacity:1;fill-rule:nonzero;stroke:none"
             id="path106" /></g><g
           id="g108"
           transform="translate(404.4561,611.1063)"><path
             d="m 0,0 12.006,-3.333 c -0.887,-3.191 1.011,-5.392 3.663,-6.128 2.437,-0.677 5.147,0.049 5.825,2.489 0.778,2.803 -2.284,4.529 -6.018,6.675 C 9.815,3.004 2.57,7.146 5.396,17.318 7.841,26.117 15.353,29.46 25.313,26.695 35.441,23.883 39.722,16.772 37.196,7.682 l -11.672,3.24 c 0.786,2.826 -0.837,4.704 -3.25,5.373 -2.074,0.576 -4.329,0.179 -4.908,-1.906 -0.705,-2.538 2.246,-4.261 5.93,-6.423 C 29.042,4.543 36.562,0.089 33.728,-10.113 31.017,-19.872 22.521,-22.969 12.711,-20.245 2.371,-17.375 -2.705,-9.739 0,0"
             style="fill:#ffffff;fill-opacity:1;fill-rule:nonzero;stroke:none"
             id="path110" /></g><g
           id="g112"
           transform="translate(465.3643,605.8807)"><path
             d="M 0,0 C 1.306,3.026 0.304,5.996 -2.616,7.255 L -7.31,9.279 -11.767,-1.054 -7.071,-3.077 C -4.152,-4.336 -1.306,-3.025 0,0 m 11.412,-4.889 c -3.85,-8.928 -13.014,-12.693 -21.571,-9.004 l -6.024,2.598 -5.071,-11.759 -11.116,4.792 18.361,42.575 17.141,-7.389 c 8.556,-3.69 12.131,-12.885 8.28,-21.813"
             style="fill:#ffffff;fill-opacity:1;fill-rule:nonzero;stroke:none"
             id="path114" /></g><g
           id="g116"
           transform="translate(493.2207,569.4627)"><path
             d="M 0,0 -5.633,-9.541 -30.243,4.992 -6.67,44.918 17.483,30.654 11.869,21.146 -1.93,29.296 -5.4,23.418 6.997,16.096 1.67,7.074 -10.728,14.396 -14.256,8.419 Z"
             style="fill:#ffffff;fill-opacity:1;fill-rule:nonzero;stroke:none"
             id="path118" /></g><g
           id="g120"
           transform="translate(516.5439,551.7654)"><path
             d="M 0,0 -6.683,-8.836 -29.481,8.398 -1.519,45.377 20.858,28.461 14.199,19.655 1.415,29.319 -2.702,23.876 8.783,15.192 2.464,6.837 -9.021,15.52 -13.208,9.983 Z"
             style="fill:#ffffff;fill-opacity:1;fill-rule:nonzero;stroke:none"
             id="path122" /></g><g
           id="g124"
           transform="translate(537.6641,532.5936)"><path
             d="M 0,0 -8.015,-8.521 -28.295,10.553 3.471,44.326 12.385,35.942 -11.367,10.689 Z"
             style="fill:#ffffff;fill-opacity:1;fill-rule:nonzero;stroke:none"
             id="path126" /></g><g
           id="g128"
           transform="translate(600.2881,510.3055)"><path
             d="m 0,0 -44.747,-18.177 -6.598,8.336 12.33,20.484 -22.668,-7.422 -6.597,8.335 27.842,39.536 8.048,-10.168 -16.543,-22.161 27.256,8.255 2.594,-3.278 -14.194,-24.79 25.296,11.133 z"
             style="fill:#ffffff;fill-opacity:1;fill-rule:nonzero;stroke:none"
             id="path130" /></g><g
           id="g132"
           transform="translate(600.6113,506.6678)"><path
             d="m 0,0 6.229,-10.534 -39.916,-23.595 -6.228,10.534 z"
             style="fill:#ffffff;fill-opacity:1;fill-rule:nonzero;stroke:none"
             id="path134" /></g><g
           id="g136"
           transform="translate(580.7695,481.4431)"><path
             d="m 0,0 1.645,0.793 5.277,-10.961 -1.059,-0.51 c -3.197,-1.539 -4.397,-4.315 -3.097,-7.015 1.236,-2.571 4.121,-3.38 7.353,-1.825 L 36.982,-6.584 42.258,-17.545 14.807,-30.762 C 5.754,-35.12 -3.539,-32.003 -7.944,-22.85 -12.318,-13.762 -9.078,-4.37 0,0"
             style="fill:#ffffff;fill-opacity:1;fill-rule:nonzero;stroke:none"
             id="path138" /></g><g
           id="g140"
           transform="translate(603.0977,416.9646)"><path
             d="m 0,0 -11.239,-3.891 -11.357,32.803 2.51,0.87 35.378,-4.944 -4.966,14.345 11.24,3.89 10.763,-31.086 -2.727,-0.944 -35.135,4.938 z"
             style="fill:#ffffff;fill-opacity:1;fill-rule:nonzero;stroke:none"
             id="path142" /></g><g
           id="g144"
           transform="translate(608.4043,389.1707)"><path
             d="M 0,0 -10.799,-2.476 -17.186,25.386 28.007,35.746 34.273,8.401 23.512,5.934 19.932,21.558 13.277,20.032 16.494,5.996 6.283,3.654 3.065,17.69 -3.699,16.14 Z"
             style="fill:#ffffff;fill-opacity:1;fill-rule:nonzero;stroke:none"
             id="path146" /></g><g
           id="g148"
           transform="translate(544.252,355.7732)"><path
             d="m 0,0 c 0,-104.891 -85.03,-189.921 -189.921,-189.921 -104.891,0 -189.921,85.03 -189.921,189.921 0,104.891 85.03,189.921 189.921,189.921 C -85.03,189.921 0,104.891 0,0"
             style="fill:#1d70b8;fill-opacity:1;fill-rule:nonzero;stroke:none"
             id="path150" /></g><g
           id="g152"
           transform="translate(486.165,256.4124)"><path
             d="m 0,0 0.764,8.889 2.693,10.5 -3.516,60.31 -47.243,83.655 -39.192,69.258 -68.26,23.416 -19.477,4.874 -44.264,-47.857 -1.796,-3.123 -1.079,-1.627 0.252,-1.936 8.229,-10.421 0.917,-4.83 10.619,-8.877 11.436,-5.417 6.83,-0.174 24.812,-7.099 16.653,7.706 1.187,-0.876 23.903,-9.35 4.782,-14.375 9.204,-36.313 -3.905,-21.525 -3.142,-15.906 -100.053,37.98 -48.696,-36.639 -0.298,-1.199 -8.486,-65.007 71.812,-42.346 3.022,-0.733 137.499,-2.024 53.855,20.883 z"
             style="fill:#1d1d1b;fill-opacity:1;fill-rule:nonzero;stroke:none"
             id="path154" /></g><g
           id="g156"
           transform="translate(384.2715,412.4988)"><path
             d="m 0,0 -5.655,17.897 -0.255,1.236 1.214,1.841 2.17,9.007 -0.045,4.394 -0.1,2.161 0.113,2.132 -0.6,-2.095 -0.39,-2.133 -0.915,-4.166 -3.473,-7.101 -0.205,-0.211 -3.992,-1.084 -20.18,6.786 -10.852,4.104 -0.151,-0.052 -1.772,1.575 -6.858,3.716 -0.702,0.297 0.013,0.03 -0.187,0.045 -0.593,0.27 0.014,0.182 0.738,3.369 2.163,6.48 9.342,-1.685 -9.588,2.922 -0.425,0.13 -0.246,-0.456 -3.301,-6.647 -1.335,-3.656 -0.068,-0.326 -0.679,0.065 -2.114,-0.055 -1.857,-0.903 1.855,0.25 1.833,-0.565 1.058,-0.485 0.324,-0.528 0.623,-0.536 1.69,-1.051 5.542,-4.042 1.008,-1.157 -0.801,-1.585 -8.633,-4.446 -11.679,1.368 -1.685,0.726 -2.937,1.16 -2.287,1.763 -0.88,1.776 0.02,0.138 0.701,3.877 3.337,15.554 1.742,7.777 1.572,7.817 -2.206,-7.65 -2.376,-7.605 -4.622,-15.286 -0.203,-0.764 -4.746,-3.662 -9.243,2.275 16.436,42.318 -20.401,-39.57 -4.802,3.308 0.045,4.641 17.262,34.593 -20.527,-30.993 -0.985,0.726 -3.336,2.622 0.552,0.976 27.906,40.848 -0.445,-0.66 -1.049,-2.08 -0.646,-2.245 0.581,-4.498 0.869,4.072 2.142,3.425 1.328,1.489 0.273,0.26 0.08,-0.035 3.781,-1.901 0.203,-0.1 0.111,-0.022 5.006,-0.813 5.111,-0.372 -4.716,2.004 -4.606,1.498 -3.821,2.072 -0.595,0.245 -0.056,0.017 0.074,0.021 20.832,-5.276 63.232,-20.671 37.283,-66.693 48.627,-85.663 1.276,-50.754 -2.238,-8.67 -2.377,-3.553 -4.419,-3.702 -4.894,-0.358 -2.612,1.161 -1.289,0.861 -0.279,0.207 -0.172,0.146 -0.438,0.441 -1.919,2.587 -1.829,3.017 -3.398,6.41 -12.077,26.914 -11.117,27.478 -21.198,55.44 -10.421,27.802 -5.267,13.883 -2.7,6.916 -2.931,6.818 2.701,-6.906 2.468,-6.998 4.802,-14.045 9.492,-28.131 18.158,-52.728 0.775,-6.699 0.467,-9.358 -2.008,-8.891 -5.083,-7.796 -3.064,-3.607 -1.516,-1.905 -0.376,-0.478 -0.317,-0.521 -0.631,-1.042 -2.983,-9.141 0.055,-9.559 0.596,-4.388 -17.116,32.846 0.833,8.209 2.925,10.582 1.127,5.693 -0.1,2.861 -0.252,2.796 -3.381,21.958 -2.184,11.611 0.669,5.116 z"
             style="fill:#ffffff;fill-opacity:1;fill-rule:nonzero;stroke:none"
             id="path158" /></g><g
           id="g160"
           transform="translate(454.4844,239.5901)"><path
             d="m 0,0 -34.534,20.842 -8.249,9.345 -0.481,4.721 0.267,9.437 3.177,8.732 2.841,3.674 3.224,3.545 5.556,7.932 2.49,9.479 -0.004,7.228 8.25,-22.415 11.319,-27.64 3.331,-6.818 1.91,-3.396 2.398,-3.44 0.837,-0.905 0.52,-0.47 L 3.305,19.486 4.631,18.537 4.91,1.375 Z"
             style="fill:#ffffff;fill-opacity:1;fill-rule:nonzero;stroke:none"
             id="path162" /></g><g
           id="g164"
           transform="translate(237.6606,332.9456)"><path
             d="m 0,0 0.086,0.349 3.451,2.338 9.161,4.952 19.645,7.37 41.575,3.167 19.852,-6.562 8.863,-5.666 8.597,-6.374 17.885,-11.758 4.709,-2.55 2.404,-1.18 2.459,-1.066 2.521,-0.908 2.592,-0.68 0.492,-0.07 1.066,-1.167 -32.513,-18.352 -19.264,-5.004 -54.287,12.032 -41.903,20.361 z"
             style="fill:#ffffff;fill-opacity:1;fill-rule:nonzero;stroke:none"
             id="path166" /></g><g
           id="g168"
           transform="translate(386.4033,322.7845)"><path
             d="M 0,0 -0.35,1.514 3.526,26.286 4.915,32.952 5.293,31.433 9.92,9.936 10.321,7.247 10.574,4.597 9.841,-0.561 7.521,-11.432 7.083,-17.773 Z"
             style="fill:#ffffff;fill-opacity:1;fill-rule:nonzero;stroke:none"
             id="path170" /></g><g
           id="g172"
           transform="translate(278.9727,363.1472)"><path
             d="m 0,0 98.141,-43.542 4.675,-5.117 -0.295,0.051 -2.547,0.751 -2.475,0.977 -2.408,1.133 -2.353,1.246 -4.603,2.678 -17.439,12.243 -8.366,6.609 -8.934,6.103 -20.326,7.411 -21.63,1.371 -21.416,-3.323 -20.539,-6.999 -3.073,-1.408 z"
             style="fill:#ffffff;fill-opacity:1;fill-rule:nonzero;stroke:none"
             id="path174" /></g><g
           id="g176"
           transform="translate(233.8604,317.0647)"><path
             d="m 0,0 39.883,-19.362 27.008,-15.288 11.3,-1.248 -2.272,-1.841 -9.573,-6.952 -21.17,-10.29 -11.525,-2.575 -5.902,-0.516 -5.938,0.101 -4.949,0.499 -23.538,17.516 z"
             style="fill:#ffffff;fill-opacity:1;fill-rule:nonzero;stroke:none"
             id="path178" /></g><g
           id="g180"
           transform="translate(252.9067,258.1516)"><path
             d="m 0,0 2.649,-0.356 6.067,-0.436 6.091,0.202 12.042,2.012 22.504,9.466 10.256,6.628 4.902,3.55 2.385,1.713 1.127,0.742 0.439,0.237 0.028,0.015 -0.159,-0.019 -0.011,0.079 11.583,2.821 18.862,4.897 34.789,18.54 26.404,-48.296 -2.785,0.3 -8.347,-1.674 -15.174,-7.684 -7.395,-4.155 -7.39,-4.03 -15.918,-4.639 -33.511,-1.186 -33.591,3.124 -0.046,-0.419 z"
             style="fill:#ffffff;fill-opacity:1;fill-rule:nonzero;stroke:none"
             id="path182" /></g><g
           id="g184"
           transform="translate(430.0361,235.7112)"><path
             d="m 0,0 -0.489,-0.039 -0.475,-0.13 -113.349,-2.429 6.509,-0.148 34.094,2.529 16.33,5.459 3.719,2.155 3.618,2.217 7.226,4.436 14.759,8.206 8.102,1.953 3.019,-0.228 3.643,-3.38 29.575,-18.493 z"
             style="fill:#ffffff;fill-opacity:1;fill-rule:nonzero;stroke:none"
             id="path186" /></g><g
           id="g188"
           transform="translate(462.5469,242.0032)"><path
             d="M 0,0 -0.398,14.424 1.093,13.848 5.904,13.159 10.693,14.241 13.2,15.582 13.18,14.608 12.575,6.86 Z"
             style="fill:#ffffff;fill-opacity:1;fill-rule:nonzero;stroke:none"
             id="path190" /></g><g
           id="g192"
           transform="translate(321.4165,281.927)"><path
             d="M 0,0 -0.02,-0.003 0.054,0.038 Z"
             style="fill:#1d1d1b;fill-opacity:1;fill-rule:nonzero;stroke:none"
             id="path194" /></g></g></g></g></svg>
